<svg width="16px" height="16px" viewBox="0 0 18 18" fill="none" xmlns="http://www.w3.org/2000/svg">
<path d="M1.30273 8.01562H2.68066L2.82178 0.0136719H1.16162L1.30273 8.01562ZM2 12.1494C2.33757 12.1494 2.61149 12.0415 2.82178 11.8257C3.0376 11.6099 3.14551 11.3332 3.14551 10.9956C3.14551 10.6525 3.0376 10.373 2.82178 10.1572C2.61149 9.94141 2.33757 9.8335 2 9.8335C1.66243 9.8335 1.38574 9.94141 1.16992 10.1572C0.954102 10.373 0.846191 10.6525 0.846191 10.9956C0.846191 11.3332 0.954102 11.6099 1.16992 11.8257C1.38574 12.0415 1.66243 12.1494 2 12.1494Z" fill="#AF52DE"/>
</svg>
