<svg width="22" height="17" viewBox="0 0 22 17" fill="none" xmlns="http://www.w3.org/2000/svg">
<path d="M17.1304 1.58628H9.04492C8.41692 1.58628 8.04187 1.44909 7.55342 1.05466L7.06498 0.660236C6.4457 0.162915 5.99215 0 5.07632 0H2.60794C0.968164 0 0 0.943194 0 2.75241V5.15327H20V4.38157C20 2.54662 19.0144 1.58628 17.1304 1.58628ZM2.8696 16H17.3397C19.0231 16 20 15.0397 20 13.2047V6.388H0V13.2047C0 15.0482 0.985608 16 2.8696 16Z" fill="#8E8E93"/>
<path d="M14.7812 16.7529C15.0612 16.9092 15.3411 16.9092 15.6211 16.7529L16.9736 15.9814C17.0908 15.9131 17.1641 15.8252 17.1934 15.7178C17.2227 15.6104 17.2096 15.5046 17.1543 15.4004C17.099 15.2995 17.0127 15.236 16.8955 15.21C16.7816 15.1872 16.6676 15.2083 16.5537 15.2734L15.6064 15.8154V14.8242C15.6064 14.6908 15.5674 14.5817 15.4893 14.4971C15.4144 14.4092 15.3184 14.3652 15.2012 14.3652C15.0807 14.3652 14.9814 14.4092 14.9033 14.4971C14.8285 14.5817 14.791 14.6908 14.791 14.8242V15.8154L13.8438 15.2734C13.7298 15.2083 13.6143 15.1872 13.4971 15.21C13.3831 15.236 13.2985 15.2995 13.2432 15.4004C13.1878 15.5046 13.1748 15.6104 13.2041 15.7178C13.2334 15.8252 13.3083 15.9131 13.4287 15.9814L14.7812 16.7529ZM11.5781 14.9316C11.6953 14.9967 11.8109 15.0195 11.9248 15C12.042 14.9772 12.1283 14.9121 12.1836 14.8047C12.2389 14.7005 12.2471 14.5931 12.208 14.4824C12.1722 14.3717 12.1006 14.2855 11.9932 14.2236L11.4658 13.9307L12.2178 13.4961C12.3382 13.431 12.418 13.3415 12.457 13.2275C12.4961 13.1104 12.4831 13.0029 12.418 12.9053C12.3529 12.8076 12.265 12.7458 12.1543 12.7197C12.0436 12.6904 11.9329 12.7067 11.8223 12.7686L11.0361 13.2129V12.5781C11.0361 12.4479 10.9987 12.3389 10.9238 12.251C10.849 12.1631 10.7546 12.1191 10.6406 12.1191C10.5234 12.1191 10.4274 12.1631 10.3525 12.251C10.2809 12.3389 10.2451 12.4479 10.2451 12.5781V13.3447C10.2451 13.7061 10.3037 13.9697 10.4209 14.1357C10.5413 14.2985 10.7155 14.445 10.9434 14.5752L11.5781 14.9316ZM10.6406 11.0645C10.7578 11.0645 10.8522 11.0221 10.9238 10.9375C10.9987 10.8496 11.0361 10.7389 11.0361 10.6055V9.67773L11.9395 10.1953C12.0469 10.2572 12.1559 10.2751 12.2666 10.249C12.3773 10.223 12.4668 10.1611 12.5352 10.0635C12.6003 9.96582 12.6117 9.86003 12.5693 9.74609C12.527 9.62891 12.4456 9.53776 12.3252 9.47266L11.4805 8.98926L12.3057 8.52051C12.387 8.47493 12.4489 8.41797 12.4912 8.34961C12.5368 8.27799 12.5612 8.20475 12.5645 8.12988C12.5677 8.05176 12.5482 7.97852 12.5059 7.91016C12.4408 7.8125 12.3529 7.75391 12.2422 7.73438C12.1348 7.71484 12.029 7.73438 11.9248 7.79297L10.8604 8.39844C10.6618 8.51562 10.5088 8.65723 10.4014 8.82324C10.2972 8.98926 10.2451 9.20736 10.2451 9.47754V10.6055C10.2451 10.7389 10.2826 10.8496 10.3574 10.9375C10.4323 11.0221 10.5267 11.0645 10.6406 11.0645ZM15.2012 8.46191C15.3184 8.46191 15.4144 8.4196 15.4893 8.33496C15.5674 8.24707 15.6064 8.13802 15.6064 8.00781V7.09961L16.2949 7.49512C16.4056 7.55697 16.5195 7.5765 16.6367 7.55371C16.7572 7.53092 16.8434 7.46908 16.8955 7.36816C16.9346 7.2998 16.9525 7.22982 16.9492 7.1582C16.9492 7.08659 16.9281 7.01823 16.8857 6.95312C16.8467 6.88802 16.7881 6.83268 16.71 6.78711L15.6504 6.18652C15.4909 6.09538 15.3411 6.0498 15.2012 6.0498C15.0612 6.0498 14.9098 6.09538 14.7471 6.18652L13.6875 6.78711C13.6094 6.83268 13.5508 6.88802 13.5117 6.95312C13.4727 7.01823 13.4515 7.08659 13.4482 7.1582C13.4482 7.22982 13.4661 7.2998 13.502 7.36816C13.5573 7.46908 13.6436 7.53092 13.7607 7.55371C13.8812 7.5765 13.9951 7.55697 14.1025 7.49512L14.791 7.09961V8.00781C14.791 8.13802 14.8285 8.24707 14.9033 8.33496C14.9814 8.4196 15.0807 8.46191 15.2012 8.46191ZM19.7568 11.0645C19.8708 11.0645 19.9652 11.0221 20.04 10.9375C20.1149 10.8496 20.1523 10.7389 20.1523 10.6055V9.47754C20.1523 9.18457 20.1068 8.96484 20.0156 8.81836C19.9277 8.66862 19.7699 8.52865 19.542 8.39844L18.4727 7.79297C18.3717 7.73438 18.266 7.71484 18.1553 7.73438C18.0479 7.75391 17.9616 7.8125 17.8965 7.91016C17.8542 7.97852 17.833 8.05176 17.833 8.12988C17.8363 8.20475 17.859 8.27799 17.9014 8.34961C17.9469 8.41797 18.012 8.47493 18.0967 8.52051L18.9219 8.98926L18.0723 9.47266C17.9518 9.53776 17.8704 9.62891 17.8281 9.74609C17.7891 9.86003 17.8021 9.96582 17.8672 10.0635C17.9323 10.1611 18.0202 10.223 18.1309 10.249C18.2448 10.2751 18.3538 10.2572 18.458 10.1953L19.3613 9.67773V10.6055C19.3613 10.7389 19.3988 10.8496 19.4736 10.9375C19.5485 11.0221 19.6429 11.0645 19.7568 11.0645ZM18.8193 14.9316L19.4541 14.5752C19.6852 14.445 19.8594 14.2985 19.9766 14.1357C20.0938 13.9697 20.1523 13.7061 20.1523 13.3447V12.5781C20.1523 12.4479 20.1149 12.3389 20.04 12.251C19.9684 12.1631 19.874 12.1191 19.7568 12.1191C19.6462 12.1191 19.5518 12.1631 19.4736 12.251C19.3988 12.3389 19.3613 12.4479 19.3613 12.5781V13.2178L18.5752 12.7686C18.4645 12.7067 18.3538 12.6904 18.2432 12.7197C18.1357 12.7458 18.0495 12.8076 17.9844 12.9053C17.9193 13.0029 17.9062 13.1104 17.9453 13.2275C17.9844 13.3415 18.0625 13.431 18.1797 13.4961L18.9268 13.9307L18.4043 14.2236C18.2969 14.2855 18.2253 14.3717 18.1895 14.4824C18.1536 14.5931 18.1634 14.7005 18.2188 14.8047C18.2741 14.9121 18.3587 14.9772 18.4727 15C18.5898 15.0195 18.7054 14.9967 18.8193 14.9316ZM15.2012 13.3594C15.3184 13.3594 15.4144 13.3154 15.4893 13.2275C15.5674 13.1396 15.6064 13.0306 15.6064 12.9004V11.8213L16.6123 11.2451C16.7295 11.18 16.806 11.0905 16.8418 10.9766C16.8809 10.8594 16.8678 10.752 16.8027 10.6543C16.7376 10.5534 16.6497 10.4899 16.5391 10.4639C16.4316 10.4378 16.3242 10.4557 16.2168 10.5176L15.2012 11.0938L14.1855 10.5176C14.0749 10.4557 13.9642 10.4378 13.8535 10.4639C13.7461 10.4899 13.6598 10.5534 13.5947 10.6543C13.5296 10.752 13.515 10.8594 13.5508 10.9766C13.5898 11.0905 13.6696 11.18 13.79 11.2451L14.791 11.8213V12.9004C14.791 13.0306 14.8285 13.1396 14.9033 13.2275C14.9814 13.3154 15.0807 13.3594 15.2012 13.3594Z" fill="#0A84FF"/>
</svg>
