<svg width="23" height="21" viewBox="0 0 23 21" fill="none" xmlns="http://www.w3.org/2000/svg">
<path d="M17.2617 1.62598H9.11426C8.48145 1.62598 8.10352 1.48535 7.61133 1.08105L7.11914 0.676758C6.49512 0.166992 6.03809 0 5.11523 0H2.62793C0.975586 0 0 0.966797 0 2.82129V5.28223H20.1533V4.49121C20.1533 2.61035 19.1602 1.62598 17.2617 1.62598ZM2.8916 16.4004H17.4727C19.1689 16.4004 20.1533 15.416 20.1533 13.5352V6.54785H0V13.5352C0 15.4248 0.993164 16.4004 2.8916 16.4004Z" fill="#8E8E93"/>
<path d="M14.3604 15.376C14.3604 15.7568 14.4824 16.0628 14.7266 16.2939C14.9707 16.5283 15.2913 16.6455 15.6885 16.6455H19.3066C19.707 16.6455 20.0277 16.5283 20.2686 16.2939C20.5127 16.0628 20.6348 15.7568 20.6348 15.376V7.57324C20.6348 7.19238 20.5127 6.88639 20.2686 6.65527C20.0277 6.4209 19.707 6.30371 19.3066 6.30371H15.6885C15.2913 6.30371 14.9707 6.4209 14.7266 6.65527C14.4824 6.88639 14.3604 7.19238 14.3604 7.57324V15.376ZM15.1465 14.9902V7.95898H19.8486V14.9902H15.1465ZM17.5049 16.1621C17.3877 16.1621 17.2868 16.1198 17.2021 16.0352C17.1208 15.9538 17.0801 15.8545 17.0801 15.7373C17.0801 15.6201 17.1208 15.5208 17.2021 15.4395C17.2868 15.3581 17.3877 15.3174 17.5049 15.3174C17.6188 15.3174 17.7165 15.3581 17.7979 15.4395C17.8825 15.5208 17.9248 15.6201 17.9248 15.7373C17.9248 15.8545 17.8825 15.9538 17.7979 16.0352C17.7165 16.1198 17.6188 16.1621 17.5049 16.1621ZM16.5723 7.1582C16.5723 7.10286 16.5885 7.05892 16.6211 7.02637C16.6569 6.99056 16.7025 6.97266 16.7578 6.97266H18.2422C18.2975 6.97266 18.3415 6.99056 18.374 7.02637C18.4098 7.05892 18.4277 7.10286 18.4277 7.1582C18.4277 7.21354 18.4098 7.25749 18.374 7.29004C18.3415 7.32259 18.2975 7.33887 18.2422 7.33887H16.7578C16.7025 7.33887 16.6569 7.32259 16.6211 7.29004C16.5885 7.25749 16.5723 7.21354 16.5723 7.1582Z" fill="#04DE71"/>
</svg>
