<svg width="14" height="17" viewBox="0 0 14 17" fill="none" xmlns="http://www.w3.org/2000/svg">
<path d="M9.69141 4.30859C9.27637 4.30859 8.889 4.37223 8.5293 4.49951C8.17513 4.62679 7.8514 4.75407 7.55811 4.88135C7.26481 5.00309 7.01025 5.06396 6.79443 5.06396C6.56755 5.06396 6.31576 5.00586 6.03906 4.88965C5.76237 4.7679 5.46354 4.64893 5.14258 4.53271C4.82715 4.4165 4.48958 4.3584 4.12988 4.3584C3.44922 4.3584 2.79346 4.54378 2.1626 4.91455C1.53174 5.28532 1.01432 5.83317 0.610352 6.55811C0.20638 7.28304 0.00439453 8.17676 0.00439453 9.23926C0.00439453 9.90332 0.0818685 10.5674 0.236816 11.2314C0.391764 11.8955 0.599284 12.5236 0.859375 13.1157C1.11947 13.7078 1.40723 14.2308 1.72266 14.6846C2.13216 15.2546 2.5306 15.7443 2.91797 16.1538C3.31087 16.5633 3.76465 16.7681 4.2793 16.7681C4.61686 16.7681 4.91016 16.7127 5.15918 16.6021C5.4082 16.4914 5.67106 16.3779 5.94775 16.2617C6.22998 16.151 6.58138 16.0957 7.00195 16.0957C7.32292 16.0957 7.59131 16.1289 7.80713 16.1953C8.02295 16.2617 8.2194 16.3364 8.39648 16.4194C8.5791 16.508 8.77002 16.5854 8.96924 16.6519C9.16846 16.7183 9.40918 16.7515 9.69141 16.7515C10.0622 16.7515 10.3942 16.6519 10.6875 16.4526C10.9863 16.259 11.2603 16.0072 11.5093 15.6973C11.7638 15.3874 12.0101 15.0636 12.248 14.7261C12.5081 14.3442 12.7184 13.979 12.8789 13.6304C13.0449 13.2762 13.1667 12.9884 13.2441 12.7671C13.3216 12.5402 13.3631 12.4157 13.3687 12.3936C13.3521 12.388 13.2303 12.3271 13.0034 12.2109C12.7821 12.0892 12.5275 11.8983 12.2397 11.6382C11.9575 11.3781 11.7085 11.0378 11.4927 10.6172C11.2824 10.1966 11.1772 9.68197 11.1772 9.07324C11.1772 8.54199 11.2603 8.08545 11.4263 7.70361C11.5978 7.31624 11.797 6.99805 12.0239 6.74902C12.2508 6.49447 12.4528 6.30078 12.6299 6.16797C12.8125 6.03516 12.9176 5.96045 12.9453 5.94385C12.6686 5.54541 12.367 5.23551 12.0405 5.01416C11.714 4.79281 11.3931 4.63232 11.0776 4.53271C10.7622 4.43311 10.48 4.37223 10.231 4.3501C9.98747 4.32243 9.80762 4.30859 9.69141 4.30859ZM9.11035 2.96387C9.36491 2.65951 9.57243 2.30811 9.73291 1.90967C9.89339 1.5057 9.97363 1.09066 9.97363 0.664551C9.97363 0.542806 9.96533 0.434896 9.94873 0.34082C9.53369 0.357422 9.09928 0.481934 8.64551 0.714355C8.19727 0.946777 7.8265 1.2373 7.5332 1.58594C7.29525 1.85156 7.08496 2.18359 6.90234 2.58203C6.71973 2.98047 6.62842 3.38997 6.62842 3.81055C6.62842 3.87695 6.63118 3.93783 6.63672 3.99316C6.64779 4.0485 6.65609 4.08724 6.66162 4.10938C6.73356 4.12598 6.80827 4.13428 6.88574 4.13428C7.25651 4.13428 7.64941 4.0236 8.06445 3.80225C8.48503 3.58089 8.83366 3.30143 9.11035 2.96387Z" fill="#98989D"/>
</svg>
