<svg width="22" height="17" viewBox="0 0 22 17" fill="none" xmlns="http://www.w3.org/2000/svg">
<path d="M17.2617 1.62598H9.11426C8.48145 1.62598 8.10352 1.48535 7.61133 1.08105L7.11914 0.676758C6.49512 0.166992 6.03809 0 5.11523 0H2.62793C0.975586 0 0 0.966797 0 2.82129V5.28223H20.1533V4.49121C20.1533 2.61035 19.1602 1.62598 17.2617 1.62598ZM2.8916 16.4004H17.4727C19.1689 16.4004 20.1533 15.416 20.1533 13.5352V6.54785H0V13.5352C0 15.4248 0.993164 16.4004 2.8916 16.4004Z" fill="#8E8E93"/>
<path d="M8.31836 15.7764C8.25977 15.9098 8.23698 16.0433 8.25 16.1768C8.26302 16.3102 8.3151 16.4209 8.40625 16.5088C8.4974 16.5999 8.62923 16.6455 8.80176 16.6455C8.89941 16.6455 8.99219 16.6227 9.08008 16.5771C9.16797 16.5348 9.27051 16.4665 9.3877 16.3721L10.7256 15.2539C10.7777 15.2116 10.8184 15.1904 10.8477 15.1904C10.877 15.1904 10.9176 15.2116 10.9697 15.2539L12.3076 16.3721C12.4215 16.4665 12.5225 16.5348 12.6104 16.5771C12.7015 16.6227 12.7959 16.6455 12.8936 16.6455C13.0661 16.6455 13.1979 16.5999 13.2891 16.5088C13.3802 16.4209 13.4323 16.3102 13.4453 16.1768C13.4583 16.0433 13.4355 15.9098 13.377 15.7764L11.2188 10.8984V8.63281C11.2188 8.26172 11.2334 7.92806 11.2627 7.63184C11.2952 7.33561 11.3262 7.09147 11.3555 6.89941C11.388 6.70736 11.4043 6.58529 11.4043 6.5332C11.4043 6.46484 11.3848 6.41113 11.3457 6.37207C11.3066 6.33301 11.2546 6.31348 11.1895 6.31348C11.1146 6.31348 11.0218 6.3737 10.9111 6.49414L9.83691 7.72949C9.79134 7.78158 9.77344 7.83529 9.7832 7.89062C9.79297 7.94271 9.82552 7.9834 9.88086 8.0127C10.099 8.10384 10.252 8.18522 10.3398 8.25684C10.4277 8.32845 10.4717 8.45378 10.4717 8.63281V10.8936L8.31836 15.7764ZM11.9707 14.8877C11.9056 14.8877 11.8486 14.8649 11.7998 14.8193C11.7542 14.7705 11.7314 14.7119 11.7314 14.6436C11.7314 14.5785 11.7559 14.5215 11.8047 14.4727C11.8535 14.4206 11.9089 14.3945 11.9707 14.3945C12.0391 14.3945 12.0977 14.4206 12.1465 14.4727C12.1953 14.5215 12.2197 14.5785 12.2197 14.6436C12.2197 14.7087 12.1937 14.7656 12.1416 14.8145C12.0928 14.8633 12.0358 14.8877 11.9707 14.8877ZM11.707 14.2578C11.6419 14.2578 11.585 14.235 11.5361 14.1895C11.4873 14.1406 11.4629 14.082 11.4629 14.0137C11.4629 13.9486 11.4873 13.8916 11.5361 13.8428C11.585 13.7907 11.6419 13.7646 11.707 13.7646C11.7754 13.7646 11.834 13.7891 11.8828 13.8379C11.9316 13.8867 11.9561 13.9453 11.9561 14.0137C11.9561 14.0788 11.9316 14.1357 11.8828 14.1846C11.834 14.2334 11.7754 14.2578 11.707 14.2578ZM11.4434 13.623C11.3783 13.623 11.3213 13.6003 11.2725 13.5547C11.2236 13.5059 11.1992 13.4489 11.1992 13.3838C11.1992 13.3187 11.2236 13.2601 11.2725 13.208C11.3213 13.1559 11.3783 13.1299 11.4434 13.1299C11.5085 13.1299 11.5654 13.1559 11.6143 13.208C11.6631 13.2568 11.6875 13.3154 11.6875 13.3838C11.6875 13.4489 11.6631 13.5059 11.6143 13.5547C11.5654 13.6003 11.5085 13.623 11.4434 13.623ZM14.7344 16.6602C15.1673 16.6602 15.5465 16.5788 15.8721 16.416C16.2008 16.2565 16.4548 16.0319 16.6338 15.7422C16.8161 15.4525 16.9072 15.1123 16.9072 14.7217C16.9072 14.4808 16.8763 14.2692 16.8145 14.0869C16.7526 13.9046 16.681 13.7467 16.5996 13.6133C16.5215 13.4798 16.4515 13.3626 16.3896 13.2617C16.3311 13.1608 16.3018 13.0697 16.3018 12.9883C16.3018 12.8613 16.3294 12.7393 16.3848 12.6221C16.4401 12.5049 16.4954 12.3812 16.5508 12.251C16.6061 12.1208 16.6338 11.9743 16.6338 11.8115C16.6338 11.6357 16.5817 11.4925 16.4775 11.3818C16.3734 11.2679 16.2399 11.2109 16.0771 11.2109C15.9274 11.2109 15.8053 11.2484 15.7109 11.3232C15.6165 11.3981 15.5384 11.4795 15.4766 11.5674C15.4277 11.6357 15.3838 11.6927 15.3447 11.7383C15.3057 11.7839 15.2699 11.8066 15.2373 11.8066C15.195 11.8066 15.1641 11.7855 15.1445 11.7432C15.125 11.7008 15.112 11.6488 15.1055 11.5869C15.099 11.5218 15.0957 11.4616 15.0957 11.4062L15.1006 8.4082C15.1006 8.33333 15.1055 8.28613 15.1152 8.2666C15.125 8.24382 15.151 8.22591 15.1934 8.21289C15.2487 8.19336 15.2861 8.16732 15.3057 8.13477C15.3252 8.10221 15.3382 8.05176 15.3447 7.9834L15.4424 6.9873C15.4489 6.89616 15.4163 6.81803 15.3447 6.75293L14.9248 6.38672C14.8695 6.33789 14.806 6.31348 14.7344 6.31348C14.6595 6.31348 14.5944 6.33789 14.5391 6.38672L14.1191 6.75293C14.0475 6.81803 14.015 6.89616 14.0215 6.9873L14.1191 7.9834C14.1322 8.11035 14.1842 8.18685 14.2754 8.21289C14.3112 8.22266 14.334 8.23893 14.3438 8.26172C14.3568 8.28451 14.3633 8.33333 14.3633 8.4082L14.373 11.4014C14.373 11.473 14.3682 11.5397 14.3584 11.6016C14.3519 11.6634 14.3372 11.7139 14.3145 11.7529C14.2949 11.7887 14.2689 11.8066 14.2363 11.8066C14.2005 11.8066 14.1631 11.7822 14.124 11.7334C14.0882 11.6846 14.0426 11.6292 13.9873 11.5674C13.9255 11.4795 13.8473 11.3981 13.7529 11.3232C13.6618 11.2484 13.543 11.2109 13.3965 11.2109C13.2305 11.2109 13.0954 11.2679 12.9912 11.3818C12.887 11.4925 12.835 11.6357 12.835 11.8115C12.835 11.9743 12.8626 12.1208 12.918 12.251C12.9733 12.3812 13.027 12.5049 13.0791 12.6221C13.1344 12.7393 13.1621 12.8613 13.1621 12.9883C13.1621 13.0827 13.1214 13.1885 13.04 13.3057C12.9619 13.4229 12.8805 13.5677 12.7959 13.7402L13.5381 15.4199C13.6097 15.5827 13.6602 15.7178 13.6895 15.8252C13.722 15.9326 13.7383 16.04 13.7383 16.1475C13.7383 16.2581 13.7188 16.3623 13.6797 16.46C13.8392 16.5251 14.0068 16.5739 14.1826 16.6064C14.3584 16.6423 14.5423 16.6602 14.7344 16.6602ZM13.6602 14.6387C13.6081 14.6224 13.569 14.5882 13.543 14.5361C13.5202 14.4808 13.5169 14.4287 13.5332 14.3799L13.9531 13.2275C13.9727 13.1755 14.0085 13.138 14.0605 13.1152C14.1126 13.0892 14.1647 13.0859 14.2168 13.1055C14.2689 13.1217 14.3079 13.1576 14.334 13.2129C14.36 13.265 14.3633 13.3171 14.3438 13.3691L13.9238 14.5166C13.9043 14.5687 13.8685 14.6077 13.8164 14.6338C13.7643 14.6566 13.7122 14.6582 13.6602 14.6387ZM15.8086 14.6387C15.7533 14.6582 15.6995 14.6566 15.6475 14.6338C15.5986 14.6077 15.5645 14.5687 15.5449 14.5166L15.125 13.3691C15.1055 13.3171 15.1087 13.265 15.1348 13.2129C15.1608 13.1576 15.1982 13.1217 15.2471 13.1055C15.3024 13.0859 15.3545 13.0892 15.4033 13.1152C15.4554 13.138 15.4912 13.1755 15.5107 13.2275L15.9307 14.3799C15.9502 14.4287 15.9469 14.4808 15.9209 14.5361C15.8949 14.5882 15.8574 14.6224 15.8086 14.6387ZM18.5625 16.6309C19.2233 16.6309 19.749 16.4844 20.1396 16.1914C20.5303 15.9017 20.7256 15.5078 20.7256 15.0098C20.7256 14.7591 20.693 14.5508 20.6279 14.3848C20.5628 14.2188 20.4863 14.0771 20.3984 13.96C20.3138 13.8428 20.2373 13.7354 20.1689 13.6377C20.1038 13.54 20.0713 13.4375 20.0713 13.3301C20.0713 13.1641 20.0957 13.0013 20.1445 12.8418C20.1934 12.6823 20.2178 12.5016 20.2178 12.2998C20.2178 11.9678 20.1055 11.7008 19.8809 11.499C19.6562 11.2972 19.3389 11.1719 18.9287 11.123V8.22754C18.9287 8.12337 18.9385 8.05013 18.958 8.00781C18.9775 7.96549 19.0166 7.9248 19.0752 7.88574C19.1631 7.82715 19.2038 7.76042 19.1973 7.68555L19.124 6.47949C19.1208 6.43066 19.1029 6.3916 19.0703 6.3623C19.041 6.32975 19.0036 6.31348 18.958 6.31348H18.1572C18.1149 6.31348 18.0775 6.32975 18.0449 6.3623C18.0156 6.3916 17.9993 6.43066 17.9961 6.47949L17.9229 7.68555C17.9163 7.76042 17.957 7.82715 18.0449 7.88574C18.1035 7.92806 18.1426 7.97038 18.1621 8.0127C18.1816 8.05501 18.1914 8.12663 18.1914 8.22754V11.123C17.7812 11.1719 17.4639 11.2972 17.2393 11.499C17.0146 11.7008 16.9023 11.9678 16.9023 12.2998C16.9023 12.5016 16.9268 12.6823 16.9756 12.8418C17.0244 13.0013 17.0488 13.1641 17.0488 13.3301C17.0488 13.3822 17.0391 13.4326 17.0195 13.4814C17.0033 13.527 16.9805 13.5726 16.9512 13.6182C17.0195 13.7646 17.0781 13.9307 17.127 14.1162C17.179 14.3018 17.2051 14.5036 17.2051 14.7217C17.2051 14.9756 17.1693 15.2116 17.0977 15.4297C17.0293 15.651 16.93 15.8512 16.7998 16.0303C16.9854 16.2223 17.2279 16.3704 17.5273 16.4746C17.8268 16.5788 18.1719 16.6309 18.5625 16.6309ZM18.5625 13.7305C18.4095 13.7305 18.2793 13.6784 18.1719 13.5742C18.0645 13.4668 18.0107 13.3382 18.0107 13.1885C18.0107 13.0387 18.0645 12.9102 18.1719 12.8027C18.2793 12.6953 18.4095 12.6416 18.5625 12.6416C18.7122 12.6416 18.8392 12.6953 18.9434 12.8027C19.0508 12.9102 19.1045 13.0387 19.1045 13.1885C19.1045 13.3382 19.0508 13.4668 18.9434 13.5742C18.8392 13.6784 18.7122 13.7305 18.5625 13.7305ZM17.918 15.1074C17.8561 15.1074 17.8024 15.0846 17.7568 15.0391C17.7145 14.9967 17.6934 14.9463 17.6934 14.8877C17.6934 14.8258 17.7145 14.7721 17.7568 14.7266C17.8024 14.681 17.8561 14.6582 17.918 14.6582H19.1973C19.2559 14.6582 19.3063 14.681 19.3486 14.7266C19.3942 14.7689 19.417 14.8226 19.417 14.8877C19.417 14.9463 19.3942 14.9967 19.3486 15.0391C19.3063 15.0846 19.2559 15.1074 19.1973 15.1074H17.918Z" fill="#FF9F0A"/>
</svg>
