<svg width="24" height="22" viewBox="0 0 24 22" fill="none" xmlns="http://www.w3.org/2000/svg">
<path d="M17.2617 1.62598H9.11426C8.48145 1.62598 8.10352 1.48535 7.61133 1.08105L7.11914 0.676758C6.49512 0.166992 6.03809 0 5.11523 0H2.62793C0.975586 0 0 0.966797 0 2.82129V5.28223H20.1533V4.49121C20.1533 2.61035 19.1602 1.62598 17.2617 1.62598ZM2.8916 16.4004H17.4727C19.1689 16.4004 20.1533 15.416 20.1533 13.5352V6.54785H0V13.5352C0 15.4248 0.993164 16.4004 2.8916 16.4004Z" fill="#8E8E93"/>
<path d="M15.1035 14.5547C15.237 14.5547 15.3493 14.5075 15.4404 14.4131C15.5348 14.3154 15.582 14.2015 15.582 14.0713C15.582 13.9411 15.5348 13.8288 15.4404 13.7344C15.3493 13.64 15.237 13.5928 15.1035 13.5928C14.9733 13.5928 14.861 13.64 14.7666 13.7344C14.6722 13.8288 14.625 13.9411 14.625 14.0713C14.625 14.2015 14.6722 14.3154 14.7666 14.4131C14.861 14.5075 14.9733 14.5547 15.1035 14.5547ZM14.2637 12.5869C14.3971 12.5869 14.5111 12.5397 14.6055 12.4453C14.6999 12.3509 14.7471 12.2386 14.7471 12.1084C14.7471 11.9749 14.6999 11.8626 14.6055 11.7715C14.5111 11.6771 14.3971 11.6299 14.2637 11.6299C14.1335 11.6299 14.0212 11.6771 13.9268 11.7715C13.8324 11.8626 13.7852 11.9749 13.7852 12.1084C13.7852 12.2386 13.8324 12.3509 13.9268 12.4453C14.0212 12.5397 14.1335 12.5869 14.2637 12.5869ZM15.0938 10.624C15.2272 10.624 15.3395 10.5768 15.4307 10.4824C15.5251 10.388 15.5723 10.2757 15.5723 10.1455C15.5723 10.012 15.5251 9.89974 15.4307 9.80859C15.3395 9.71419 15.2272 9.66699 15.0938 9.66699C14.9635 9.66699 14.8512 9.71419 14.7568 9.80859C14.6624 9.89974 14.6152 10.012 14.6152 10.1455C14.6152 10.2757 14.6624 10.388 14.7568 10.4824C14.8512 10.5768 14.9635 10.624 15.0938 10.624ZM17.0762 9.76465C17.2064 9.76465 17.3187 9.71745 17.4131 9.62305C17.5075 9.52865 17.5547 9.41634 17.5547 9.28613C17.5547 9.15267 17.5075 9.03874 17.4131 8.94434C17.3187 8.84993 17.2064 8.80273 17.0762 8.80273C16.9427 8.80273 16.8288 8.84993 16.7344 8.94434C16.6432 9.03874 16.5977 9.15267 16.5977 9.28613C16.5977 9.41634 16.6432 9.52865 16.7344 9.62305C16.8288 9.71745 16.9427 9.76465 17.0762 9.76465ZM19.8887 12.5869C20.0189 12.5869 20.1312 12.5397 20.2256 12.4453C20.32 12.3509 20.3672 12.2386 20.3672 12.1084C20.3672 11.9749 20.32 11.8626 20.2256 11.7715C20.1312 11.6771 20.0189 11.6299 19.8887 11.6299C19.7552 11.6299 19.6413 11.6771 19.5469 11.7715C19.4557 11.8626 19.4102 11.9749 19.4102 12.1084C19.4102 12.2386 19.4557 12.3509 19.5469 12.4453C19.6413 12.5397 19.7552 12.5869 19.8887 12.5869ZM19.0488 14.5547C19.179 14.5547 19.2913 14.5075 19.3857 14.4131C19.4801 14.3154 19.5273 14.2015 19.5273 14.0713C19.5273 13.9411 19.4801 13.8288 19.3857 13.7344C19.2913 13.64 19.179 13.5928 19.0488 13.5928C18.9186 13.5928 18.8063 13.64 18.7119 13.7344C18.6175 13.8288 18.5703 13.9411 18.5703 14.0713C18.5703 14.2015 18.6175 14.3154 18.7119 14.4131C18.8063 14.5075 18.9186 14.5547 19.0488 14.5547ZM16.2998 12.8604C16.4333 12.9906 16.5765 13.0687 16.7295 13.0947C16.8825 13.1208 17.0322 13.0996 17.1787 13.0312C17.3252 12.9629 17.4538 12.8522 17.5645 12.6992L19.4736 10.0332C19.5322 9.95182 19.5485 9.87533 19.5225 9.80371C19.4964 9.7321 19.4476 9.6849 19.376 9.66211C19.3044 9.63607 19.2279 9.65072 19.1465 9.70605L16.4561 11.5908C16.3031 11.6982 16.1924 11.8268 16.124 11.9766C16.0557 12.123 16.0345 12.2744 16.0605 12.4307C16.0898 12.5837 16.1696 12.7269 16.2998 12.8604ZM17.0811 17.0889C17.7614 17.0889 18.401 16.9587 19 16.6982C19.6022 16.4378 20.1328 16.0781 20.5918 15.6191C21.0508 15.1602 21.4105 14.6312 21.6709 14.0322C21.9313 13.43 22.0615 12.7887 22.0615 12.1084C22.0615 11.4281 21.9313 10.7884 21.6709 10.1895C21.4105 9.58724 21.0508 9.05664 20.5918 8.59766C20.1328 8.13867 19.6022 7.77897 19 7.51855C18.3978 7.25814 17.7565 7.12793 17.0762 7.12793C16.3958 7.12793 15.7546 7.25814 15.1523 7.51855C14.5534 7.77897 14.0244 8.13867 13.5654 8.59766C13.1097 9.05664 12.7516 9.58724 12.4912 10.1895C12.2308 10.7884 12.1006 11.4281 12.1006 12.1084C12.1006 12.7887 12.2308 13.43 12.4912 14.0322C12.7516 14.6312 13.1113 15.1602 13.5703 15.6191C14.0293 16.0781 14.5583 16.4378 15.1572 16.6982C15.7594 16.9587 16.4007 17.0889 17.0811 17.0889ZM17.0811 16.2588C16.5049 16.2588 15.9661 16.1514 15.4648 15.9365C14.9635 15.7217 14.5225 15.4255 14.1416 15.0479C13.764 14.667 13.4678 14.2259 13.2529 13.7246C13.0413 13.2233 12.9355 12.6846 12.9355 12.1084C12.9355 11.5322 13.0413 10.9935 13.2529 10.4922C13.4678 9.99089 13.764 9.5498 14.1416 9.16895C14.5192 8.78809 14.9587 8.49186 15.46 8.28027C15.9613 8.06543 16.5 7.95801 17.0762 7.95801C17.6523 7.95801 18.1911 8.06543 18.6924 8.28027C19.1969 8.49186 19.638 8.78809 20.0156 9.16895C20.3965 9.5498 20.6943 9.99089 20.9092 10.4922C21.124 10.9935 21.2314 11.5322 21.2314 12.1084C21.2314 12.6846 21.124 13.2233 20.9092 13.7246C20.6976 14.2259 20.4014 14.667 20.0205 15.0479C19.6396 15.4255 19.1986 15.7217 18.6973 15.9365C18.196 16.1514 17.6572 16.2588 17.0811 16.2588Z" fill="#0A84FF"/>
</svg>
