<svg width="16" height="16" viewBox="0 0 24 24" fill="none" xmlns="http://www.w3.org/2000/svg">
<path d="M13.6875 20.1816H15.8848C16.7637 20.1816 17.2295 19.6982 17.2295 18.8369V6.99805L18.5654 19.0303C18.6533 19.8916 19.1631 20.3311 20.0332 20.2256L22.7842 19.8564C23.6543 19.751 24.0586 19.2412 23.9707 18.3799L22.4062 4.23828C22.3184 3.37695 21.8086 2.9375 20.9385 3.04297L18.1787 3.41211C17.748 3.45605 17.4316 3.61426 17.2295 3.86035V1.98828C17.2295 1.12695 16.7637 0.643555 15.8848 0.643555H13.6875C12.8174 0.643555 12.3516 1.12695 12.3516 1.98828V18.8369C12.3516 19.6982 12.8174 20.1816 13.6875 20.1816ZM1.34766 20.1816H2.80664C3.68555 20.1816 4.15137 19.6982 4.15137 18.8369V4.4668C4.15137 3.60547 3.68555 3.12207 2.80664 3.12207H1.34766C0.46875 3.12207 0.00292969 3.60547 0.00292969 4.4668V18.8369C0.00292969 19.6982 0.46875 20.1816 1.34766 20.1816ZM6.5332 20.1816H9.96094C10.8398 20.1816 11.3057 19.6982 11.3057 18.8369V7.58691C11.3057 6.72559 10.8398 6.25098 9.96094 6.25098H6.5332C5.66309 6.25098 5.19727 6.72559 5.19727 7.58691V18.8369C5.19727 19.6982 5.66309 20.1816 6.5332 20.1816ZM7.22754 9.53809C6.88477 9.53809 6.62988 9.27441 6.62988 8.94043C6.62988 8.61523 6.88477 8.36035 7.22754 8.36035H9.29297C9.62695 8.36035 9.88184 8.61523 9.88184 8.94043C9.88184 9.27441 9.62695 9.53809 9.29297 9.53809H7.22754ZM7.22754 18.0723C6.88477 18.0723 6.62988 17.8174 6.62988 17.4834C6.62988 17.1494 6.88477 16.8945 7.22754 16.8945H9.29297C9.62695 16.8945 9.88184 17.1494 9.88184 17.4834C9.88184 17.8174 9.62695 18.0723 9.29297 18.0723H7.22754Z" fill="#8E8E93"/>
</svg>
