<svg width="16" height="16" viewBox="0 0 24 24" fill="none" xmlns="http://www.w3.org/2000/svg">
<path d="M0.271973 9.00684C0.271973 9.25033 0.341146 9.45231 0.479492 9.61279C0.623372 9.76774 0.836426 9.87012 1.11865 9.91992C1.6333 9.9974 2.0013 10.1855 2.22266 10.4844C2.44401 10.7832 2.55469 11.2674 2.55469 11.937V14.2695C2.55469 15.3984 2.82031 16.234 3.35156 16.7764C3.88281 17.3187 4.70736 17.5898 5.8252 17.5898C5.95801 17.5898 6.08252 17.5705 6.19873 17.5317C6.32601 17.4764 6.42285 17.3989 6.48926 17.2993C6.5612 17.1997 6.59717 17.0807 6.59717 16.9424C6.59717 16.638 6.45329 16.4499 6.16553 16.3779C6.12126 16.3669 6.07699 16.3558 6.03271 16.3447C5.99398 16.3392 5.94971 16.3364 5.8999 16.3364C5.20264 16.2866 4.71012 16.0929 4.42236 15.7554C4.14014 15.4233 3.99902 14.8727 3.99902 14.1035V11.3477C3.99902 10.6449 3.82194 10.0998 3.46777 9.7124C3.11361 9.32503 2.61279 9.10091 1.96533 9.04004C1.95426 9.04004 1.94873 9.03451 1.94873 9.02344C1.94873 9.01237 1.95426 9.00684 1.96533 9.00684C2.61279 8.94596 3.11361 8.72184 3.46777 8.33447C3.82194 7.9471 3.99902 7.40202 3.99902 6.69922V3.93506C3.99902 3.16585 4.14014 2.61523 4.42236 2.2832C4.71012 1.95117 5.20264 1.76025 5.8999 1.71045C5.96631 1.70492 6.02718 1.69938 6.08252 1.69385C6.13786 1.68278 6.18766 1.66895 6.23193 1.65234C6.47542 1.56934 6.59717 1.38395 6.59717 1.09619C6.59717 0.946777 6.55843 0.825033 6.48096 0.730957C6.40902 0.631348 6.30387 0.556641 6.16553 0.506836C6.04932 0.468099 5.9082 0.44873 5.74219 0.44873C4.65755 0.44873 3.85514 0.722656 3.33496 1.27051C2.81478 1.81836 2.55469 2.6512 2.55469 3.76904V6.10986C2.55469 6.77393 2.44401 7.25537 2.22266 7.5542C2.0013 7.85303 1.6333 8.04118 1.11865 8.11865C0.836426 8.16292 0.623372 8.2653 0.479492 8.42578C0.341146 8.58073 0.271973 8.77441 0.271973 9.00684ZM15.728 9.00684C15.728 8.77441 15.6561 8.58073 15.5122 8.42578C15.3739 8.2653 15.1608 8.16292 14.873 8.11865C14.3584 8.03564 13.9904 7.84749 13.769 7.5542C13.5477 7.25537 13.437 6.77393 13.437 6.10986V3.76904C13.437 2.6512 13.1769 1.81836 12.6567 1.27051C12.1366 0.722656 11.3341 0.44873 10.2495 0.44873C10.089 0.44873 9.95068 0.468099 9.83447 0.506836C9.68506 0.556641 9.57438 0.631348 9.50244 0.730957C9.4305 0.825033 9.39453 0.946777 9.39453 1.09619C9.39453 1.37288 9.51904 1.55827 9.76807 1.65234C9.8068 1.66895 9.85384 1.68278 9.90918 1.69385C9.96452 1.69938 10.0254 1.70492 10.0918 1.71045C10.7891 1.74365 11.2816 1.9318 11.5693 2.2749C11.8571 2.61247 12.001 3.16585 12.001 3.93506V6.69922C12.001 7.40202 12.1781 7.9637 12.5322 8.38428C12.8864 8.79932 13.3844 9.00684 14.0264 9.00684C14.0374 9.00684 14.043 9.01237 14.043 9.02344C14.043 9.03451 14.0374 9.04004 14.0264 9.04004C13.3844 9.04004 12.8864 9.24756 12.5322 9.6626C12.1781 10.0776 12.001 10.6393 12.001 11.3477V14.1035C12.001 14.8727 11.8571 15.4233 11.5693 15.7554C11.2816 16.0929 10.7891 16.2866 10.0918 16.3364C10.042 16.3364 9.99495 16.3392 9.95068 16.3447C9.91195 16.3558 9.87321 16.3669 9.83447 16.3779C9.68506 16.4056 9.57438 16.4665 9.50244 16.5605C9.4305 16.6546 9.39453 16.7819 9.39453 16.9424C9.39453 17.0863 9.4305 17.208 9.50244 17.3076C9.57438 17.4128 9.67399 17.4875 9.80127 17.5317C9.91748 17.5705 10.0392 17.5898 10.1665 17.5898C11.2899 17.5898 12.1144 17.3187 12.6401 16.7764C13.1714 16.234 13.437 15.3984 13.437 14.2695V11.937C13.437 11.2674 13.5477 10.7832 13.769 10.4844C13.9904 10.1855 14.3584 9.9974 14.873 9.91992C15.1608 9.87012 15.3739 9.76774 15.5122 9.61279C15.6561 9.45231 15.728 9.25033 15.728 9.00684Z" fill="#FFD60A"/>
</svg>
