<svg width="22" height="17" viewBox="0 0 22 17" fill="none" xmlns="http://www.w3.org/2000/svg">
<path d="M17.1304 1.58628H9.04492C8.41692 1.58628 8.04187 1.44909 7.55342 1.05466L7.06498 0.660236C6.4457 0.162915 5.99215 0 5.07632 0H2.60794C0.968164 0 0 0.943194 0 2.75241V5.15327H20V4.38157C20 2.54662 19.0144 1.58628 17.1304 1.58628ZM2.8696 16H17.3397C19.0231 16 20 15.0397 20 13.2047V6.388H0V13.2047C0 15.0482 0.985608 16 2.8696 16Z" fill="#8E8E93"/>
<path d="M16.3125 16.2119C16.6576 16.2119 16.9847 16.1273 17.2939 15.958C17.6064 15.792 17.8831 15.5625 18.124 15.2695C18.3649 14.9798 18.5537 14.651 18.6904 14.2832C18.8304 13.9154 18.9004 13.5312 18.9004 13.1309C18.9004 13.0072 18.889 12.8932 18.8662 12.7891C18.8434 12.6849 18.8109 12.5889 18.7686 12.501C18.8402 12.5205 18.9102 12.54 18.9785 12.5596C19.0501 12.5758 19.1201 12.5938 19.1885 12.6133C19.3577 12.6589 19.4701 12.7207 19.5254 12.7988C19.584 12.8737 19.6019 12.9844 19.5791 13.1309L19.2227 15.4697C19.1999 15.6097 19.2243 15.7188 19.2959 15.7969C19.3708 15.875 19.4652 15.9141 19.5791 15.9141C19.6995 15.9141 19.7891 15.8783 19.8477 15.8066C19.9062 15.7383 19.9453 15.6439 19.9648 15.5234L20.3652 12.9893C20.4108 12.7028 20.3717 12.4782 20.248 12.3154C20.1276 12.1494 19.9111 12.0306 19.5986 11.959L17.3965 11.4463L17.3916 11.3975C17.499 11.3454 17.5869 11.2738 17.6553 11.1826C17.7236 11.0882 17.7741 10.9857 17.8066 10.875L19.3057 10.6602C19.6117 10.6178 19.8346 10.512 19.9746 10.3428C20.1178 10.1735 20.1895 9.9375 20.1895 9.63477V7.94531C20.1895 7.82812 20.1569 7.73698 20.0918 7.67188C20.0267 7.60352 19.9355 7.56934 19.8184 7.56934C19.7012 7.56934 19.61 7.60352 19.5449 7.67188C19.4798 7.73698 19.4473 7.82812 19.4473 7.94531V9.4834C19.4473 9.65592 19.4033 9.77799 19.3154 9.84961C19.2275 9.91797 19.1038 9.96354 18.9443 9.98633L17.8262 10.1377C17.8001 10.0628 17.7627 9.99284 17.7139 9.92773C17.665 9.86263 17.6081 9.80729 17.543 9.76172V9.71289C17.9596 9.63802 18.2803 9.48014 18.5049 9.23926C18.7295 8.99512 18.8418 8.6875 18.8418 8.31641C18.8418 8.00391 18.7865 7.70768 18.6758 7.42773C18.5684 7.14779 18.4186 6.89876 18.2266 6.68066L18.2705 6.64648C18.5081 6.47721 18.6481 6.27214 18.6904 6.03125C18.7327 5.78711 18.6774 5.52995 18.5244 5.25977L18.2363 4.78613C18.1452 4.62663 18.028 4.54688 17.8848 4.54688C17.7839 4.54688 17.6992 4.57943 17.6309 4.64453C17.5658 4.70964 17.5332 4.78939 17.5332 4.88379C17.5332 4.92611 17.5365 4.96354 17.543 4.99609C17.5527 5.02865 17.5723 5.06934 17.6016 5.11816L17.8555 5.50391C17.9336 5.63086 17.971 5.74967 17.9678 5.86035C17.9645 5.96777 17.9124 6.06543 17.8115 6.15332C17.7985 6.16309 17.7855 6.17448 17.7725 6.1875C17.7594 6.19727 17.7448 6.20703 17.7285 6.2168C17.5267 6.08008 17.3053 5.97428 17.0645 5.89941C16.8236 5.82129 16.5729 5.78223 16.3125 5.78223C16.0553 5.78223 15.8079 5.82129 15.5703 5.89941C15.3327 5.97428 15.1146 6.07845 14.916 6.21191C14.903 6.2054 14.8883 6.19564 14.8721 6.18262C14.859 6.1696 14.846 6.1582 14.833 6.14844C14.7354 6.06055 14.6833 5.96289 14.6768 5.85547C14.6735 5.74805 14.7126 5.63086 14.7939 5.50391L15.0479 5.11816C15.0739 5.06934 15.0918 5.02865 15.1016 4.99609C15.1113 4.96354 15.1162 4.92611 15.1162 4.88379C15.1162 4.78939 15.082 4.70964 15.0137 4.64453C14.9486 4.57943 14.8656 4.54688 14.7646 4.54688C14.6182 4.54688 14.501 4.62663 14.4131 4.78613L14.125 5.25977C13.972 5.52995 13.9167 5.78711 13.959 6.03125C14.0013 6.27214 14.1413 6.47721 14.3789 6.64648L14.4131 6.6709C14.2178 6.889 14.0632 7.13965 13.9492 7.42285C13.8385 7.70605 13.7832 8.00391 13.7832 8.31641C13.7832 8.6875 13.8955 8.99512 14.1201 9.23926C14.348 9.48014 14.6702 9.63802 15.0869 9.71289V9.76172C15.0186 9.80729 14.96 9.86263 14.9111 9.92773C14.8656 9.99284 14.8298 10.0628 14.8037 10.1377L13.6855 9.98633C13.526 9.96354 13.4023 9.91797 13.3145 9.84961C13.2266 9.77799 13.1826 9.65592 13.1826 9.4834V7.94531C13.1826 7.82812 13.1501 7.73698 13.085 7.67188C13.0199 7.60352 12.9287 7.56934 12.8115 7.56934C12.6943 7.56934 12.6032 7.60352 12.5381 7.67188C12.473 7.73698 12.4404 7.82812 12.4404 7.94531V9.63477C12.4404 9.9375 12.5104 10.1735 12.6504 10.3428C12.7936 10.512 13.0182 10.6178 13.3242 10.6602L14.8232 10.875C14.8558 10.9857 14.9062 11.0882 14.9746 11.1826C15.043 11.2738 15.1309 11.3454 15.2383 11.3975V11.4463L13.0312 11.959C12.7155 12.0306 12.4974 12.1494 12.377 12.3154C12.2565 12.4782 12.2191 12.7028 12.2646 12.9893L12.665 15.5234C12.6813 15.6439 12.7188 15.7383 12.7773 15.8066C12.8392 15.8783 12.9303 15.9141 13.0508 15.9141C13.1647 15.9141 13.2575 15.875 13.3291 15.7969C13.404 15.7188 13.43 15.6097 13.4072 15.4697L13.0508 13.1309C13.028 12.9844 13.0443 12.8737 13.0996 12.7988C13.1582 12.7207 13.2721 12.6589 13.4414 12.6133C13.5098 12.5938 13.5781 12.5758 13.6465 12.5596C13.7181 12.54 13.7881 12.5205 13.8564 12.501C13.8141 12.5889 13.7816 12.6849 13.7588 12.7891C13.7393 12.8932 13.7295 13.0072 13.7295 13.1309C13.7295 13.5312 13.7979 13.9154 13.9346 14.2832C14.0745 14.651 14.265 14.9798 14.5059 15.2695C14.7467 15.5625 15.0218 15.792 15.3311 15.958C15.6403 16.1273 15.9674 16.2119 16.3125 16.2119Z" fill="#04DE71"/>
</svg>
