<svg width="26" height="22" viewBox="0 0 26 22" fill="none" xmlns="http://www.w3.org/2000/svg">
<path d="M17.2617 1.62598H9.11426C8.48145 1.62598 8.10352 1.48535 7.61133 1.08105L7.11914 0.676758C6.49512 0.166992 6.03809 0 5.11523 0H2.62793C0.975586 0 0 0.966797 0 2.82129V5.28223H20.1533V4.49121C20.1533 2.61035 19.1602 1.62598 17.2617 1.62598ZM2.8916 16.4004H17.4727C19.1689 16.4004 20.1533 15.416 20.1533 13.5352V6.54785H0V13.5352C0 15.4248 0.993164 16.4004 2.8916 16.4004Z" fill="#8E8E93"/>
<path d="M10.4395 8.3877C10.4395 8.48861 10.4753 8.5765 10.5469 8.65137C10.6185 8.72298 10.7031 8.75879 10.8008 8.75879H12.4512L13.2324 14.1201C13.2845 14.4684 13.4049 14.7435 13.5938 14.9453C13.7826 15.1471 14.0544 15.248 14.4092 15.248H20.1074C20.2018 15.248 20.2848 15.2139 20.3564 15.1455C20.4281 15.0739 20.4639 14.986 20.4639 14.8818C20.4639 14.7777 20.4281 14.6914 20.3564 14.623C20.2848 14.5514 20.2018 14.5156 20.1074 14.5156H14.4922C14.3555 14.5156 14.2432 14.4717 14.1553 14.3838C14.0706 14.2926 14.0186 14.1722 13.999 14.0225L13.9209 13.5098H20.1172C20.4753 13.5098 20.7487 13.4089 20.9375 13.207C21.1263 13.002 21.2467 12.7236 21.2988 12.3721L21.6895 9.78906C21.696 9.75651 21.7008 9.72396 21.7041 9.69141C21.7074 9.6556 21.709 9.6263 21.709 9.60352C21.709 9.48633 21.6683 9.39193 21.5869 9.32031C21.5055 9.24544 21.3981 9.20801 21.2646 9.20801H13.2959L13.1982 8.58789C13.1722 8.39909 13.1136 8.25749 13.0225 8.16309C12.9346 8.06868 12.7653 8.02148 12.5146 8.02148H10.8008C10.7031 8.02148 10.6185 8.05892 10.5469 8.13379C10.4753 8.2054 10.4395 8.29004 10.4395 8.3877ZM13.999 16.8301C13.999 16.9766 14.0348 17.11 14.1064 17.2305C14.1781 17.3509 14.2725 17.4453 14.3896 17.5137C14.5101 17.5853 14.6452 17.6211 14.7949 17.6211C15.013 17.6211 15.1986 17.5446 15.3516 17.3916C15.5078 17.2386 15.5859 17.0514 15.5859 16.8301C15.5859 16.6087 15.5078 16.4215 15.3516 16.2686C15.1986 16.1156 15.013 16.0391 14.7949 16.0391C14.6452 16.0391 14.5101 16.0732 14.3896 16.1416C14.2725 16.2132 14.1781 16.3092 14.1064 16.4297C14.0348 16.5501 13.999 16.6836 13.999 16.8301ZM18.5645 16.8301C18.5645 17.0514 18.6426 17.2386 18.7988 17.3916C18.9551 17.5446 19.1423 17.6211 19.3604 17.6211C19.5817 17.6211 19.7689 17.5446 19.9219 17.3916C20.0781 17.2386 20.1562 17.0514 20.1562 16.8301C20.1562 16.6087 20.0781 16.4215 19.9219 16.2686C19.7689 16.1156 19.5817 16.0391 19.3604 16.0391C19.2139 16.0391 19.0804 16.0732 18.96 16.1416C18.8395 16.2132 18.7435 16.3092 18.6719 16.4297C18.6003 16.5501 18.5645 16.6836 18.5645 16.8301Z" fill="#FF9F0A"/>
</svg>
