<svg width="20" height="16" viewBox="0 0 20 16" fill="none" xmlns="http://www.w3.org/2000/svg">
<path d="M3.68604 6.78662C3.52555 6.8807 3.43148 7.00244 3.40381 7.15186C3.38167 7.30127 3.40934 7.43962 3.48682 7.56689C3.56429 7.69417 3.67497 7.77995 3.81885 7.82422C3.96273 7.86296 4.12321 7.82699 4.30029 7.71631L6.69092 6.22217C6.8514 6.12256 6.95378 5.98975 6.99805 5.82373C7.04785 5.65771 7.04508 5.4917 6.98975 5.32568C6.93994 5.15967 6.84033 5.02962 6.69092 4.93555L4.30029 3.44141C4.12321 3.33073 3.95996 3.29753 3.81055 3.3418C3.66667 3.38053 3.55599 3.46354 3.47852 3.59082C3.40658 3.7181 3.38167 3.85645 3.40381 4.00586C3.43148 4.14974 3.52555 4.27148 3.68604 4.37109L5.68652 5.57471L3.68604 6.78662ZM7.18896 7.70801C7.18896 7.85189 7.23877 7.9764 7.33838 8.08154C7.44352 8.18669 7.5708 8.23926 7.72021 8.23926H10.8828C11.0322 8.23926 11.1567 8.18669 11.2563 8.08154C11.3615 7.9764 11.4141 7.85189 11.4141 7.70801C11.4141 7.55859 11.3615 7.43132 11.2563 7.32617C11.1567 7.22103 11.0322 7.16846 10.8828 7.16846H7.72021C7.5708 7.16846 7.44352 7.22103 7.33838 7.32617C7.23877 7.43132 7.18896 7.55859 7.18896 7.70801ZM2.72314 15.6519H17.0835C17.9578 15.6519 18.6108 15.436 19.0425 15.0044C19.4741 14.5783 19.6899 13.9391 19.6899 13.0869V2.94336C19.6899 2.09115 19.4741 1.44922 19.0425 1.01758C18.6108 0.585938 17.9578 0.370117 17.0835 0.370117H2.72314C1.85433 0.370117 1.20133 0.585938 0.76416 1.01758C0.33252 1.44368 0.116699 2.08561 0.116699 2.94336V13.0869C0.116699 13.9391 0.33252 14.5783 0.76416 15.0044C1.20133 15.436 1.85433 15.6519 2.72314 15.6519ZM2.73975 14.3154C2.32471 14.3154 2.00651 14.2075 1.78516 13.9917C1.5638 13.7703 1.45312 13.4438 1.45312 13.0122V3.01807C1.45312 2.58643 1.5638 2.25993 1.78516 2.03857C2.00651 1.81722 2.32471 1.70654 2.73975 1.70654H17.0669C17.4764 1.70654 17.7918 1.81722 18.0132 2.03857C18.2401 2.25993 18.3535 2.58643 18.3535 3.01807V13.0122C18.3535 13.4438 18.2401 13.7703 18.0132 13.9917C17.7918 14.2075 17.4764 14.3154 17.0669 14.3154H2.73975Z" fill="#0A84FF"/>
</svg>
