<svg width="22" height="17" viewBox="0 0 22 17" fill="none" xmlns="http://www.w3.org/2000/svg">
<path d="M17.2617 1.62598H9.11426C8.48145 1.62598 8.10352 1.48535 7.61133 1.08105L7.11914 0.676758C6.49512 0.166992 6.03809 0 5.11523 0H2.62793C0.975586 0 0 0.966797 0 2.82129V5.28223H20.1533V4.49121C20.1533 2.61035 19.1602 1.62598 17.2617 1.62598ZM2.8916 16.4004H17.4727C19.1689 16.4004 20.1533 15.416 20.1533 13.5352V6.54785H0V13.5352C0 15.4248 0.993164 16.4004 2.8916 16.4004Z" fill="#8E8E93"/>
<path d="M13.4795 14.1845H14.818L14.3935 16.3357C14.3835 16.3919 14.3735 16.4737 14.3735 16.5299C14.3735 16.8314 14.5733 17 14.8729 17C15.1826 17 15.3923 16.8365 15.4573 16.5095L15.9118 14.1845H18.0744L17.6498 16.3357C17.6398 16.3919 17.6299 16.4737 17.6299 16.5299C17.6299 16.8314 17.8296 17 18.1243 17C18.439 17 18.6487 16.8365 18.7087 16.5095L19.1681 14.1845H20.7464C21.106 14.1845 21.3407 13.9443 21.3407 13.5917C21.3407 13.3107 21.1509 13.1063 20.8613 13.1063H19.3779L19.8574 10.6791H21.4107C21.7653 10.6791 22 10.4338 22 10.0812C22 9.8002 21.8152 9.5907 21.5205 9.5907H20.0671L20.4467 7.66939C20.4567 7.62851 20.4667 7.54676 20.4667 7.47522C20.4667 7.17885 20.2619 7 19.9623 7C19.6176 7 19.4528 7.18906 19.3879 7.50588L18.9784 9.5907H16.8158L17.1903 7.66939C17.2003 7.62851 17.2103 7.54676 17.2103 7.47522C17.2103 7.17885 17.0055 7 16.7059 7C16.3663 7 16.1915 7.18396 16.1315 7.50588L15.717 9.5907H14.2536C13.894 9.5907 13.6643 9.84108 13.6643 10.1988C13.6643 10.4849 13.8491 10.6791 14.1437 10.6791H15.5072L15.0277 13.1063H13.5893C13.2347 13.1063 13 13.3516 13 13.7092C13 13.9954 13.1898 14.1845 13.4795 14.1845ZM16.1215 13.1063L16.601 10.6791H18.7636L18.2891 13.1063H16.1215Z" fill="#0A84FF"/>
</svg>
