<svg width="25" height="20" viewBox="0 0 25 20" fill="none" xmlns="http://www.w3.org/2000/svg">
<path d="M17.2617 1.62598H9.11426C8.48145 1.62598 8.10352 1.48535 7.61133 1.08105L7.11914 0.676758C6.49512 0.166992 6.03809 0 5.11523 0H2.62793C0.975586 0 0 0.966797 0 2.82129V5.28223H20.1533V4.49121C20.1533 2.61035 19.1602 1.62598 17.2617 1.62598ZM2.8916 16.4004H17.4727C19.1689 16.4004 20.1533 15.416 20.1533 13.5352V6.54785H0V13.5352C0 15.4248 0.993164 16.4004 2.8916 16.4004Z" fill="#8E8E93"/>
<path d="M17 13.5156C17.5566 13.5156 18.097 13.4635 18.6211 13.3594C19.1484 13.252 19.6253 13.1055 20.0518 12.9199C20.4814 12.7311 20.8265 12.5146 21.0869 12.2705L20.7207 11.6846C20.4733 11.8994 20.1527 12.0898 19.7588 12.2559C19.3649 12.4186 18.9303 12.5472 18.4551 12.6416C17.9798 12.7327 17.4948 12.7783 17 12.7783C16.5052 12.7783 16.0186 12.7327 15.54 12.6416C15.0648 12.5472 14.6302 12.4186 14.2363 12.2559C13.8457 12.0898 13.5267 11.8994 13.2793 11.6846L12.9131 12.2705C13.1735 12.5146 13.5169 12.7311 13.9434 12.9199C14.3698 13.1055 14.8467 13.252 15.374 13.3594C15.9014 13.4635 16.4434 13.5156 17 13.5156ZM17 16.6162C17.8398 16.6162 18.5739 16.5186 19.2021 16.3232C19.8337 16.1279 20.3236 15.8561 20.6719 15.5078C21.0234 15.1628 21.1992 14.7656 21.1992 14.3164V8.4082H20.4131V14.3164C20.4131 14.6159 20.2699 14.8828 19.9834 15.1172C19.7002 15.3548 19.3031 15.5404 18.792 15.6738C18.2809 15.8105 17.6836 15.8789 17 15.8789C16.3164 15.8789 15.7191 15.8105 15.208 15.6738C14.6969 15.5404 14.2982 15.3548 14.0117 15.1172C13.7285 14.8828 13.5869 14.6159 13.5869 14.3164V8.4082H12.8008V14.3164C12.8008 14.7656 12.9749 15.1628 13.3232 15.5078C13.6748 15.8561 14.1647 16.1279 14.793 16.3232C15.4245 16.5186 16.1602 16.6162 17 16.6162ZM17 10.4834C17.8398 10.4834 18.5739 10.3955 19.2021 10.2197C19.8337 10.0439 20.3236 9.80143 20.6719 9.49219C21.0234 9.17969 21.1992 8.81836 21.1992 8.4082C21.1992 7.99805 21.0234 7.63672 20.6719 7.32422C20.3236 7.01172 19.8337 6.76758 19.2021 6.5918C18.5739 6.41602 17.8398 6.32812 17 6.32812C16.1602 6.32812 15.4245 6.41602 14.793 6.5918C14.1647 6.76758 13.6748 7.01172 13.3232 7.32422C12.9749 7.63672 12.8008 7.99805 12.8008 8.4082C12.8008 8.81836 12.9749 9.17969 13.3232 9.49219C13.6748 9.80143 14.1647 10.0439 14.793 10.2197C15.4245 10.3955 16.1602 10.4834 17 10.4834ZM17 9.74609C16.3164 9.74609 15.7191 9.68913 15.208 9.5752C14.6969 9.46126 14.2982 9.30339 14.0117 9.10156C13.7285 8.89974 13.5869 8.66862 13.5869 8.4082C13.5869 8.13477 13.7285 7.89388 14.0117 7.68555C14.2982 7.47721 14.6969 7.31445 15.208 7.19727C15.7191 7.07682 16.3164 7.0166 17 7.0166C17.6836 7.0166 18.2809 7.07682 18.792 7.19727C19.3031 7.31445 19.7002 7.47721 19.9834 7.68555C20.2699 7.89388 20.4131 8.13477 20.4131 8.4082C20.4131 8.66862 20.2699 8.89974 19.9834 9.10156C19.7002 9.30339 19.3031 9.46126 18.792 9.5752C18.2809 9.68913 17.6836 9.74609 17 9.74609Z" fill="#FFD60A"/>
</svg>
