<svg width="23" height="18" viewBox="0 0 23 18" fill="none" xmlns="http://www.w3.org/2000/svg">
<path d="M17.2617 1.62598H9.11426C8.48145 1.62598 8.10352 1.48535 7.61133 1.08105L7.11914 0.676758C6.49512 0.166992 6.03809 0 5.11523 0H2.62793C0.975586 0 0 0.966797 0 2.82129V5.28223H20.1533V4.49121C20.1533 2.61035 19.1602 1.62598 17.2617 1.62598ZM2.8916 16.4004H17.4727C19.1689 16.4004 20.1533 15.416 20.1533 13.5352V6.54785H0V13.5352C0 15.4248 0.993164 16.4004 2.8916 16.4004Z" fill="#8E8E93"/>
<path d="M10.3682 15.834H19.7578C20.1094 15.834 20.3844 15.7347 20.583 15.5361C20.7848 15.3343 20.8857 15.0576 20.8857 14.7061V8.85156C20.8857 8.5 20.7848 8.22493 20.583 8.02637C20.3844 7.8278 20.1094 7.72852 19.7578 7.72852H10.3682C10.0199 7.72852 9.74479 7.8278 9.54297 8.02637C9.3444 8.22493 9.24512 8.5 9.24512 8.85156V14.7061C9.24512 15.0576 9.3444 15.3343 9.54297 15.5361C9.74479 15.7347 10.0199 15.834 10.3682 15.834ZM10.2412 13.6807C10.1012 13.6807 10.0312 13.6107 10.0312 13.4707V8.86621C10.0312 8.75553 10.0622 8.66927 10.124 8.60742C10.1891 8.54557 10.2754 8.51465 10.3828 8.51465H19.748C19.8555 8.51465 19.9401 8.54557 20.002 8.60742C20.0671 8.66927 20.0996 8.75553 20.0996 8.86621V13.4707C20.0996 13.6107 20.028 13.6807 19.8848 13.6807H10.2412ZM13.5225 16.9961H16.6084V15.7705H13.5225V16.9961ZM13.4932 17.5674H16.6377C16.7451 17.5674 16.8363 17.5283 16.9111 17.4502C16.9893 17.3753 17.0283 17.2826 17.0283 17.1719C17.0283 17.0612 16.9893 16.9668 16.9111 16.8887C16.8363 16.8138 16.7451 16.7764 16.6377 16.7764H13.4932C13.3857 16.7764 13.293 16.8138 13.2148 16.8887C13.1367 16.9668 13.0977 17.0612 13.0977 17.1719C13.0977 17.2826 13.1367 17.3753 13.2148 17.4502C13.293 17.5283 13.3857 17.5674 13.4932 17.5674Z" fill="#0A84FF"/>
</svg>
