<svg width="31" height="22" viewBox="0 0 31 22" fill="none" xmlns="http://www.w3.org/2000/svg">
<path d="M17.2617 1.62598H9.11426C8.48145 1.62598 8.10352 1.48535 7.61133 1.08105L7.11914 0.676758C6.49512 0.166992 6.03809 0 5.11523 0H2.62793C0.975586 0 0 0.966797 0 2.82129V5.28223H20.1533V4.49121C20.1533 2.61035 19.1602 1.62598 17.2617 1.62598ZM2.8916 16.4004H17.4727C19.1689 16.4004 20.1533 15.416 20.1533 13.5352V6.54785H0V13.5352C0 15.4248 0.993164 16.4004 2.8916 16.4004Z" fill="#8E8E93"/>
<path d="M13.7979 10.9033C13.9281 10.9033 14.0143 10.8252 14.0566 10.6689L14.2227 10.1855H15.1406L15.3164 10.6689C15.3587 10.8252 15.4434 10.9033 15.5703 10.9033C15.6549 10.9033 15.7184 10.8822 15.7607 10.8398C15.8063 10.7943 15.8291 10.7324 15.8291 10.6543C15.8291 10.6152 15.8193 10.5615 15.7998 10.4932L15.082 8.50586C15.0104 8.30404 14.8753 8.20312 14.6768 8.20312C14.4912 8.20312 14.3626 8.30404 14.291 8.50586L13.5732 10.4932C13.5505 10.555 13.5391 10.6087 13.5391 10.6543C13.5391 10.7324 13.5618 10.7943 13.6074 10.8398C13.653 10.8822 13.7165 10.9033 13.7979 10.9033ZM14.335 9.78027L14.667 8.75488H14.6963L15.0332 9.78027H14.335ZM16.6787 9.04785H18.168C18.2559 9.04785 18.3275 9.01855 18.3828 8.95996C18.4414 8.90137 18.4707 8.82975 18.4707 8.74512C18.4707 8.66048 18.4414 8.59049 18.3828 8.53516C18.3275 8.47656 18.2559 8.44727 18.168 8.44727H16.6787C16.5876 8.44727 16.5127 8.47656 16.4541 8.53516C16.3988 8.59049 16.3711 8.66048 16.3711 8.74512C16.3711 8.82975 16.3988 8.90137 16.4541 8.95996C16.5127 9.01855 16.5876 9.04785 16.6787 9.04785ZM16.6787 10.752H18.168C18.2559 10.752 18.3275 10.7227 18.3828 10.6641C18.4414 10.6055 18.4707 10.5339 18.4707 10.4492C18.4707 10.3646 18.4414 10.2946 18.3828 10.2393C18.3275 10.1807 18.2559 10.1514 18.168 10.1514H16.6787C16.5876 10.1514 16.5127 10.1807 16.4541 10.2393C16.3988 10.2946 16.3711 10.3646 16.3711 10.4492C16.3711 10.5339 16.3988 10.6055 16.4541 10.6641C16.5127 10.7227 16.5876 10.752 16.6787 10.752ZM13.5146 14.79H13.8564L14.501 14.1406C14.5856 14.0592 14.6816 14.0186 14.7891 14.0186C14.8965 14.0186 14.9958 14.0592 15.0869 14.1406L15.4873 14.5068L16.4883 13.6182C16.599 13.5238 16.7129 13.4766 16.8301 13.4766C16.8919 13.4766 16.9521 13.488 17.0107 13.5107C17.0693 13.5303 17.1214 13.5661 17.167 13.6182L18.1436 14.7412H18.4854V12.4072C18.4854 11.9743 18.2673 11.7578 17.8311 11.7578H14.1738C13.9655 11.7578 13.8027 11.8132 13.6855 11.9238C13.5716 12.0312 13.5146 12.1924 13.5146 12.4072V14.79ZM15.126 13.6182C14.9795 13.6182 14.8542 13.5661 14.75 13.4619C14.6491 13.3577 14.5986 13.234 14.5986 13.0908C14.5986 12.9443 14.6491 12.819 14.75 12.7148C14.8542 12.6074 14.9795 12.557 15.126 12.5635C15.2692 12.5667 15.3929 12.6188 15.4971 12.7197C15.6012 12.8206 15.6533 12.9443 15.6533 13.0908C15.6533 13.234 15.6012 13.3577 15.4971 13.4619C15.3929 13.5661 15.2692 13.6182 15.126 13.6182ZM11.8936 15.1807C11.8936 15.6917 12.0189 16.0742 12.2695 16.3281C12.5234 16.582 12.9027 16.709 13.4072 16.709H18.5928C19.0973 16.709 19.4749 16.582 19.7256 16.3281C19.9795 16.0742 20.1064 15.6917 20.1064 15.1807V7.77344C20.1064 7.26562 19.9795 6.88314 19.7256 6.62598C19.4749 6.36882 19.0973 6.24023 18.5928 6.24023H13.4072C12.9027 6.24023 12.5234 6.36882 12.2695 6.62598C12.0189 6.88314 11.8936 7.26562 11.8936 7.77344V15.1807ZM12.6797 15.166V7.78809C12.6797 7.54395 12.7432 7.35677 12.8701 7.22656C13.0003 7.0931 13.1924 7.02637 13.4463 7.02637H18.5537C18.8076 7.02637 18.998 7.0931 19.125 7.22656C19.2552 7.35677 19.3203 7.54395 19.3203 7.78809V15.166C19.3203 15.4102 19.2552 15.5973 19.125 15.7275C18.998 15.8577 18.8076 15.9229 18.5537 15.9229H13.4463C13.1924 15.9229 13.0003 15.8577 12.8701 15.7275C12.7432 15.5973 12.6797 15.4102 12.6797 15.166Z" fill="#0A84FF"/>
</svg>
