<svg width="16px" height="16px" viewBox="0 0 24 24" fill="none" xmlns="http://www.w3.org/2000/svg">
<path d="M3.25635 8.03564C3.4777 8.03564 3.62435 7.90283 3.69629 7.63721L3.97852 6.81543H5.53906L5.83789 7.63721C5.90983 7.90283 6.05371 8.03564 6.26953 8.03564C6.41341 8.03564 6.52132 7.99967 6.59326 7.92773C6.67074 7.85026 6.70947 7.74512 6.70947 7.6123C6.70947 7.5459 6.69287 7.45459 6.65967 7.33838L5.43945 3.95996C5.31771 3.61686 5.08805 3.44531 4.75049 3.44531C4.43506 3.44531 4.21647 3.61686 4.09473 3.95996L2.87451 7.33838C2.83577 7.44352 2.81641 7.53483 2.81641 7.6123C2.81641 7.74512 2.85514 7.85026 2.93262 7.92773C3.01009 7.99967 3.118 8.03564 3.25635 8.03564ZM4.16943 6.12646L4.73389 4.3833H4.78369L5.35645 6.12646H4.16943ZM8.15381 4.88135H10.6855C10.835 4.88135 10.9567 4.83154 11.0508 4.73193C11.1504 4.63232 11.2002 4.51058 11.2002 4.3667C11.2002 4.22282 11.1504 4.10384 11.0508 4.00977C10.9567 3.91016 10.835 3.86035 10.6855 3.86035H8.15381C7.99886 3.86035 7.87158 3.91016 7.77197 4.00977C7.6779 4.10384 7.63086 4.22282 7.63086 4.3667C7.63086 4.51058 7.6779 4.63232 7.77197 4.73193C7.87158 4.83154 7.99886 4.88135 8.15381 4.88135ZM8.15381 7.77832H10.6855C10.835 7.77832 10.9567 7.72852 11.0508 7.62891C11.1504 7.5293 11.2002 7.40755 11.2002 7.26367C11.2002 7.11979 11.1504 7.00081 11.0508 6.90674C10.9567 6.80713 10.835 6.75732 10.6855 6.75732H8.15381C7.99886 6.75732 7.87158 6.80713 7.77197 6.90674C7.6779 7.00081 7.63086 7.11979 7.63086 7.26367C7.63086 7.40755 7.6779 7.5293 7.77197 7.62891C7.87158 7.72852 7.99886 7.77832 8.15381 7.77832ZM2.7749 14.6431H3.35596L4.45166 13.5391C4.59554 13.4007 4.75879 13.3315 4.94141 13.3315C5.12402 13.3315 5.29281 13.4007 5.44775 13.5391L6.12842 14.1616L7.83008 12.6509C8.01823 12.4904 8.21191 12.4102 8.41113 12.4102C8.51628 12.4102 8.61865 12.4295 8.71826 12.4683C8.81787 12.5015 8.90641 12.5623 8.98389 12.6509L10.644 14.5601H11.2251V10.5923C11.2251 9.85628 10.8543 9.48828 10.1128 9.48828H3.89551C3.54134 9.48828 3.26465 9.58236 3.06543 9.77051C2.87174 9.95312 2.7749 10.2271 2.7749 10.5923V14.6431ZM5.51416 12.6509C5.26514 12.6509 5.05208 12.5623 4.875 12.3853C4.70345 12.2082 4.61768 11.9979 4.61768 11.7544C4.61768 11.5054 4.70345 11.2923 4.875 11.1152C5.05208 10.9326 5.26514 10.8468 5.51416 10.8579C5.75765 10.8634 5.96794 10.952 6.14502 11.1235C6.3221 11.2951 6.41064 11.5054 6.41064 11.7544C6.41064 11.9979 6.3221 12.2082 6.14502 12.3853C5.96794 12.5623 5.75765 12.6509 5.51416 12.6509ZM0.019043 15.3071C0.019043 16.1759 0.232096 16.8262 0.658203 17.2578C1.08984 17.6895 1.73454 17.9053 2.59229 17.9053H11.4077C12.2655 17.9053 12.9074 17.6895 13.3335 17.2578C13.7651 16.8262 13.981 16.1759 13.981 15.3071V2.71484C13.981 1.85156 13.7651 1.20133 13.3335 0.76416C12.9074 0.326986 12.2655 0.108398 11.4077 0.108398H2.59229C1.73454 0.108398 1.08984 0.326986 0.658203 0.76416C0.232096 1.20133 0.019043 1.85156 0.019043 2.71484V15.3071ZM1.35547 15.2822V2.73975C1.35547 2.32471 1.46338 2.00651 1.6792 1.78516C1.90055 1.55827 2.22705 1.44482 2.65869 1.44482H11.3413C11.7729 1.44482 12.0967 1.55827 12.3125 1.78516C12.5339 2.00651 12.6445 2.32471 12.6445 2.73975V15.2822C12.6445 15.6973 12.5339 16.0155 12.3125 16.2368C12.0967 16.4582 11.7729 16.5688 11.3413 16.5688H2.65869C2.22705 16.5688 1.90055 16.4582 1.6792 16.2368C1.46338 16.0155 1.35547 15.6973 1.35547 15.2822Z" fill="#0A84FF"/>
</svg>
