<svg width="21" height="17" viewBox="0 0 21 17" fill="none" xmlns="http://www.w3.org/2000/svg">
<path d="M17.2617 1.62598H9.11426C8.48145 1.62598 8.10352 1.48535 7.61133 1.08105L7.11914 0.676758C6.49512 0.166992 6.03809 0 5.11523 0H2.62793C0.975586 0 0 0.966797 0 2.82129V5.28223H20.1533V4.49121C20.1533 2.61035 19.1602 1.62598 17.2617 1.62598ZM2.8916 16.4004H17.4727C19.1689 16.4004 20.1533 15.416 20.1533 13.5352V6.54785H0V13.5352C0 15.4248 0.993164 16.4004 2.8916 16.4004Z" fill="#8E8E93"/>
<path d="M15.4746 16.2871C15.5527 16.2871 15.6374 16.2692 15.7285 16.2334C15.8197 16.1976 15.9092 16.1325 15.9971 16.0381L19.6348 12.1855C19.7454 12.0684 19.8252 11.9577 19.874 11.8535C19.9261 11.7493 19.9521 11.637 19.9521 11.5166C19.9521 11.3506 19.8984 11.2139 19.791 11.1064C19.6836 10.999 19.5469 10.9453 19.3809 10.9453H17.4033V6.88281C17.4033 6.52799 17.3073 6.25293 17.1152 6.05762C16.9232 5.85905 16.653 5.75977 16.3047 5.75977H14.6494C14.3011 5.75977 14.0309 5.85905 13.8389 6.05762C13.6468 6.25293 13.5508 6.52799 13.5508 6.88281V10.9453H11.5928C11.43 10.9453 11.29 10.999 11.1729 11.1064C11.0557 11.2139 10.9971 11.3538 10.9971 11.5264C10.9971 11.6468 11.0247 11.7542 11.0801 11.8486C11.1322 11.943 11.2201 12.0553 11.3438 12.1855L14.9473 16.0381C15.0352 16.1325 15.1247 16.1976 15.2158 16.2334C15.307 16.2692 15.3932 16.2871 15.4746 16.2871Z" fill="#0A84FF"/>
</svg>
