<svg width="22" height="17" viewBox="0 0 22 17" fill="none" xmlns="http://www.w3.org/2000/svg">
<path d="M17.2617 1.62598H9.11426C8.48145 1.62598 8.10352 1.48535 7.61133 1.08105L7.11914 0.676758C6.49512 0.166992 6.03809 0 5.11523 0H2.62793C0.975586 0 0 0.966797 0 2.82129V5.28223H20.1533V4.49121C20.1533 2.61035 19.1602 1.62598 17.2617 1.62598ZM2.8916 16.4004H17.4727C19.1689 16.4004 20.1533 15.416 20.1533 13.5352V6.54785H0V13.5352C0 15.4248 0.993164 16.4004 2.8916 16.4004Z" fill="#8E8E93"/>
<path d="M12.0762 16.2207C12.1771 16.2988 12.291 16.3249 12.418 16.2988C12.5449 16.276 12.6833 16.2109 12.833 16.1035L15.416 14.2041L18.0039 16.1035C18.1536 16.2109 18.292 16.276 18.4189 16.2988C18.5459 16.3249 18.6598 16.2988 18.7607 16.2207C18.8617 16.1458 18.9219 16.0449 18.9414 15.918C18.9642 15.791 18.9447 15.6396 18.8828 15.4639L17.8623 12.4268L20.4697 10.5518C20.6227 10.4443 20.7285 10.3337 20.7871 10.2197C20.8457 10.1058 20.8555 9.98861 20.8164 9.86816C20.7773 9.75098 20.7008 9.66309 20.5869 9.60449C20.473 9.5459 20.3216 9.51823 20.1328 9.52148L16.9346 9.54102L15.9629 6.48926C15.9043 6.31022 15.8294 6.17513 15.7383 6.08398C15.6504 5.99284 15.543 5.94727 15.416 5.94727C15.2923 5.94727 15.1849 5.99284 15.0938 6.08398C15.0059 6.17513 14.9326 6.31022 14.874 6.48926L13.9023 9.54102L10.7041 9.52148C10.5153 9.51823 10.3639 9.5459 10.25 9.60449C10.1361 9.66309 10.0596 9.75098 10.0205 9.86816C9.98145 9.98861 9.99121 10.1058 10.0498 10.2197C10.1084 10.3337 10.2142 10.4443 10.3672 10.5518L12.9746 12.4268L11.9541 15.4639C11.8923 15.6396 11.8711 15.791 11.8906 15.918C11.9134 16.0449 11.9753 16.1458 12.0762 16.2207Z" fill="#FFD60A"/>
</svg>
