<svg width="16" height="16" viewBox="0 0 16 16" fill="none" xmlns="http://www.w3.org/2000/svg">
<path d="M2.96143 15.6602H13.0303C13.8991 15.6602 14.5493 15.4443 14.981 15.0127C15.4181 14.5866 15.6367 13.9447 15.6367 13.0869V2.95166C15.6367 2.09391 15.4181 1.45199 14.981 1.02588C14.5493 0.594238 13.8991 0.378418 13.0303 0.378418H2.96143C2.09261 0.378418 1.43962 0.594238 1.00244 1.02588C0.570801 1.45199 0.35498 2.09391 0.35498 2.95166V13.0869C0.35498 13.9447 0.570801 14.5866 1.00244 15.0127C1.43962 15.4443 2.09261 15.6602 2.96143 15.6602ZM5.54297 12.4312C5.37695 12.5584 5.21647 12.6082 5.06152 12.5806C4.91211 12.5529 4.79867 12.4699 4.72119 12.3315C4.64925 12.1932 4.64648 12.0272 4.71289 11.8335L5.68408 8.93652L3.20215 7.16846C3.0472 7.05225 2.95866 6.91667 2.93652 6.76172C2.91439 6.60124 2.95312 6.46289 3.05273 6.34668C3.15234 6.22493 3.31006 6.16683 3.52588 6.17236L6.57227 6.19727L7.49365 3.28369C7.55452 3.09001 7.65413 2.96273 7.79248 2.90186C7.93083 2.83545 8.06917 2.83545 8.20752 2.90186C8.34587 2.96273 8.44548 3.09001 8.50635 3.28369L9.43604 6.19727L12.4824 6.17236C12.6982 6.16683 12.856 6.22493 12.9556 6.34668C13.0552 6.46842 13.0939 6.60954 13.0718 6.77002C13.0496 6.92497 12.9611 7.05501 12.8062 7.16016L10.3242 8.93652L11.2954 11.8335C11.3618 12.0272 11.3563 12.1932 11.2788 12.3315C11.2069 12.4699 11.0934 12.5529 10.9385 12.5806C10.7891 12.6082 10.6286 12.5584 10.457 12.4312L8 10.6382L5.54297 12.4312Z" fill="#AF52DE"/>
</svg>
