<svg width="22" height="21" viewBox="0 0 22 21" fill="none" xmlns="http://www.w3.org/2000/svg">
<path d="M17.2617 1.62598H9.11426C8.48145 1.62598 8.10352 1.48535 7.61133 1.08105L7.11914 0.676758C6.49512 0.166992 6.03809 0 5.11523 0H2.62793C0.975586 0 0 0.966797 0 2.82129V5.28223H20.1533V4.49121C20.1533 2.61035 19.1602 1.62598 17.2617 1.62598ZM2.8916 16.4004H17.4727C19.1689 16.4004 20.1533 15.416 20.1533 13.5352V6.54785H0V13.5352C0 15.4248 0.993164 16.4004 2.8916 16.4004Z" fill="#8E8E93"/>
<path d="M16.7476 16.4448C17.4565 16.4448 18.0993 16.3302 18.6758 16.1011C19.2559 15.8719 19.7554 15.5461 20.1743 15.1235C20.5933 14.701 20.9137 14.1943 21.1357 13.6035C21.3613 13.0127 21.4741 12.3574 21.4741 11.6377C21.4741 10.8356 21.3703 10.1105 21.1626 9.4624C20.9549 8.81429 20.6702 8.23958 20.3086 7.73828C19.9505 7.2334 19.5387 6.79834 19.0732 6.43311C18.6077 6.06429 18.1154 5.76172 17.5962 5.52539C17.0806 5.28548 16.5596 5.11003 16.0332 4.99902C15.5104 4.88444 15.0127 4.82715 14.54 4.82715C14.2858 4.82715 14.0835 4.87191 13.9331 4.96143C13.7863 5.04736 13.7129 5.17627 13.7129 5.34814C13.7129 5.41618 13.7272 5.48421 13.7559 5.55225C13.7845 5.62028 13.8275 5.68652 13.8848 5.75098C14.096 6.00521 14.2983 6.27555 14.4917 6.56201C14.6886 6.84847 14.8498 7.15104 14.9751 7.46973C15.104 7.78841 15.1702 8.125 15.1738 8.47949C15.1738 8.60124 15.1613 8.72119 15.1362 8.83936C15.1147 8.95394 15.061 9.08643 14.9751 9.23682L15.2437 9.18311C15.1613 8.91813 15.0413 8.68538 14.8838 8.48486C14.7298 8.28076 14.5544 8.12142 14.3574 8.00684C14.1641 7.89225 13.9725 7.83496 13.7827 7.83496C13.6717 7.83496 13.5822 7.87256 13.5142 7.94775C13.4461 8.02295 13.4121 8.11963 13.4121 8.23779C13.4121 8.30583 13.4175 8.41146 13.4282 8.55469C13.4425 8.69434 13.4497 8.82324 13.4497 8.94141C13.4497 9.18132 13.4193 9.4069 13.3584 9.61816C13.2975 9.82943 13.2205 10.0425 13.1274 10.2573C13.0343 10.4722 12.9412 10.7013 12.8481 10.9448C12.7586 11.1847 12.6816 11.4551 12.6172 11.7559C12.5563 12.0566 12.5259 12.4004 12.5259 12.7871C12.5259 13.5212 12.7013 14.1621 13.0522 14.71C13.4032 15.2578 13.8937 15.6839 14.5239 15.9883C15.1577 16.2926 15.8989 16.4448 16.7476 16.4448ZM16.8711 14.9355C16.3698 14.9355 15.9652 14.7977 15.6572 14.522C15.3529 14.2427 15.2007 13.8774 15.2007 13.4263C15.2007 13.1899 15.2347 12.9876 15.3027 12.8193C15.3743 12.6475 15.4567 12.4935 15.5498 12.3574C15.6429 12.2178 15.7288 12.0853 15.8076 11.96C15.8864 11.8311 15.9365 11.6896 15.958 11.5356C15.9616 11.5106 15.9705 11.4963 15.9849 11.4927C16.0028 11.4855 16.0207 11.4891 16.0386 11.5034C16.1639 11.6144 16.2677 11.738 16.3501 11.874C16.436 12.0065 16.513 12.1497 16.5811 12.3037C16.7243 12.1104 16.8263 11.8257 16.8872 11.4497C16.9481 11.0701 16.9552 10.6602 16.9087 10.2197C16.9051 10.1947 16.9105 10.1768 16.9248 10.166C16.9391 10.1517 16.9588 10.1499 16.9839 10.1606C17.3778 10.3468 17.7072 10.5903 17.9722 10.8911C18.2371 11.1919 18.4359 11.5195 18.5684 11.874C18.7044 12.2285 18.7725 12.5812 18.7725 12.9321C18.7725 13.2866 18.7026 13.616 18.563 13.9204C18.4233 14.2248 18.2121 14.4701 17.9292 14.6562C17.6499 14.8424 17.2972 14.9355 16.8711 14.9355Z" fill="#FFD60A"/>
</svg>
