<svg width="23" height="18" viewBox="0 0 23 18" fill="none" xmlns="http://www.w3.org/2000/svg">
<path d="M17.2617 1.62598H9.11426C8.48145 1.62598 8.10352 1.48535 7.61133 1.08105L7.11914 0.676758C6.49512 0.166992 6.03809 0 5.11523 0H2.62793C0.975586 0 0 0.966797 0 2.82129V5.28223H20.1533V4.49121C20.1533 2.61035 19.1602 1.62598 17.2617 1.62598ZM2.8916 16.4004H17.4727C19.1689 16.4004 20.1533 15.416 20.1533 13.5352V6.54785H0V13.5352C0 15.4248 0.993164 16.4004 2.8916 16.4004Z" fill="#8E8E93"/>
<path d="M10.3408 11.498C10.3408 11.3776 10.3766 11.2816 10.4482 11.21C10.5199 11.1383 10.6191 11.1025 10.7461 11.1025H11.625V10.248C11.625 10.1243 11.6592 10.0267 11.7275 9.95508C11.7959 9.88346 11.8903 9.84766 12.0107 9.84766C12.1312 9.84766 12.2256 9.88346 12.2939 9.95508C12.3623 10.0267 12.3965 10.1243 12.3965 10.248V11.1025H13.2217C13.3584 11.1025 13.4642 11.1383 13.5391 11.21C13.6172 11.2816 13.6562 11.3776 13.6562 11.498C13.6562 11.625 13.6172 11.7259 13.5391 11.8008C13.4642 11.8724 13.3584 11.9082 13.2217 11.9082H12.3965V12.7627C12.3965 12.8864 12.3623 12.9857 12.2939 13.0605C12.2256 13.1322 12.1312 13.168 12.0107 13.168C11.8903 13.168 11.7959 13.1322 11.7275 13.0605C11.6592 12.9857 11.625 12.8864 11.625 12.7627V11.9082H10.7461C10.6191 11.9082 10.5199 11.8724 10.4482 11.8008C10.3766 11.7259 10.3408 11.625 10.3408 11.498ZM15.1406 12.1816C15.1406 11.9831 15.209 11.8154 15.3457 11.6787C15.4824 11.542 15.6484 11.4736 15.8438 11.4736C16.0423 11.4736 16.2083 11.542 16.3418 11.6787C16.4785 11.8154 16.5469 11.9831 16.5469 12.1816C16.5469 12.3802 16.4785 12.5479 16.3418 12.6846C16.2083 12.818 16.0423 12.8848 15.8438 12.8848C15.6484 12.8848 15.4824 12.818 15.3457 12.6846C15.209 12.5479 15.1406 12.3802 15.1406 12.1816ZM16.5811 10.7363C16.5811 10.5378 16.6478 10.3701 16.7812 10.2334C16.918 10.0967 17.084 10.0283 17.2793 10.0283C17.4779 10.0283 17.6439 10.0967 17.7773 10.2334C17.9141 10.3701 17.9824 10.5378 17.9824 10.7363C17.9824 10.9349 17.9141 11.1009 17.7773 11.2344C17.6439 11.3678 17.4779 11.4346 17.2793 11.4346C17.084 11.4346 16.918 11.3678 16.7812 11.2344C16.6478 11.1009 16.5811 10.9349 16.5811 10.7363ZM9.10547 16.9033C9.44076 16.9033 9.72884 16.8415 9.96973 16.7178C10.2139 16.5941 10.4385 16.4053 10.6436 16.1514L11.5273 15.082C11.5924 15.0039 11.6608 14.9469 11.7324 14.9111C11.804 14.8753 11.8757 14.8574 11.9473 14.8574H16.6396C16.7113 14.8574 16.7829 14.8753 16.8545 14.9111C16.9261 14.9469 16.9945 15.0039 17.0596 15.082L17.9434 16.1514C18.1484 16.4053 18.3714 16.5941 18.6123 16.7178C18.8564 16.8415 19.1462 16.9033 19.4814 16.9033C19.8525 16.9033 20.1781 16.8252 20.458 16.6689C20.738 16.516 20.9544 16.2979 21.1074 16.0146C21.2637 15.7314 21.3418 15.3994 21.3418 15.0186C21.3418 14.7744 21.3141 14.5124 21.2588 14.2324C21.2067 13.9525 21.1335 13.6546 21.0391 13.3389C20.9414 13.0036 20.821 12.639 20.6777 12.2451C20.5345 11.8512 20.3799 11.4541 20.2139 11.0537C20.0511 10.6501 19.8867 10.2725 19.7207 9.9209C19.5807 9.62793 19.4489 9.38379 19.3252 9.18848C19.2015 8.99316 19.0436 8.83366 18.8516 8.70996C18.6628 8.58626 18.3958 8.48535 18.0508 8.40723C17.5918 8.30306 17.0465 8.21842 16.415 8.15332C15.7835 8.08822 15.0771 8.05566 14.2959 8.05566C13.5146 8.05566 12.8066 8.08822 12.1719 8.15332C11.5404 8.21842 10.9951 8.30306 10.5361 8.40723C10.1911 8.48535 9.92253 8.58626 9.73047 8.70996C9.54167 8.83366 9.38542 8.99316 9.26172 9.18848C9.13802 9.38379 9.00618 9.62793 8.86621 9.9209C8.7002 10.2725 8.53418 10.6501 8.36816 11.0537C8.2054 11.4541 8.05241 11.8512 7.90918 12.2451C7.76595 12.639 7.64551 13.0036 7.54785 13.3389C7.45345 13.6546 7.37858 13.9525 7.32324 14.2324C7.27116 14.5124 7.24512 14.7744 7.24512 15.0186C7.24512 15.3994 7.32161 15.7314 7.47461 16.0146C7.63086 16.2979 7.84896 16.516 8.12891 16.6689C8.40885 16.8252 8.73438 16.9033 9.10547 16.9033Z" fill="#04DE71"/>
</svg>
