<svg width="16px" height="16px" viewBox="0 0 24 24" fill="none" xmlns="http://www.w3.org/2000/svg">
<path d="M1.33398 14.6816H2.125C2.25684 14.6816 2.34473 14.5938 2.34473 14.4619V9.36426C2.34473 5.21582 5.5 2.52637 10 2.52637C14.5 2.52637 17.6553 5.21582 17.6553 9.36426V14.4619C17.6553 14.5938 17.7432 14.6816 17.875 14.6816H18.666C19.0527 14.6816 19.3428 14.4355 19.3428 14.0664V8.95996C19.3428 4.12598 15.502 0.865234 10.3164 0.865234H9.68359C4.49805 0.865234 0.657227 4.12598 0.657227 8.95996V14.0664C0.657227 14.4355 0.947266 14.6816 1.33398 14.6816ZM4.19922 18.0742H5.24512C6.2998 18.0742 6.92383 17.4941 6.92383 16.4922V12.4756C6.92383 11.4736 6.2998 10.8936 5.24512 10.8936H4.19922C3.61035 10.8936 3.27637 11.2188 3.27637 11.79V17.1777C3.27637 17.749 3.61035 18.0742 4.19922 18.0742ZM14.7637 18.0742H15.8096C16.3984 18.0742 16.7412 17.749 16.7412 17.1777V11.79C16.7412 11.21 16.3984 10.8936 15.8096 10.8936H14.7637C13.709 10.8936 13.085 11.4736 13.085 12.4756V16.4922C13.085 17.4941 13.709 18.0742 14.7637 18.0742Z" fill="#FF9500"/>
</svg>
