<svg width="30" height="30" viewBox="0 0 24 30" fill="none" xmlns="http://www.w3.org/2000/svg">
<path d="M10.5479 17.0832C11.1367 17.2414 11.6729 16.925 11.8486 16.3361L16.1729 1.50894C16.3398 0.955231 16.0674 0.410311 15.4785 0.252111C14.8984 0.0939111 14.3887 0.348791 14.1953 0.999181L9.88869 15.7648C9.71289 16.3625 9.9414 16.9162 10.5479 17.0832ZM0.291016 8.6545C0.291016 8.9533 0.422846 9.2609 0.677726 9.4806L6.36426 14.6134C6.83008 15.0353 7.4541 15.0265 7.84082 14.5871C8.23633 14.1476 8.18359 13.5148 7.73535 13.1105L2.81348 8.6545L7.73535 4.18961C8.18359 3.78531 8.23633 3.16129 7.84082 2.72184C7.4541 2.28238 6.83008 2.27359 6.36426 2.69547L0.677726 7.8195C0.422846 8.048 0.291016 8.3556 0.291016 8.6545ZM25.7002 8.6545C25.7002 8.3556 25.5684 8.048 25.3135 7.8195L19.627 2.69547C19.1611 2.27359 18.5371 2.28238 18.1504 2.72184C17.7549 3.16129 17.8076 3.78531 18.2559 4.18961L23.1777 8.6545L18.2559 13.1105C17.8076 13.5148 17.7549 14.1476 18.1504 14.5871C18.5371 15.0265 19.1611 15.0353 19.627 14.6134L25.3135 9.4806C25.5684 9.2609 25.7002 8.9533 25.7002 8.6545Z" fill="#D15442"/>
</svg>
