<svg width="16px" height="16px" viewBox="0 0 24 24" fill="none" xmlns="http://www.w3.org/2000/svg">
<path d="M9 17.4736C10.1566 17.4736 11.244 17.2523 12.2622 16.8096C13.286 16.3669 14.188 15.7554 14.9683 14.9751C15.7485 14.1948 16.36 13.2956 16.8027 12.2773C17.2454 11.2536 17.4668 10.1634 17.4668 9.00684C17.4668 7.85026 17.2454 6.76286 16.8027 5.74463C16.36 4.72087 15.7485 3.81885 14.9683 3.03857C14.188 2.2583 13.286 1.64681 12.2622 1.2041C11.2384 0.761393 10.1483 0.540039 8.9917 0.540039C7.83512 0.540039 6.74495 0.761393 5.72119 1.2041C4.70296 1.64681 3.80371 2.2583 3.02344 3.03857C2.2487 3.81885 1.63997 4.72087 1.19727 5.74463C0.754557 6.76286 0.533203 7.85026 0.533203 9.00684C0.533203 10.1634 0.754557 11.2536 1.19727 12.2773C1.63997 13.2956 2.25146 14.1948 3.03174 14.9751C3.81201 15.7554 4.71126 16.3669 5.72949 16.8096C6.75326 17.2523 7.84342 17.4736 9 17.4736ZM9 16.0625C8.02051 16.0625 7.10465 15.8799 6.25244 15.5146C5.40023 15.1494 4.65039 14.6458 4.00293 14.0039C3.361 13.3564 2.85742 12.6066 2.49219 11.7544C2.13249 10.9022 1.95264 9.98633 1.95264 9.00684C1.95264 8.02734 2.13249 7.11149 2.49219 6.25928C2.85742 5.40706 3.361 4.65723 4.00293 4.00977C4.64486 3.3623 5.39193 2.85872 6.24414 2.49902C7.09635 2.13379 8.01221 1.95117 8.9917 1.95117C9.97119 1.95117 10.887 2.13379 11.7393 2.49902C12.597 2.85872 13.3468 3.3623 13.9888 4.00977C14.6362 4.65723 15.1426 5.40706 15.5078 6.25928C15.873 7.11149 16.0557 8.02734 16.0557 9.00684C16.0557 9.98633 15.873 10.9022 15.5078 11.7544C15.1481 12.6066 14.6445 13.3564 13.9971 14.0039C13.3496 14.6458 12.5998 15.1494 11.7476 15.5146C10.8953 15.8799 9.97949 16.0625 9 16.0625ZM7.54736 13.647H10.9258C11.0973 13.647 11.2412 13.5916 11.3574 13.481C11.4736 13.3703 11.5317 13.2319 11.5317 13.0659C11.5317 12.8999 11.4736 12.7616 11.3574 12.6509C11.2412 12.5402 11.0973 12.4849 10.9258 12.4849H9.89648V8.25977C9.89648 8.03288 9.84115 7.85303 9.73047 7.72021C9.61979 7.58187 9.45931 7.5127 9.24902 7.5127H7.68848C7.51693 7.5127 7.37305 7.56803 7.25684 7.67871C7.14062 7.78939 7.08252 7.92773 7.08252 8.09375C7.08252 8.25977 7.14062 8.39811 7.25684 8.50879C7.37305 8.61947 7.51693 8.6748 7.68848 8.6748H8.57666V12.4849H7.54736C7.37581 12.4849 7.23193 12.5402 7.11572 12.6509C6.99951 12.7616 6.94141 12.8999 6.94141 13.0659C6.94141 13.2319 6.99951 13.3703 7.11572 13.481C7.23193 13.5916 7.37581 13.647 7.54736 13.647ZM8.92529 6.12646C9.22965 6.12646 9.48421 6.02132 9.68896 5.81104C9.89925 5.60075 10.0044 5.34619 10.0044 5.04736C10.0044 4.743 9.89925 4.48568 9.68896 4.27539C9.48421 4.0651 9.22965 3.95996 8.92529 3.95996C8.62646 3.95996 8.37191 4.0651 8.16162 4.27539C7.95133 4.48568 7.84619 4.743 7.84619 5.04736C7.84619 5.34619 7.95133 5.60075 8.16162 5.81104C8.37191 6.02132 8.62646 6.12646 8.92529 6.12646Z" fill="#0A84FF"/>
</svg>
