<svg width="23" height="21" viewBox="0 0 23 21" fill="none" xmlns="http://www.w3.org/2000/svg">
<path d="M17.2617 1.62598H9.11426C8.48145 1.62598 8.10352 1.48535 7.61133 1.08105L7.11914 0.676758C6.49512 0.166992 6.03809 0 5.11523 0H2.62793C0.975586 0 0 0.966797 0 2.82129V5.28223H20.1533V4.49121C20.1533 2.61035 19.1602 1.62598 17.2617 1.62598ZM2.8916 16.4004H17.4727C19.1689 16.4004 20.1533 15.416 20.1533 13.5352V6.54785H0V13.5352C0 15.4248 0.993164 16.4004 2.8916 16.4004Z" fill="#8E8E93"/>
<path d="M15.6885 16.6406H19.3066C19.707 16.6406 20.0277 16.5234 20.2686 16.2891C20.5127 16.0579 20.6348 15.752 20.6348 15.3711V7.57324C20.6348 7.19238 20.5127 6.88639 20.2686 6.65527C20.0277 6.4209 19.707 6.30371 19.3066 6.30371H15.6885C15.2913 6.30371 14.9707 6.4209 14.7266 6.65527C14.4824 6.88639 14.3604 7.19238 14.3604 7.57324V15.3711C14.3604 15.752 14.4824 16.0579 14.7266 16.2891C14.9707 16.5234 15.2913 16.6406 15.6885 16.6406ZM15.791 15.8545C15.5827 15.8545 15.4232 15.8008 15.3125 15.6934C15.2018 15.5892 15.1465 15.4395 15.1465 15.2441V7.7002C15.1465 7.50488 15.2018 7.35514 15.3125 7.25098C15.4232 7.14355 15.5827 7.08984 15.791 7.08984H16.416C16.4941 7.08984 16.5332 7.12728 16.5332 7.20215V7.31445C16.5332 7.41536 16.5641 7.49837 16.626 7.56348C16.6878 7.62533 16.7692 7.65625 16.8701 7.65625H18.1299C18.234 7.65625 18.3154 7.62533 18.374 7.56348C18.4359 7.49837 18.4668 7.41536 18.4668 7.31445V7.20215C18.4668 7.12728 18.5059 7.08984 18.584 7.08984H19.209C19.4141 7.08984 19.5719 7.14355 19.6826 7.25098C19.7933 7.35514 19.8486 7.50488 19.8486 7.7002V15.2441C19.8486 15.4395 19.7933 15.5892 19.6826 15.6934C19.5719 15.8008 19.4141 15.8545 19.209 15.8545H15.791ZM16.4648 15.498H18.54C18.6051 15.498 18.6589 15.4769 18.7012 15.4346C18.7435 15.3923 18.7646 15.3369 18.7646 15.2686C18.7646 15.2002 18.7435 15.1449 18.7012 15.1025C18.6589 15.0635 18.6051 15.0439 18.54 15.0439H16.4648C16.3997 15.0439 16.3444 15.0635 16.2988 15.1025C16.2565 15.1449 16.2354 15.2002 16.2354 15.2686C16.2354 15.3369 16.2565 15.3923 16.2988 15.4346C16.3444 15.4769 16.3997 15.498 16.4648 15.498Z" fill="#0A84FF"/>
</svg>
