<svg width="16px" height="16px" viewBox="0 0 24 24" fill="none" xmlns="http://www.w3.org/2000/svg">
<path d="M2.92041 17.7891H9.07129C9.75195 17.7891 10.297 17.5898 10.7065 17.1914C11.1216 16.7985 11.3291 16.2783 11.3291 15.6309V2.37451C11.3291 1.72705 11.1216 1.20687 10.7065 0.813965C10.297 0.415527 9.75195 0.216309 9.07129 0.216309H2.92041C2.24528 0.216309 1.7002 0.415527 1.28516 0.813965C0.870117 1.20687 0.662598 1.72705 0.662598 2.37451V15.6309C0.662598 16.2783 0.870117 16.7985 1.28516 17.1914C1.7002 17.5898 2.24528 17.7891 2.92041 17.7891ZM3.09473 16.4526C2.74056 16.4526 2.4694 16.3613 2.28125 16.1787C2.0931 16.0016 1.99902 15.7471 1.99902 15.415V2.59033C1.99902 2.2583 2.0931 2.00374 2.28125 1.82666C2.4694 1.64404 2.74056 1.55273 3.09473 1.55273H4.15723C4.29004 1.55273 4.35645 1.61637 4.35645 1.74365V1.93457C4.35645 2.10612 4.40902 2.24723 4.51416 2.35791C4.6193 2.46305 4.75765 2.51562 4.9292 2.51562H7.0708C7.24788 2.51562 7.38623 2.46305 7.48584 2.35791C7.59098 2.24723 7.64355 2.10612 7.64355 1.93457V1.74365C7.64355 1.61637 7.70996 1.55273 7.84277 1.55273H8.90527C9.25391 1.55273 9.5223 1.64404 9.71045 1.82666C9.8986 2.00374 9.99268 2.2583 9.99268 2.59033V15.415C9.99268 15.7471 9.8986 16.0016 9.71045 16.1787C9.5223 16.3613 9.25391 16.4526 8.90527 16.4526H3.09473ZM4.24023 15.8467H7.76807C7.87874 15.8467 7.97005 15.8107 8.04199 15.7388C8.11393 15.6668 8.1499 15.5728 8.1499 15.4565C8.1499 15.3403 8.11393 15.2463 8.04199 15.1743C7.97005 15.1079 7.87874 15.0747 7.76807 15.0747H4.24023C4.12956 15.0747 4.03548 15.1079 3.95801 15.1743C3.88607 15.2463 3.8501 15.3403 3.8501 15.4565C3.8501 15.5728 3.88607 15.6668 3.95801 15.7388C4.03548 15.8107 4.12956 15.8467 4.24023 15.8467Z" fill="#8E8E93"/>
</svg>
