<svg width="26" height="19" viewBox="0 0 26 19" fill="none" xmlns="http://www.w3.org/2000/svg">
<path d="M8.84131 18.6401C9.69906 18.6401 10.4766 18.3883 11.1738 17.8848C11.8711 17.3812 12.4688 16.6812 12.9668 15.7847C13.4704 14.8882 13.855 13.8451 14.1206 12.6553C14.3918 11.4655 14.5273 10.1816 14.5273 8.80371C14.5273 7.63607 14.4001 6.54313 14.1455 5.5249C13.891 4.50114 13.5257 3.60465 13.0498 2.83545C12.5739 2.06071 12.0011 1.45475 11.3315 1.01758C10.6675 0.580404 9.92041 0.361816 9.09033 0.361816C8.37646 0.361816 7.73454 0.547201 7.16455 0.917969C6.59456 1.2832 6.14079 1.77848 5.80322 2.40381C5.47119 3.0236 5.30518 3.72087 5.30518 4.49561C5.30518 5.17627 5.41032 5.83203 5.62061 6.46289C5.83089 7.09375 6.11865 7.69141 6.48389 8.25586C6.85465 8.81478 7.28353 9.33496 7.77051 9.81641C8.25749 10.2923 8.78044 10.724 9.33936 11.1113C9.90381 11.4932 10.4793 11.8224 11.0659 12.0991C11.1655 12.1489 11.2707 12.1738 11.3813 12.1738C11.5474 12.1738 11.6857 12.1185 11.7964 12.0078C11.9071 11.8916 11.9624 11.7616 11.9624 11.6177C11.9624 11.5181 11.9347 11.424 11.8794 11.3354C11.8241 11.2414 11.7355 11.1639 11.6138 11.103C11.1379 10.8706 10.6121 10.5552 10.0366 10.1567C9.4611 9.75277 8.90771 9.27132 8.37646 8.7124C7.85075 8.14795 7.41911 7.51432 7.08154 6.81152C6.74398 6.10319 6.5752 5.33122 6.5752 4.49561C6.5752 3.95329 6.68587 3.46631 6.90723 3.03467C7.12858 2.60303 7.42741 2.25993 7.80371 2.00537C8.18555 1.75081 8.61442 1.62354 9.09033 1.62354C9.72673 1.62354 10.3022 1.81169 10.8169 2.18799C11.3315 2.56429 11.7715 3.08171 12.1367 3.74023C12.502 4.39876 12.7814 5.16243 12.9751 6.03125C13.1688 6.89453 13.2656 7.81868 13.2656 8.80371C13.2656 9.98242 13.1577 11.0892 12.9419 12.124C12.7316 13.1589 12.4328 14.0692 12.0454 14.855C11.658 15.6463 11.2043 16.2633 10.6841 16.7061C10.1639 17.1543 9.59945 17.3784 8.99072 17.3784C8.59229 17.3784 8.29622 17.2594 8.10254 17.0215C7.91439 16.7891 7.82031 16.4847 7.82031 16.1084C7.82031 15.6436 7.95312 15.1123 8.21875 14.5146C8.48991 13.917 8.87174 13.3138 9.36426 12.7051C9.8623 12.0964 10.4544 11.5319 11.1406 11.0117C11.8268 10.4915 12.5933 10.0737 13.4399 9.7583C14.2866 9.43734 15.1914 9.27686 16.1543 9.27686C16.4587 9.27686 16.6108 9.3903 16.6108 9.61719C16.6108 9.86068 16.5776 10.0903 16.5112 10.3062C16.4448 10.5164 16.3784 10.7295 16.312 10.9453C16.2511 11.1611 16.2207 11.388 16.2207 11.626C16.2207 11.9414 16.3231 12.1904 16.5278 12.373C16.7326 12.5501 16.9871 12.6387 17.2915 12.6387C17.6291 12.6387 17.9722 12.5418 18.3208 12.3481C18.675 12.1545 19.0236 11.9137 19.3667 11.626C19.7098 11.3382 20.0308 11.0532 20.3296 10.771C20.6284 10.4832 20.894 10.2425 21.1265 10.0488C21.3589 9.85514 21.5443 9.7583 21.6826 9.7583C21.8044 9.7583 21.8846 9.84684 21.9233 10.0239C21.9621 10.1955 21.998 10.4113 22.0312 10.6714C22.0645 10.9259 22.1253 11.1833 22.2139 11.4434C22.3024 11.6979 22.4546 11.9137 22.6704 12.0908C22.8862 12.2624 23.2017 12.3481 23.6167 12.3481C23.7882 12.3481 23.9764 12.3232 24.1812 12.2734C24.3859 12.2236 24.5741 12.1434 24.7456 12.0327C24.8452 11.9663 24.9255 11.8833 24.9863 11.7837C25.0527 11.6841 25.0859 11.5706 25.0859 11.4434C25.0859 11.2829 25.0361 11.1473 24.9365 11.0366C24.8424 10.9259 24.7152 10.8706 24.5547 10.8706C24.4108 10.8706 24.2752 10.9121 24.1479 10.9951C24.0207 11.0726 23.8851 11.1113 23.7412 11.1113C23.5586 11.1113 23.4341 11.02 23.3677 10.8374C23.3013 10.6493 23.2542 10.4196 23.2266 10.1484C23.1989 9.87174 23.1546 9.59782 23.0938 9.32666C23.0384 9.04997 22.9333 8.82031 22.7783 8.6377C22.6234 8.44954 22.3799 8.35547 22.0479 8.35547C21.7601 8.35547 21.4447 8.44954 21.1016 8.6377C20.764 8.82585 20.4237 9.06104 20.0806 9.34326C19.7375 9.61995 19.411 9.89941 19.1011 10.1816C18.7967 10.4583 18.5256 10.6908 18.2876 10.8789C18.0552 11.0671 17.8809 11.1611 17.7646 11.1611C17.6816 11.1611 17.6401 11.1141 17.6401 11.02C17.6401 10.9204 17.6706 10.7848 17.7314 10.6133C17.7923 10.4362 17.8532 10.2425 17.9141 10.0322C17.9749 9.81641 18.0054 9.59782 18.0054 9.37646C18.0054 8.96143 17.8449 8.63216 17.5239 8.38867C17.2085 8.13965 16.7824 8.01514 16.2456 8.01514C15.1388 8.01514 14.0929 8.20052 13.1079 8.57129C12.1284 8.94206 11.2347 9.43457 10.4268 10.0488C9.62435 10.6576 8.93262 11.3299 8.35156 12.0659C7.77051 12.8019 7.3195 13.5435 6.99854 14.2905C6.68311 15.0376 6.52539 15.7238 6.52539 16.3491C6.52539 17.0187 6.71631 17.5666 7.09814 17.9927C7.47998 18.4243 8.06104 18.6401 8.84131 18.6401ZM1.18799 15.6021H24.7954C24.978 15.6021 25.1357 15.5356 25.2686 15.4028C25.4014 15.27 25.4678 15.1123 25.4678 14.9297C25.4678 14.7471 25.4014 14.5894 25.2686 14.4565C25.1357 14.3293 24.978 14.2656 24.7954 14.2656H1.18799C1.00537 14.2656 0.847656 14.3293 0.714844 14.4565C0.587565 14.5894 0.523926 14.7471 0.523926 14.9297C0.523926 15.1123 0.587565 15.27 0.714844 15.4028C0.847656 15.5356 1.00537 15.6021 1.18799 15.6021ZM0.955566 12.3647C1.06071 12.4754 1.18522 12.5308 1.3291 12.5308C1.47852 12.5252 1.60579 12.4699 1.71094 12.3647L4.5498 9.53418C4.66048 9.42904 4.71582 9.30452 4.71582 9.16064C4.71582 9.01123 4.66048 8.88395 4.5498 8.77881C4.44466 8.66813 4.31738 8.61556 4.16797 8.62109C4.02409 8.62109 3.89958 8.67367 3.79443 8.77881L0.955566 11.6011C0.844889 11.7118 0.789551 11.839 0.789551 11.9829C0.789551 12.1268 0.844889 12.2541 0.955566 12.3647ZM3.79443 12.3647C3.89958 12.4754 4.02409 12.5308 4.16797 12.5308C4.31738 12.5308 4.44466 12.4754 4.5498 12.3647C4.66048 12.2541 4.71582 12.1268 4.71582 11.9829C4.71582 11.8335 4.66048 11.7062 4.5498 11.6011L1.71094 8.77881C1.60579 8.66813 1.47852 8.61279 1.3291 8.61279C1.18522 8.61279 1.06071 8.66813 0.955566 8.77881C0.844889 8.88395 0.789551 9.01123 0.789551 9.16064C0.789551 9.30452 0.844889 9.42904 0.955566 9.53418L3.79443 12.3647Z" fill="#FFD60A"/>
</svg>
