<svg width="12" height="17" viewBox="0 0 12 17" fill="none" xmlns="http://www.w3.org/2000/svg">
<path d="M2.25439 16.9341H9.84961C10.4583 16.9341 10.9204 16.7681 11.2358 16.436C11.5568 16.104 11.7173 15.6115 11.7173 14.9585V9.23926C11.7173 8.58626 11.5568 8.09652 11.2358 7.77002C10.9204 7.43799 10.4583 7.27197 9.84961 7.27197H2.25439C1.64567 7.27197 1.18083 7.43799 0.859863 7.77002C0.544434 8.09652 0.386719 8.58626 0.386719 9.23926V14.9585C0.386719 15.6115 0.544434 16.104 0.859863 16.436C1.18083 16.7681 1.64567 16.9341 2.25439 16.9341ZM1.83936 7.91113H3.15918V5.10547C3.15918 4.4082 3.29199 3.82161 3.55762 3.3457C3.82324 2.86979 4.17464 2.51009 4.61182 2.2666C5.05452 2.02311 5.5332 1.90137 6.04785 1.90137C6.56803 1.90137 7.04671 2.02311 7.48389 2.2666C7.9266 2.51009 8.28076 2.86979 8.54639 3.3457C8.81755 3.82161 8.95312 4.4082 8.95312 5.10547V7.91113H10.2646V5.28809C10.2646 4.24772 10.0627 3.38444 9.65869 2.69824C9.26025 2.01204 8.74007 1.50016 8.09814 1.1626C7.45622 0.819499 6.77279 0.647949 6.04785 0.647949C5.32845 0.647949 4.64779 0.819499 4.00586 1.1626C3.36393 1.50016 2.84098 2.01204 2.43701 2.69824C2.03857 3.38444 1.83936 4.24772 1.83936 5.28809V7.91113Z" fill="#FFD60A"/>
</svg>
