<svg width="25" height="22" viewBox="0 0 25 22" fill="none" xmlns="http://www.w3.org/2000/svg">
<path d="M17.2617 1.62598H9.11426C8.48145 1.62598 8.10352 1.48535 7.61133 1.08105L7.11914 0.676758C6.49512 0.166992 6.03809 0 5.11523 0H2.62793C0.975586 0 0 0.966797 0 2.82129V5.28223H20.1533V4.49121C20.1533 2.61035 19.1602 1.62598 17.2617 1.62598ZM2.8916 16.4004H17.4727C19.1689 16.4004 20.1533 15.416 20.1533 13.5352V6.54785H0V13.5352C0 15.4248 0.993164 16.4004 2.8916 16.4004Z" fill="#8E8E93"/>
<path d="M17.0908 12.6797C17.2861 12.6797 17.4863 12.5771 17.6914 12.3721L21.9395 8.16797C21.7572 7.99544 21.4235 7.90918 20.9385 7.90918H13.0771C12.6637 7.90918 12.3773 7.98893 12.2178 8.14844L16.4902 12.3721C16.6921 12.5771 16.8923 12.6797 17.0908 12.6797ZM11.8125 15.5361L15.2646 12.123L11.8027 8.70996C11.7279 8.84993 11.6904 9.08594 11.6904 9.41797V14.8086C11.6904 15.1536 11.7311 15.3962 11.8125 15.5361ZM13.2236 16.3223H21.085C21.4919 16.3223 21.7767 16.2441 21.9395 16.0879L18.4189 12.6016L18.0967 12.9287C17.7679 13.2412 17.4326 13.3975 17.0908 13.3975C16.7458 13.3975 16.4105 13.2412 16.085 12.9287L15.7578 12.6016L12.2471 16.083C12.4326 16.2425 12.7581 16.3223 13.2236 16.3223ZM22.3545 15.5312C22.4326 15.388 22.4717 15.1471 22.4717 14.8086V9.41797C22.4717 9.08919 22.4359 8.85807 22.3643 8.72461L18.9121 12.123L22.3545 15.5312Z" fill="#40C8E0"/>
</svg>
