<svg wwidth="16px" height="16px" viewBox="0 0 16 21" fill="none" xmlns="http://www.w3.org/2000/svg">
<path d="M0.381348 12.7578C0.381348 12.9626 0.425618 13.1535 0.51416 13.3306C0.602702 13.5076 0.738281 13.6958 0.920898 13.895L7.10498 20.4443C7.25439 20.6048 7.40658 20.7155 7.56152 20.7764C7.71647 20.8372 7.86035 20.8677 7.99316 20.8677C8.13704 20.8677 8.28369 20.8372 8.43311 20.7764C8.58805 20.7155 8.74023 20.6048 8.88965 20.4443L15.0156 13.895C15.2259 13.6737 15.3781 13.4827 15.4722 13.3223C15.5662 13.1618 15.6133 12.9792 15.6133 12.7744C15.6133 12.4867 15.5109 12.2487 15.3062 12.0605C15.1069 11.8779 14.869 11.7866 14.5923 11.7866H11.3716V6.39941C11.3716 5.68001 11.2139 5.15706 10.8984 4.83057C10.583 4.5096 10.0711 4.34912 9.36279 4.34912H7.62793V2.59766C7.62793 1.87826 7.47021 1.35531 7.15479 1.02881C6.83936 0.707845 6.33024 0.547363 5.62744 0.547363H2.43994C1.73714 0.547363 1.22803 0.707845 0.912598 1.02881C0.591634 1.35531 0.431152 1.87826 0.431152 2.59766V7.60303C0.431152 8.32243 0.591634 8.84261 0.912598 9.16357C1.22803 9.49007 1.73714 9.65332 2.43994 9.65332L4.33252 9.65332V11.7866L1.35254 11.7866C1.07031 11.7866 0.837891 11.8779 0.655273 12.0605C0.472656 12.2432 0.381348 12.4756 0.381348 12.7578ZM2.36523 8.70703L3.76807 5.35352C3.93962 4.94954 4.125 4.66178 4.32422 4.49023C4.52344 4.31868 4.78906 4.22184 5.12109 4.19971C5.2041 4.19417 5.25114 4.22184 5.26221 4.28271C5.27327 4.34912 5.24007 4.40169 5.1626 4.44043C4.97998 4.52344 4.82503 4.63965 4.69775 4.78906C4.57601 4.94401 4.4847 5.12939 4.42383 5.34521C4.36296 5.56104 4.33252 5.80729 4.33252 6.08398V8.81494L2.41504 8.81494C2.3929 8.81494 2.3763 8.80387 2.36523 8.78174C2.35417 8.7596 2.35417 8.7347 2.36523 8.70703Z" fill="#0A84FF"/>
</svg>
