<svg width="16" height="16" viewBox="0 0 184 242" fill="none" xmlns="http://www.w3.org/2000/svg">
<path d="M25.8523 91.7273H156.392V105.932H25.8523V91.7273ZM41.4773 194C34.0909 194 28.4564 192.059 24.5739 188.176C20.6913 184.294 18.75 178.659 18.75 171.273V71.2727C18.75 63.8864 20.6913 58.2519 24.5739 54.3693C28.4564 50.4867 34.0909 48.5455 41.4773 48.5455H141.477C148.864 48.5455 154.498 50.4867 158.381 54.3693C162.263 58.2519 164.205 63.8864 164.205 71.2727V171.273C164.205 178.659 162.263 184.294 158.381 188.176C154.498 192.059 148.864 194 141.477 194H41.4773ZM41.4773 178.375H141.477C144.508 178.375 146.449 177.949 147.301 177.097C148.153 176.244 148.58 174.303 148.58 171.273V71.2727C148.58 68.2424 148.153 66.3011 147.301 65.4489C146.449 64.5966 144.508 64.1705 141.477 64.1705H41.4773C38.447 64.1705 36.5057 64.5966 35.6534 65.4489C34.8011 66.3011 34.375 68.2424 34.375 71.2727V171.273C34.375 174.303 34.8011 176.244 35.6534 177.097C36.5057 177.949 38.447 178.375 41.4773 178.375Z" fill="#B59469"/>
<path d="M19 68C19 57.5066 27.5066 49 38 49H145C155.493 49 164 57.5066 164 68V73C164 83.4934 155.493 92 145 92H38C27.5066 92 19 83.4934 19 73V68Z" fill="#32D74B"/>
<path d="M19 77H164V178H19V77Z" fill="#B59469"/>
<rect x="30" y="174" width="121" height="7" fill="#B59469"/>
</svg>
