<svg width="22" height="14" viewBox="0 0 22 14" fill="none" xmlns="http://www.w3.org/2000/svg">
<path d="M3.66016 13.7471H12.5752C13.4108 13.7471 14.0638 13.5174 14.5342 13.0581C15.0046 12.5988 15.2397 11.9513 15.2397 11.1157V2.88965C15.2397 2.05957 15.0184 1.41488 14.5757 0.955566C14.133 0.496257 13.4938 0.266602 12.6582 0.266602H3.66016C2.86328 0.266602 2.21859 0.496257 1.72607 0.955566C1.2391 1.41488 0.995605 2.05957 0.995605 2.88965V11.1157C0.995605 11.9513 1.23079 12.5988 1.70117 13.0581C2.17155 13.5174 2.82454 13.7471 3.66016 13.7471ZM16.3687 9.45557L19.3901 12.0703C19.534 12.1921 19.6834 12.2917 19.8384 12.3691C19.9989 12.4411 20.1538 12.4771 20.3032 12.4771C20.6242 12.4771 20.8815 12.3719 21.0752 12.1616C21.2744 11.9458 21.374 11.6663 21.374 11.3232V2.69043C21.374 2.34733 21.2744 2.07064 21.0752 1.86035C20.8815 1.64453 20.6242 1.53662 20.3032 1.53662C20.1538 1.53662 19.9989 1.57259 19.8384 1.64453C19.6834 1.71647 19.534 1.81608 19.3901 1.94336L16.3687 4.5498V9.45557Z" fill="#AF52DE"/>
</svg>
