<svg width="22" height="17" viewBox="0 0 22 17" fill="none" xmlns="http://www.w3.org/2000/svg">
<path d="M17.2617 1.62598H9.11426C8.48145 1.62598 8.10352 1.48535 7.61133 1.08105L7.11914 0.676758C6.49512 0.166992 6.03809 0 5.11523 0H2.62793C0.975586 0 0 0.966797 0 2.82129V5.28223H20.1533V4.49121C20.1533 2.61035 19.1602 1.62598 17.2617 1.62598ZM2.8916 16.4004H17.4727C19.1689 16.4004 20.1533 15.416 20.1533 13.5352V6.54785H0V13.5352C0 15.4248 0.993164 16.4004 2.8916 16.4004Z" fill="#8E8E93"/>
<path d="M11.6602 9.4043C12.0638 9.83073 12.5146 10.1953 13.0127 10.498C13.514 10.8008 14.0479 11.0319 14.6143 11.1914C15.1839 11.3477 15.7699 11.4258 16.3721 11.4258C17.085 11.4225 17.7718 11.3053 18.4326 11.0742C19.0967 10.8431 19.7038 10.5111 20.2539 10.0781L19.9756 9.53125C19.471 9.95117 18.9111 10.2734 18.2959 10.498C17.6807 10.7194 17.0394 10.8317 16.3721 10.835C15.5062 10.8382 14.6859 10.6608 13.9111 10.3027C13.1396 9.94466 12.4805 9.44336 11.9336 8.79883L11.6602 9.4043ZM11.1377 12.1924C11.7725 12.7327 12.4642 13.1641 13.2129 13.4863C13.9648 13.8053 14.7412 14.0104 15.542 14.1016C16.346 14.1927 17.1468 14.1667 17.9443 14.0234C18.7419 13.8802 19.5068 13.6165 20.2393 13.2324L20.2246 12.5635C19.515 12.9736 18.7663 13.2585 17.9785 13.418C17.1908 13.5742 16.3997 13.6068 15.6055 13.5156C14.8145 13.4245 14.0495 13.2129 13.3105 12.8809C12.5716 12.5456 11.8962 12.0947 11.2842 11.5283L11.1377 12.1924ZM13.5596 15.5469L14.2578 15.708C14.0951 15.3141 13.9697 14.9105 13.8818 14.4971C13.7939 14.0837 13.7467 13.6637 13.7402 13.2373C13.6947 12.4268 13.7744 11.639 13.9795 10.874C14.1878 10.109 14.5068 9.39453 14.9365 8.73047C15.3662 8.06315 15.8919 7.47559 16.5137 6.96777L15.8887 6.72363C15.2734 7.27051 14.7542 7.89225 14.3311 8.58887C13.9079 9.28223 13.5938 10.0244 13.3887 10.8154C13.1868 11.6032 13.1071 12.4137 13.1494 13.2471C13.1559 13.6377 13.1934 14.0251 13.2617 14.4092C13.3301 14.7933 13.4294 15.1725 13.5596 15.5469ZM16.7773 16.0303L17.3291 15.7861C16.8734 15.1416 16.5234 14.445 16.2793 13.6963C16.0384 12.9443 15.918 12.1696 15.918 11.3721C15.918 10.6136 16.0254 9.87956 16.2402 9.16992C16.4551 8.46029 16.7692 7.79785 17.1826 7.18262L16.6064 6.97754C16.1898 7.63184 15.8724 8.33171 15.6543 9.07715C15.4362 9.82259 15.3271 10.5876 15.3271 11.3721C15.3271 12.2152 15.4508 13.0322 15.6982 13.8232C15.9456 14.611 16.3053 15.3467 16.7773 16.0303ZM19.6533 14.2139L20.0488 13.7646C19.502 13.4521 19.0283 13.0599 18.6279 12.5879C18.2308 12.1159 17.9215 11.5902 17.7002 11.0107C17.4821 10.4313 17.3682 9.82259 17.3584 9.18457C17.3551 8.84277 17.3828 8.50423 17.4414 8.16895C17.5 7.83366 17.5911 7.50977 17.7148 7.19727L17.1436 7.03613C17.0133 7.37793 16.9173 7.72949 16.8555 8.09082C16.7936 8.44889 16.7643 8.8151 16.7676 9.18945C16.7773 9.88281 16.8994 10.5469 17.1338 11.1816C17.3682 11.8132 17.7002 12.3893 18.1299 12.9102C18.5596 13.4277 19.0674 13.8623 19.6533 14.2139ZM13.7354 11.3672C13.9437 11.3672 14.1211 11.2923 14.2676 11.1426C14.4173 10.9928 14.4922 10.8122 14.4922 10.6006C14.4922 10.389 14.4173 10.21 14.2676 10.0635C14.1211 9.91374 13.9437 9.83887 13.7354 9.83887C13.5205 9.83887 13.3382 9.91374 13.1885 10.0635C13.042 10.21 12.9688 10.389 12.9688 10.6006C12.9688 10.8122 13.042 10.9928 13.1885 11.1426C13.3382 11.2923 13.5205 11.3672 13.7354 11.3672ZM17.4756 11.7725C17.6807 11.7725 17.8564 11.6992 18.0029 11.5527C18.1494 11.403 18.2227 11.224 18.2227 11.0156C18.2227 10.8105 18.1494 10.6348 18.0029 10.4883C17.8564 10.3418 17.6807 10.2686 17.4756 10.2686C17.264 10.2686 17.085 10.3418 16.9385 10.4883C16.792 10.6348 16.7188 10.8105 16.7188 11.0156C16.7188 11.224 16.792 11.403 16.9385 11.5527C17.085 11.6992 17.264 11.7725 17.4756 11.7725ZM16.0205 14.5947C16.2288 14.5947 16.4062 14.5215 16.5527 14.375C16.7025 14.2253 16.7773 14.0446 16.7773 13.833C16.7773 13.6214 16.7025 13.4424 16.5527 13.2959C16.4062 13.1462 16.2288 13.0713 16.0205 13.0713C15.8057 13.0713 15.6234 13.1462 15.4736 13.2959C15.3271 13.4424 15.2539 13.6214 15.2539 13.833C15.2539 14.0446 15.3271 14.2253 15.4736 14.375C15.6234 14.5215 15.8057 14.5947 16.0205 14.5947ZM15.8545 16.4551C16.5348 16.4551 17.1745 16.3249 17.7734 16.0645C18.3757 15.804 18.9062 15.4443 19.3652 14.9854C19.8242 14.5264 20.1839 13.9974 20.4443 13.3984C20.7048 12.7962 20.835 12.1549 20.835 11.4746C20.835 10.7943 20.7048 10.1546 20.4443 9.55566C20.1839 8.95345 19.8242 8.42285 19.3652 7.96387C18.9062 7.50488 18.3757 7.14518 17.7734 6.88477C17.1712 6.62435 16.5299 6.49414 15.8496 6.49414C15.1693 6.49414 14.528 6.62435 13.9258 6.88477C13.3268 7.14518 12.7979 7.50488 12.3389 7.96387C11.8831 8.42285 11.5251 8.95345 11.2646 9.55566C11.0042 10.1546 10.874 10.7943 10.874 11.4746C10.874 12.1549 11.0042 12.7962 11.2646 13.3984C11.5251 13.9974 11.8848 14.5264 12.3438 14.9854C12.8027 15.4443 13.3317 15.804 13.9307 16.0645C14.5329 16.3249 15.1742 16.4551 15.8545 16.4551ZM15.8545 15.791C15.2653 15.791 14.7103 15.6771 14.1895 15.4492C13.6686 15.2246 13.2096 14.9137 12.8125 14.5166C12.4154 14.1195 12.1029 13.6605 11.875 13.1396C11.6504 12.6188 11.5381 12.0638 11.5381 11.4746C11.5381 10.8854 11.6504 10.3304 11.875 9.80957C12.1029 9.28874 12.4137 8.82975 12.8076 8.43262C13.2048 8.03548 13.6637 7.72461 14.1846 7.5C14.7054 7.27214 15.2604 7.1582 15.8496 7.1582C16.4388 7.1582 16.9938 7.27214 17.5146 7.5C18.0355 7.72461 18.4945 8.03548 18.8916 8.43262C19.292 8.82975 19.6045 9.28874 19.8291 9.80957C20.057 10.3304 20.1709 10.8854 20.1709 11.4746C20.1709 12.0638 20.057 12.6188 19.8291 13.1396C19.6045 13.6605 19.2936 14.1195 18.8965 14.5166C18.4993 14.9137 18.0404 15.2246 17.5195 15.4492C16.9987 15.6771 16.4437 15.791 15.8545 15.791Z" fill="#0A84FF"/>
</svg>
