<svg width="23" height="21" viewBox="0 0 23 21" fill="none" xmlns="http://www.w3.org/2000/svg">
<path d="M17.2617 1.62598H9.11426C8.48145 1.62598 8.10352 1.48535 7.61133 1.08105L7.11914 0.676758C6.49512 0.166992 6.03809 0 5.11523 0H2.62793C0.975586 0 0 0.966797 0 2.82129V5.28223H20.1533V4.49121C20.1533 2.61035 19.1602 1.62598 17.2617 1.62598ZM2.8916 16.4004H17.4727C19.1689 16.4004 20.1533 15.416 20.1533 13.5352V6.54785H0V13.5352C0 15.4248 0.993164 16.4004 2.8916 16.4004Z" fill="#8E8E93"/>
<path d="M17 16.4551C17.6803 16.4551 18.32 16.3249 18.9189 16.0645C19.5212 15.804 20.0518 15.4443 20.5107 14.9854C20.9697 14.5264 21.3294 13.9974 21.5898 13.3984C21.8503 12.7962 21.9805 12.1549 21.9805 11.4746C21.9805 10.7943 21.8503 10.1546 21.5898 9.55566C21.3294 8.95345 20.9697 8.42285 20.5107 7.96387C20.0518 7.50488 19.5212 7.14518 18.9189 6.88477C18.3167 6.62435 17.6755 6.49414 16.9951 6.49414C16.3148 6.49414 15.6735 6.62435 15.0713 6.88477C14.4723 7.14518 13.9434 7.50488 13.4844 7.96387C13.0286 8.42285 12.6706 8.95345 12.4102 9.55566C12.1497 10.1546 12.0195 10.7943 12.0195 11.4746C12.0195 12.1549 12.1497 12.7962 12.4102 13.3984C12.6706 13.9974 13.0303 14.5264 13.4893 14.9854C13.9482 15.4443 14.4772 15.804 15.0762 16.0645C15.6784 16.3249 16.3197 16.4551 17 16.4551ZM17 15.625C16.4238 15.625 15.8851 15.5176 15.3838 15.3027C14.8825 15.0879 14.4414 14.7917 14.0605 14.4141C13.6829 14.0332 13.3867 13.5921 13.1719 13.0908C12.9603 12.5895 12.8545 12.0508 12.8545 11.4746C12.8545 10.8984 12.9603 10.3597 13.1719 9.8584C13.3867 9.3571 13.6829 8.91602 14.0605 8.53516C14.4382 8.1543 14.8776 7.85807 15.3789 7.64648C15.8802 7.43164 16.4189 7.32422 16.9951 7.32422C17.5713 7.32422 18.11 7.43164 18.6113 7.64648C19.1159 7.85807 19.557 8.1543 19.9346 8.53516C20.3154 8.91602 20.6133 9.3571 20.8281 9.8584C21.043 10.3597 21.1504 10.8984 21.1504 11.4746C21.1504 12.0508 21.043 12.5895 20.8281 13.0908C20.6165 13.5921 20.3203 14.0332 19.9395 14.4141C19.5586 14.7917 19.1175 15.0879 18.6162 15.3027C18.1149 15.5176 17.5762 15.625 17 15.625ZM14.7197 12.1826C14.915 12.1826 15.0811 12.1126 15.2178 11.9727C15.3577 11.8327 15.4277 11.665 15.4277 11.4697C15.4277 11.2744 15.3577 11.1068 15.2178 10.9668C15.0778 10.8268 14.9118 10.7568 14.7197 10.7568C14.5212 10.7568 14.3519 10.8268 14.2119 10.9668C14.0752 11.1068 14.0068 11.2744 14.0068 11.4697C14.0068 11.665 14.0752 11.8327 14.2119 11.9727C14.3519 12.1126 14.5212 12.1826 14.7197 12.1826ZM16.9951 12.1826C17.1904 12.1826 17.3581 12.1126 17.498 11.9727C17.638 11.8327 17.708 11.665 17.708 11.4697C17.708 11.2744 17.638 11.1068 17.498 10.9668C17.3581 10.8268 17.1904 10.7568 16.9951 10.7568C16.7998 10.7568 16.6322 10.8268 16.4922 10.9668C16.3555 11.1068 16.2871 11.2744 16.2871 11.4697C16.2871 11.665 16.3555 11.8327 16.4922 11.9727C16.6322 12.1126 16.7998 12.1826 16.9951 12.1826ZM19.2754 12.1826C19.4707 12.1826 19.6367 12.1126 19.7734 11.9727C19.9134 11.8327 19.9834 11.665 19.9834 11.4697C19.9834 11.2744 19.9134 11.1068 19.7734 10.9668C19.6367 10.8268 19.4707 10.7568 19.2754 10.7568C19.0801 10.7568 18.9124 10.8268 18.7725 10.9668C18.6325 11.1068 18.5625 11.2744 18.5625 11.4697C18.5625 11.665 18.6325 11.8327 18.7725 11.9727C18.9124 12.1126 19.0801 12.1826 19.2754 12.1826Z" fill="#64D2FF"/>
</svg>
