<svg idth="16px" height="16px" viewBox="0 0 24 24" fill="none" xmlns="http://www.w3.org/2000/svg">
<path d="M1.30078 15.2703L8.2617 19.155C8.7451 19.4275 9.2373 19.4275 9.7207 19.155L16.6816 15.2703C17.5342 14.7957 17.9561 14.3035 17.9561 13.0642V5.93628C17.9561 5.00464 17.6045 4.41577 16.8135 3.96753L10.6348 0.504642C9.5537 -0.101808 8.4375 -0.101808 7.3477 0.504642L1.16895 3.96753C0.386716 4.41577 0.0351562 5.00464 0.0351562 5.93628V13.0642C0.0351562 14.3035 0.457026 14.7957 1.30078 15.2703ZM13.1133 6.446L6.6182 2.81616L8.0596 2.00757C8.6924 1.64722 9.29 1.63843 9.9316 2.00757L15.4688 5.12769L13.1133 6.446ZM8.9912 8.7488L2.52246 5.12769L4.94824 3.7478L11.4346 7.3777L8.9912 8.7488ZM2.26758 13.908C1.78418 13.6355 1.61719 13.363 1.61719 12.8972V6.5164L8.165 10.2078V17.239L2.26758 13.908ZM15.7236 13.908L9.8174 17.239V10.2078L16.3652 6.5164V12.8972C16.3652 13.363 16.1982 13.6355 15.7236 13.908Z" fill="#FFD60A"/>
</svg>
