<svg width="23" height="17" viewBox="0 0 23 17" fill="none" xmlns="http://www.w3.org/2000/svg">
<path d="M17.2617 1.62598H9.11426C8.48145 1.62598 8.10352 1.48535 7.61133 1.08105L7.11914 0.676758C6.49512 0.166992 6.03809 0 5.11523 0H2.62793C0.975586 0 0 0.966797 0 2.82129V5.28223H20.1533V4.49121C20.1533 2.61035 19.1602 1.62598 17.2617 1.62598ZM2.8916 16.4004H17.4727C19.1689 16.4004 20.1533 15.416 20.1533 13.5352V6.54785H0V13.5352C0 15.4248 0.993164 16.4004 2.8916 16.4004Z" fill="#8E8E93"/>
<path d="M12 12.9432C12 13.9423 12.522 14.4472 13.5326 14.4472H14.4432C14.6265 14.6101 14.8985 14.7512 15.2317 14.8653L14.4821 15.2019C14.0712 15.3702 14.1267 16 14.682 16H20.3125C20.8733 16 20.9288 15.3648 20.5179 15.2019L19.7516 14.8598C20.0848 14.7512 20.3624 14.6101 20.5512 14.4472H21.4674C22.4725 14.4472 23 13.9423 23 12.9432V6.50938C23 5.49951 22.4669 5 21.4563 5H13.5381C12.5275 5 12 5.49951 12 6.50938V12.9432ZM13.0828 12.156V6.57453C13.0828 6.20533 13.2438 6.05874 13.6103 6.05874H21.3841C21.7506 6.05874 21.9172 6.20533 21.9172 6.57453V12.156C21.9172 12.5306 21.7506 12.6772 21.3841 12.6772H13.6103C13.2438 12.6772 13.0828 12.5306 13.0828 12.156ZM15.1928 8.31194C15.1928 8.654 15.3705 8.98519 15.5538 9.13722C15.6037 9.17522 15.6593 9.20237 15.7203 9.20237C15.8258 9.20237 15.9091 9.1155 15.9091 9.01234C15.9091 8.94176 15.8703 8.89832 15.8147 8.8386C15.6648 8.68657 15.5871 8.50197 15.5871 8.31194C15.5871 8.12192 15.6704 7.94817 15.8147 7.79072C15.8703 7.72557 15.9091 7.68756 15.9091 7.61155C15.9091 7.50839 15.8258 7.42695 15.7203 7.42695C15.6593 7.42695 15.6037 7.4541 15.5538 7.4921C15.3317 7.67127 15.1928 7.97532 15.1928 8.31194ZM14.5209 8.1382C14.6875 8.1382 14.8208 8.00247 14.8208 7.85044C14.8208 7.68756 14.6875 7.55183 14.5209 7.55183C14.3599 7.55183 14.2267 7.68756 14.2267 7.85044C14.2267 8.00247 14.3599 8.1382 14.5209 8.1382ZM14.5209 9.12636C14.6875 9.12636 14.8208 8.99062 14.8208 8.83317C14.8208 8.67572 14.6875 8.54541 14.5209 8.54541C14.3599 8.54541 14.2267 8.67572 14.2267 8.83317C14.2267 8.99062 14.3599 9.12636 14.5209 9.12636ZM14.4599 10.348H18.108C18.2468 10.348 18.3357 10.2611 18.3357 10.1199C18.3357 9.98963 18.2468 9.90819 18.108 9.90819H14.4599C14.321 9.90819 14.2267 9.98963 14.2267 10.1199C14.2267 10.2611 14.321 10.348 14.4599 10.348ZM14.4599 11.3036H17.0641C17.1918 11.3036 17.2862 11.2113 17.2862 11.0755C17.2862 10.9452 17.1918 10.8583 17.0641 10.8583H14.4599C14.321 10.8583 14.2267 10.9452 14.2267 11.0755C14.2267 11.2113 14.321 11.3036 14.4599 11.3036ZM20.5457 13.888C20.3402 13.888 20.1625 13.7142 20.1625 13.5079C20.1625 13.307 20.3402 13.1333 20.5457 13.1333C20.7622 13.1333 20.9344 13.307 20.9344 13.5079C20.9344 13.7142 20.7622 13.888 20.5457 13.888Z" fill="#F7D7A7"/>
</svg>
