<svg width="16px" height="16px" viewBox="0 0 24 24" fill="none" xmlns="http://www.w3.org/2000/svg">
<path d="M0.290039 13.416C0.290039 15.0332 1.11621 15.8506 2.71582 15.8506H4.15723C4.44727 16.1143 4.87793 16.3428 5.40527 16.5273L4.21875 17.0723C3.56836 17.3447 3.65625 18.3643 4.53516 18.3643H13.4473C14.335 18.3643 14.4229 17.3359 13.7725 17.0723L12.5596 16.5186C13.0869 16.3428 13.5264 16.1143 13.8252 15.8506H15.2754C16.8662 15.8506 17.7012 15.0332 17.7012 13.416V3.00098C17.7012 1.36621 16.8574 0.557617 15.2578 0.557617H2.72461C1.125 0.557617 0.290039 1.36621 0.290039 3.00098V13.416ZM2.00391 12.1416V3.10645C2.00391 2.50879 2.25879 2.27148 2.83887 2.27148H15.1436C15.7236 2.27148 15.9873 2.50879 15.9873 3.10645V12.1416C15.9873 12.748 15.7236 12.9854 15.1436 12.9854H2.83887C2.25879 12.9854 2.00391 12.748 2.00391 12.1416ZM5.34375 5.91895C5.34375 6.47266 5.625 7.00879 5.91504 7.25488C5.99414 7.31641 6.08203 7.36035 6.17871 7.36035C6.3457 7.36035 6.47754 7.21973 6.47754 7.05273C6.47754 6.93848 6.41602 6.86816 6.32812 6.77148C6.09082 6.52539 5.96777 6.22656 5.96777 5.91895C5.96777 5.61133 6.09961 5.33008 6.32812 5.0752C6.41602 4.96973 6.47754 4.9082 6.47754 4.78516C6.47754 4.61816 6.3457 4.48633 6.17871 4.48633C6.08203 4.48633 5.99414 4.53027 5.91504 4.5918C5.56348 4.88184 5.34375 5.37402 5.34375 5.91895ZM4.28027 5.6377C4.54395 5.6377 4.75488 5.41797 4.75488 5.17188C4.75488 4.9082 4.54395 4.68848 4.28027 4.68848C4.02539 4.68848 3.81445 4.9082 3.81445 5.17188C3.81445 5.41797 4.02539 5.6377 4.28027 5.6377ZM4.28027 7.2373C4.54395 7.2373 4.75488 7.01758 4.75488 6.7627C4.75488 6.50781 4.54395 6.29688 4.28027 6.29688C4.02539 6.29688 3.81445 6.50781 3.81445 6.7627C3.81445 7.01758 4.02539 7.2373 4.28027 7.2373ZM4.18359 9.21484H9.95801C10.1777 9.21484 10.3184 9.07422 10.3184 8.8457C10.3184 8.63477 10.1777 8.50293 9.95801 8.50293H4.18359C3.96387 8.50293 3.81445 8.63477 3.81445 8.8457C3.81445 9.07422 3.96387 9.21484 4.18359 9.21484ZM4.18359 10.7617H8.30566C8.50781 10.7617 8.65723 10.6123 8.65723 10.3926C8.65723 10.1816 8.50781 10.041 8.30566 10.041H4.18359C3.96387 10.041 3.81445 10.1816 3.81445 10.3926C3.81445 10.6123 3.96387 10.7617 4.18359 10.7617ZM13.8164 14.9453C13.4912 14.9453 13.21 14.6641 13.21 14.3301C13.21 14.0049 13.4912 13.7236 13.8164 13.7236C14.1592 13.7236 14.4316 14.0049 14.4316 14.3301C14.4316 14.6641 14.1592 14.9453 13.8164 14.9453Z" fill="#8E8E93"/>
</svg>
