<svg idth="16px" height="16px" viewBox="0 0 24 24" fill="none" xmlns="http://www.w3.org/2000/svg">
<path d="M0.669922 4.75684C0.669922 5.45964 0.877441 6.1486 1.29248 6.82373C1.70752 7.49886 2.30794 8.11035 3.09375 8.6582C3.87956 9.20605 4.83415 9.64323 5.95752 9.96973C7.08643 10.2907 8.36198 10.4512 9.78418 10.4512C11.151 10.4512 12.4211 10.2852 13.5942 9.95312C14.7729 9.62109 15.7884 9.14518 16.6406 8.52539C16.137 8.30404 15.7441 7.9554 15.4619 7.47949C14.8421 8.08268 14.0452 8.54199 13.0713 8.85742C12.0973 9.17285 11.0016 9.33057 9.78418 9.33057C8.5446 9.33057 7.4904 9.18945 6.62158 8.90723C5.7583 8.625 5.05827 8.2653 4.52148 7.82812C3.9847 7.39095 3.5918 6.93441 3.34277 6.4585C3.09928 5.98258 2.97754 5.55094 2.97754 5.16357C2.97754 4.7762 3.03841 4.43864 3.16016 4.15088C2.76725 3.92952 2.45182 3.6224 2.21387 3.22949C1.98145 2.83105 1.8597 2.40495 1.84863 1.95117C1.06283 2.68717 0.669922 3.6224 0.669922 4.75684ZM14.3413 12.2773C14.3413 11.569 14.2113 10.8053 13.9512 9.98633C13.6966 9.16732 13.3397 8.34277 12.8804 7.5127C12.4211 6.68262 11.8843 5.88851 11.27 5.13037C10.6558 4.37223 9.98893 3.69434 9.26953 3.09668C8.55013 2.49349 7.80583 2.01758 7.03662 1.66895C7.04215 1.70215 7.04492 1.73812 7.04492 1.77686C7.04492 1.81006 7.04492 1.84326 7.04492 1.87646C7.04492 2.32471 6.93424 2.75081 6.71289 3.15479C7.31608 3.3374 7.90267 3.63346 8.47266 4.04297C9.04818 4.44694 9.58219 4.93392 10.0747 5.50391C10.5728 6.06836 11.0072 6.68262 11.3779 7.34668C11.7542 8.00521 12.0475 8.68587 12.2578 9.38867C12.4681 10.0915 12.5732 10.7804 12.5732 11.4556C12.5732 12.103 12.457 12.673 12.2246 13.1655C11.9922 13.658 11.6768 14.0454 11.2783 14.3276C10.8854 14.6043 10.4372 14.7427 9.93359 14.7427C9.99447 15.0083 10.0249 15.2518 10.0249 15.4731C10.0249 16.0542 9.85059 16.5771 9.50195 17.042C9.54069 17.0475 9.58219 17.0503 9.62646 17.0503C9.67627 17.0503 9.72331 17.0503 9.76758 17.0503C10.653 17.0503 11.4388 16.8428 12.125 16.4277C12.8167 16.0182 13.359 15.4565 13.752 14.7427C14.1449 14.0233 14.3413 13.2015 14.3413 12.2773ZM14.9224 1.11279C14.1476 1.11279 13.3701 1.28711 12.5898 1.63574C11.8151 1.98438 11.0653 2.45752 10.3403 3.05518C9.6154 3.65283 8.94303 4.3335 8.32324 5.09717C7.70345 5.85531 7.15837 6.65218 6.68799 7.48779C6.22314 8.3234 5.86068 9.15348 5.60059 9.97803C5.34049 10.797 5.21045 11.5635 5.21045 12.2773C5.21045 12.7975 5.28239 13.3066 5.42627 13.8047C5.61442 13.528 5.88005 13.3066 6.22314 13.1406C6.56624 12.9746 6.88997 12.8861 7.19434 12.875C7.1224 12.6592 7.06706 12.4323 7.02832 12.1943C6.98958 11.9564 6.97021 11.7101 6.97021 11.4556C6.97021 10.714 7.10303 9.94759 7.36865 9.15625C7.63428 8.36491 7.99951 7.60124 8.46436 6.86523C8.93473 6.1237 9.47428 5.45964 10.083 4.87305C10.6973 4.28092 11.3503 3.81331 12.042 3.47021C12.7393 3.12158 13.4448 2.94727 14.1587 2.94727C15.1659 2.94727 15.8742 3.28483 16.2837 3.95996C16.7098 3.68327 17.1802 3.54492 17.6948 3.54492C18.0711 3.54492 18.4364 3.62516 18.7905 3.78564C18.5968 2.95557 18.1569 2.30257 17.4707 1.82666C16.79 1.35075 15.9406 1.11279 14.9224 1.11279ZM4.44678 3.50342C4.74561 3.50342 5.01676 3.43148 5.26025 3.2876C5.50928 3.14372 5.70573 2.95003 5.84961 2.70654C5.99902 2.45752 6.07373 2.18083 6.07373 1.87646C6.07373 1.42822 5.91325 1.04639 5.59229 0.730957C5.27686 0.409993 4.89502 0.249512 4.44678 0.249512C3.993 0.249512 3.60563 0.409993 3.28467 0.730957C2.96924 1.04639 2.81152 1.42822 2.81152 1.87646C2.81152 2.18083 2.88346 2.45752 3.02734 2.70654C3.17676 2.95003 3.37321 3.14372 3.6167 3.2876C3.86572 3.43148 4.14242 3.50342 4.44678 3.50342ZM17.6948 7.77832C17.9992 7.77832 18.2731 7.70638 18.5166 7.5625C18.7656 7.41309 18.9621 7.21663 19.106 6.97314C19.2498 6.72412 19.3218 6.4502 19.3218 6.15137C19.3218 5.84701 19.2471 5.57308 19.0977 5.32959C18.9538 5.08057 18.7573 4.88411 18.5083 4.74023C18.2648 4.59082 17.9937 4.51611 17.6948 4.51611C17.396 4.51611 17.1221 4.59082 16.873 4.74023C16.6296 4.88411 16.4331 5.08057 16.2837 5.32959C16.1398 5.57308 16.0679 5.84701 16.0679 6.15137C16.0679 6.4502 16.1398 6.72412 16.2837 6.97314C16.4331 7.21663 16.6296 7.41309 16.873 7.5625C17.1221 7.70638 17.396 7.77832 17.6948 7.77832ZM7.42676 17.1001C7.72559 17.1001 7.99674 17.0282 8.24023 16.8843C8.48926 16.7404 8.68571 16.5439 8.82959 16.2949C8.979 16.0514 9.05371 15.7775 9.05371 15.4731C9.05371 15.1743 8.979 14.9032 8.82959 14.6597C8.68571 14.4106 8.48926 14.2142 8.24023 14.0703C7.99674 13.9209 7.72559 13.8462 7.42676 13.8462C7.1224 13.8462 6.8457 13.9209 6.59668 14.0703C6.35319 14.2142 6.15951 14.4106 6.01562 14.6597C5.87174 14.9032 5.7998 15.1743 5.7998 15.4731C5.7998 15.772 5.87174 16.0431 6.01562 16.2866C6.15951 16.5356 6.35319 16.7321 6.59668 16.876C6.8457 17.0254 7.1224 17.1001 7.42676 17.1001Z" fill="#FF453A"/>
</svg>
