<svg width="16px" height="16px" viewBox="0 0 24 24" fill="none" xmlns="http://www.w3.org/2000/svg">
<path d="M7.66309 17.9756H18.7778C19.4972 17.9756 20.0451 17.793 20.4214 17.4277C20.7977 17.0625 20.9858 16.5174 20.9858 15.7925V15.2612L17.1426 11.6255C16.9821 11.4761 16.805 11.3654 16.6113 11.2935C16.4176 11.216 16.2184 11.1772 16.0137 11.1772C15.8089 11.1772 15.6152 11.2132 15.4326 11.2852C15.25 11.3516 15.0701 11.4622 14.8931 11.6172L11.5396 14.5889L10.2114 13.3853C10.0509 13.2358 9.88493 13.1279 9.71338 13.0615C9.54736 12.9951 9.37581 12.9619 9.19873 12.9619C9.03825 12.9619 8.87777 12.9979 8.71729 13.0698C8.56234 13.1362 8.40462 13.2358 8.24414 13.3687L5.44678 15.8008C5.44678 16.5202 5.63493 17.0625 6.01123 17.4277C6.38753 17.793 6.93815 17.9756 7.66309 17.9756ZM10.9419 11.8081C11.4289 11.8081 11.8439 11.6338 12.187 11.2852C12.5301 10.9365 12.7017 10.5187 12.7017 10.0317C12.7017 9.71631 12.6214 9.42578 12.4609 9.16016C12.306 8.889 12.0957 8.67318 11.8301 8.5127C11.5645 8.35221 11.2684 8.27197 10.9419 8.27197C10.4604 8.27197 10.0482 8.44629 9.70508 8.79492C9.36198 9.14355 9.19043 9.55583 9.19043 10.0317C9.19043 10.5187 9.36198 10.9365 9.70508 11.2852C10.0482 11.6338 10.4604 11.8081 10.9419 11.8081ZM1.84424 13.7173C1.99919 14.5584 2.32568 15.1533 2.82373 15.502C3.32178 15.8451 3.99967 15.9419 4.85742 15.7925L5.88672 15.6182V14.2651L4.6499 14.4727C4.2404 14.5446 3.9056 14.492 3.64551 14.3149C3.39095 14.1379 3.22493 13.839 3.14746 13.4185L1.81104 5.84814C1.73356 5.42204 1.78613 5.08171 1.96875 4.82715C2.15137 4.56706 2.44743 4.40104 2.85693 4.3291L13.8887 2.38672C14.2926 2.32031 14.6247 2.37565 14.8848 2.55273C15.1449 2.72428 15.3136 3.02311 15.3911 3.44922L15.8228 5.86475H17.1758L16.686 3.15039C16.5366 2.30924 16.2101 1.71436 15.7065 1.36572C15.2085 1.01709 14.5334 0.91748 13.6812 1.06689L2.59961 3.01758C1.7474 3.17253 1.14421 3.49902 0.790039 3.99707C0.435872 4.49512 0.333496 5.16471 0.48291 6.00586L1.84424 13.7173ZM7.63818 18.4155H18.9771C19.8403 18.4155 20.4878 18.1997 20.9194 17.7681C21.3566 17.342 21.5752 16.7 21.5752 15.8423V8.01465C21.5752 7.16243 21.3566 6.52051 20.9194 6.08887C20.4878 5.65723 19.8403 5.44141 18.9771 5.44141H7.63818C6.76383 5.44141 6.11084 5.65723 5.6792 6.08887C5.24756 6.51497 5.03174 7.1569 5.03174 8.01465V15.8423C5.03174 16.7 5.24756 17.342 5.6792 17.7681C6.11084 18.1997 6.76383 18.4155 7.63818 18.4155ZM7.65479 17.0791C7.23975 17.0791 6.92155 16.9684 6.7002 16.7471C6.47884 16.5312 6.36816 16.2075 6.36816 15.7759V8.08936C6.36816 7.65771 6.47884 7.33122 6.7002 7.10986C6.92155 6.88851 7.23975 6.77783 7.65479 6.77783H18.9521C19.3617 6.77783 19.6771 6.88851 19.8984 7.10986C20.1253 7.33122 20.2388 7.65771 20.2388 8.08936V15.7759C20.2388 16.2075 20.1253 16.5312 19.8984 16.7471C19.6771 16.9684 19.3617 17.0791 18.9521 17.0791H7.65479Z" fill="#AF52DE"/>
</svg>
