<svg width="23" height="18" viewBox="0 0 23 18" fill="none" xmlns="http://www.w3.org/2000/svg">
<path d="M17.2617 1.62598H9.11426C8.48145 1.62598 8.10352 1.48535 7.61133 1.08105L7.11914 0.676758C6.49512 0.166992 6.03809 0 5.11523 0H2.62793C0.975586 0 0 0.966797 0 2.82129V5.28223H20.1533V4.49121C20.1533 2.61035 19.1602 1.62598 17.2617 1.62598ZM2.8916 16.4004H17.4727C19.1689 16.4004 20.1533 15.416 20.1533 13.5352V6.54785H0V13.5352C0 15.4248 0.993164 16.4004 2.8916 16.4004Z" fill="#8E8E93"/>
<path d="M20.2559 15.1992L17.3555 12.4746C17.2448 12.377 17.1276 12.3021 17.0039 12.25C16.8802 12.1979 16.7516 12.1719 16.6182 12.1719C16.4847 12.1719 16.3577 12.1963 16.2373 12.2451C16.1169 12.2939 15.9997 12.3672 15.8857 12.4648L13.6787 14.4375L12.7754 13.6221C12.6745 13.5309 12.5671 13.4626 12.4531 13.417C12.3424 13.3682 12.2301 13.3438 12.1162 13.3438C12.0055 13.3438 11.8981 13.3665 11.7939 13.4121C11.6898 13.4577 11.5872 13.526 11.4863 13.6172L9.62598 15.2969C9.64225 15.7396 9.74154 16.0716 9.92383 16.293C10.1061 16.5176 10.3796 16.6299 10.7441 16.6299H18.9277C19.3704 16.6299 19.7025 16.5078 19.9238 16.2637C20.1452 16.0228 20.2559 15.668 20.2559 15.1992ZM12.8828 12.5234C13.0944 12.5234 13.2865 12.473 13.459 12.3721C13.6315 12.2679 13.7699 12.1279 13.874 11.9521C13.9782 11.7764 14.0303 11.5827 14.0303 11.3711C14.0303 11.1628 13.9782 10.9707 13.874 10.7949C13.7699 10.6191 13.6315 10.4792 13.459 10.375C13.2865 10.2708 13.0944 10.2188 12.8828 10.2188C12.6712 10.2188 12.4775 10.2708 12.3018 10.375C12.1292 10.4792 11.9909 10.6191 11.8867 10.7949C11.7826 10.9707 11.7305 11.1628 11.7305 11.3711C11.7305 11.5827 11.7826 11.7764 11.8867 11.9521C11.9909 12.1279 12.1292 12.2679 12.3018 12.3721C12.4775 12.473 12.6712 12.5234 12.8828 12.5234ZM10.7783 16.9717H19.2256C19.7399 16.9717 20.124 16.8447 20.3779 16.5908C20.6318 16.3402 20.7588 15.9642 20.7588 15.4629V9.49609C20.7588 8.99479 20.6318 8.61719 20.3779 8.36328C20.124 8.10938 19.7399 7.98242 19.2256 7.98242H10.7783C10.2673 7.98242 9.88314 8.10938 9.62598 8.36328C9.37207 8.61393 9.24512 8.99154 9.24512 9.49609V15.4629C9.24512 15.9642 9.37207 16.3402 9.62598 16.5908C9.88314 16.8447 10.2673 16.9717 10.7783 16.9717ZM10.7881 16.1855C10.5439 16.1855 10.3568 16.1221 10.2266 15.9951C10.0964 15.8649 10.0312 15.6729 10.0312 15.4189V9.54004C10.0312 9.28613 10.0964 9.09408 10.2266 8.96387C10.3568 8.83366 10.5439 8.76855 10.7881 8.76855H19.2158C19.4567 8.76855 19.6423 8.83366 19.7725 8.96387C19.9059 9.09408 19.9727 9.28613 19.9727 9.54004V15.4189C19.9727 15.6729 19.9059 15.8649 19.7725 15.9951C19.6423 16.1221 19.4567 16.1855 19.2158 16.1855H10.7881Z" fill="#5E5CE6"/>
</svg>
