<svg idth="16px" height="16px" viewBox="0 0 24 24" fill="none" xmlns="http://www.w3.org/2000/svg">
<path d="M6.07568 16.2324C6.07568 17.0902 6.2915 17.7321 6.72314 18.1582C7.16032 18.5898 7.81331 18.8057 8.68213 18.8057H17.0161C17.8849 18.8057 18.5352 18.5898 18.9668 18.1582C19.404 17.7321 19.6226 17.0902 19.6226 16.2324V7.83203C19.6226 6.97428 19.404 6.33236 18.9668 5.90625C18.5352 5.47461 17.8849 5.25879 17.0161 5.25879H8.68213C7.81331 5.25879 7.16032 5.47461 6.72314 5.90625C6.2915 6.33236 6.07568 6.97428 6.07568 7.83203V16.2324ZM8.68213 4.12988H13.5796C13.2033 3.39941 12.7108 2.75749 12.1021 2.2041C11.4933 1.65072 10.7988 1.21908 10.0186 0.90918C9.24382 0.59375 8.41927 0.436035 7.54492 0.436035C6.60417 0.436035 5.72152 0.613118 4.89697 0.967285C4.07796 1.32145 3.35579 1.8112 2.73047 2.43652C2.10514 3.05632 1.6154 3.77848 1.26123 4.60303C0.912598 5.42204 0.738281 6.30192 0.738281 7.24268C0.738281 8.18896 0.915365 9.07715 1.26953 9.90723C1.62923 10.7373 2.12451 11.465 2.75537 12.0903C3.39176 12.7157 4.12223 13.1999 4.94678 13.543V7.83203C4.94678 7.05176 5.09342 6.38493 5.38672 5.83154C5.68001 5.27816 6.10612 4.85758 6.66504 4.56982C7.22396 4.27653 7.89632 4.12988 8.68213 4.12988Z" fill="#AF52DE"/>
</svg>
