<svg width="26" height="17" viewBox="0 0 26 17" fill="none" xmlns="http://www.w3.org/2000/svg">
<path d="M17.2617 1.62598H9.11426C8.48145 1.62598 8.10352 1.48535 7.61133 1.08105L7.11914 0.676758C6.49512 0.166992 6.03809 0 5.11523 0H2.62793C0.975586 0 0 0.966797 0 2.82129V5.28223H20.1533V4.49121C20.1533 2.61035 19.1602 1.62598 17.2617 1.62598ZM2.8916 16.4004H17.4727C19.1689 16.4004 20.1533 15.416 20.1533 13.5352V6.54785H0V13.5352C0 15.4248 0.993164 16.4004 2.8916 16.4004Z" fill="#8E8E93"/>
<path d="M17.055 15.976C17.4026 16.0696 17.7192 15.8825 17.8229 15.5344L20.3757 6.76986C20.4742 6.44256 20.3134 6.12045 19.9657 6.02693C19.6233 5.93342 19.3224 6.08408 19.2082 6.46854L16.6659 15.1967C16.5621 15.55 16.697 15.8773 17.055 15.976ZM11 10.9937C11 11.1703 11.0778 11.3522 11.2283 11.482L14.5853 14.5161C14.8603 14.7655 15.2286 14.7603 15.4569 14.5006C15.6904 14.2408 15.6593 13.8667 15.3947 13.6277L12.4891 10.9937L15.3947 8.35445C15.6593 8.11546 15.6904 7.74659 15.4569 7.48683C15.2286 7.22706 14.8603 7.22186 14.5853 7.47124L11.2283 10.5001C11.0778 10.6352 11 10.817 11 10.9937ZM26 10.9937C26 10.817 25.9222 10.6352 25.7717 10.5001L22.4148 7.47124C22.1397 7.22186 21.7714 7.22706 21.5431 7.48683C21.3096 7.74659 21.3407 8.11546 21.6053 8.35445L24.5109 10.9937L21.6053 13.6277C21.3407 13.8667 21.3096 14.2408 21.5431 14.5006C21.7714 14.7603 22.1397 14.7655 22.4148 14.5161L25.7717 11.482C25.9222 11.3522 26 11.1703 26 10.9937Z" fill="#04DE71"/>
</svg>
