<svg width="16px" height="16px" viewBox="0 0 24 24" fill="none" xmlns="http://www.w3.org/2000/svg">
<path d="M0.786133 11.3062C1.06283 11.7599 1.42806 12.2497 1.88184 12.7754C2.33561 13.2956 2.86686 13.8102 3.47559 14.3193C4.08431 14.8285 4.76221 15.2905 5.50928 15.7056C6.26188 16.1261 7.07536 16.4609 7.94971 16.71C8.82406 16.959 9.75098 17.0835 10.7305 17.0835C11.3558 17.0835 11.9009 17.0337 12.3657 16.9341C12.8306 16.84 13.2428 16.7183 13.6025 16.5688C13.9622 16.425 14.2943 16.2811 14.5986 16.1372C14.9085 15.9933 15.2157 15.8716 15.52 15.772C15.8299 15.6779 16.1675 15.6309 16.5327 15.6309C17.0363 15.6309 17.4458 15.7194 17.7612 15.8965C18.0767 16.0791 18.3201 16.2811 18.4917 16.5024C18.6688 16.7293 18.7961 16.9092 18.8735 17.042C18.9067 17.1084 18.9482 17.1499 18.998 17.1665C19.0479 17.1831 19.0894 17.1305 19.1226 17.0088C19.1447 16.9202 19.1641 16.8179 19.1807 16.7017C19.1973 16.591 19.2056 16.4637 19.2056 16.3198C19.2056 16.0542 19.1668 15.7139 19.0894 15.2988C19.0119 14.8893 18.8597 14.4328 18.6328 13.9292C18.4115 13.4201 18.0794 12.8888 17.6367 12.3354C17.7806 11.9259 17.8691 11.5137 17.9023 11.0986C17.9411 10.6836 17.9604 10.3433 17.9604 10.0776C17.9604 9.47445 17.8636 8.77995 17.6699 7.99414C17.4762 7.2028 17.1553 6.38102 16.707 5.52881C16.2643 4.67106 15.6667 3.82992 14.9141 3.00537C14.1615 2.18083 13.2207 1.42822 12.0918 0.747559C12.4072 1.19027 12.7337 1.71045 13.0713 2.30811C13.4089 2.90576 13.6966 3.58366 13.9346 4.3418C14.1725 5.09993 14.2915 5.94661 14.2915 6.88184C14.2915 7.38542 14.2362 7.889 14.1255 8.39258C14.0148 8.89616 13.9014 9.2863 13.7852 9.56299C13.2926 9.28076 12.7282 8.91276 12.0918 8.45898C11.4554 8.00521 10.7913 7.50439 10.0996 6.95654C9.40788 6.40869 8.72445 5.84977 8.04932 5.27979C7.37972 4.70426 6.75993 4.15641 6.18994 3.63623C5.62549 3.11051 5.15511 2.64844 4.77881 2.25C5.53141 3.40658 6.35042 4.52165 7.23584 5.59521C8.12126 6.66325 9.05648 7.74512 10.0415 8.84082C8.71338 7.99967 7.42952 7.11149 6.18994 6.17627C4.95036 5.23551 3.75505 4.24772 2.604 3.21289C3.71077 4.82324 4.97526 6.41423 6.39746 7.98584C7.81966 9.55192 9.45215 11.0793 11.2949 12.5679C10.9463 12.7616 10.5811 12.9386 10.1992 13.0991C9.82292 13.2541 9.39958 13.3786 8.9292 13.4727C8.45882 13.5667 7.9165 13.6138 7.30225 13.6138C6.73779 13.6138 6.1512 13.5529 5.54248 13.4312C4.93929 13.3039 4.3444 13.1323 3.75781 12.9165C3.17676 12.7007 2.62891 12.4544 2.11426 12.1777C1.60514 11.901 1.16243 11.6105 0.786133 11.3062Z" fill="#D15442"/>
</svg>
