<svg width="16px" height="16px" viewBox="0 0 24 24" fill="none" xmlns="http://www.w3.org/2000/svg">
<path d="M0.595215 6.35498H19.4961V5.01855H0.595215V6.35498ZM0.595215 11.0117H19.4961V9.67529H0.595215V11.0117ZM9.33594 15.2783H10.6724V0.751953H9.33594V15.2783ZM2.81982 15.6519H17.1802C18.0545 15.6519 18.7075 15.436 19.1392 15.0044C19.5708 14.5783 19.7866 13.9391 19.7866 13.0869V2.94336C19.7866 2.09115 19.5708 1.44922 19.1392 1.01758C18.7075 0.585938 18.0545 0.370117 17.1802 0.370117H2.81982C1.95101 0.370117 1.29801 0.585938 0.86084 1.01758C0.429199 1.44368 0.213379 2.08561 0.213379 2.94336V13.0869C0.213379 13.9391 0.429199 14.5783 0.86084 15.0044C1.29801 15.436 1.95101 15.6519 2.81982 15.6519ZM2.83643 14.3154C2.42139 14.3154 2.10319 14.2075 1.88184 13.9917C1.66048 13.7703 1.5498 13.4438 1.5498 13.0122V3.01807C1.5498 2.58643 1.66048 2.25993 1.88184 2.03857C2.10319 1.81722 2.42139 1.70654 2.83643 1.70654H17.1636C17.5731 1.70654 17.8885 1.81722 18.1099 2.03857C18.3368 2.25993 18.4502 2.58643 18.4502 3.01807V13.0122C18.4502 13.4438 18.3368 13.7703 18.1099 13.9917C17.8885 14.2075 17.5731 14.3154 17.1636 14.3154H2.83643Z" fill="#8E8E93"/>
</svg>
