<svg width="22" height="14" viewBox="0 0 22 14" fill="none" xmlns="http://www.w3.org/2000/svg">
<path d="M10.6748 13.2373C10.0771 13.2373 9.76074 12.9912 9.56738 12.3584L8.60059 9.65137H3.59961L2.63281 12.3584C2.43945 12.9912 2.12305 13.2373 1.52539 13.2373C0.901367 13.2373 0.488281 12.8594 0.488281 12.2705C0.488281 12.0508 0.532227 11.8662 0.611328 11.6201L4.4873 1.16113C4.75977 0.396484 5.26953 0.0361328 6.08691 0.0361328C6.87793 0.0361328 7.3877 0.396484 7.66016 1.15234L11.5537 11.6729C11.6328 11.9014 11.668 12.0947 11.668 12.2881C11.668 12.877 11.29 13.2373 10.6748 13.2373ZM8.09082 7.99902L6.12207 2.30371H6.06055L4.0918 7.99902H8.09082ZM20.5977 13.2373C20.1318 13.2373 19.8418 12.9912 19.6748 12.4287L19.0508 10.5742H15.6318L15.0166 12.4375C14.8496 13.0088 14.5596 13.2373 14.0674 13.2373C13.5312 13.2373 13.1621 12.8857 13.1621 12.376C13.1621 12.1738 13.2061 11.9717 13.2939 11.7344L15.9482 4.62402C16.2119 3.91211 16.6602 3.57812 17.3545 3.57812C18.0225 3.57812 18.4707 3.91211 18.7256 4.62402L21.3887 11.7344C21.4678 11.9541 21.5117 12.1826 21.5117 12.376C21.5117 12.9033 21.1602 13.2373 20.5977 13.2373ZM18.6201 9.17676L17.4512 5.50293H17.2666L16.0713 9.17676H18.6201Z" fill="#C30B1D"/>
</svg>
