<svg width="16px" height="16px" viewBox="0 0 24 24" fill="none" xmlns="http://www.w3.org/2000/svg">
<path d="M0.782227 1.56445H17.376C17.8154 1.56445 18.167 1.22168 18.167 0.782227C18.167 0.351562 17.8154 0 17.376 0H0.782227C0.342773 0 0 0.351562 0 0.782227C0 1.22168 0.342773 1.56445 0.782227 1.56445ZM0.782227 6.16992H10.6348C11.0742 6.16992 11.4258 5.82715 11.4258 5.3877C11.4258 4.94824 11.0742 4.60547 10.6348 4.60547H0.782227C0.342773 4.60547 0 4.94824 0 5.3877C0 5.82715 0.342773 6.16992 0.782227 6.16992ZM0.782227 10.7754H17.376C17.8154 10.7754 18.167 10.4326 18.167 9.99316C18.167 9.55371 17.8154 9.21094 17.376 9.21094H0.782227C0.342773 9.21094 0 9.55371 0 9.99316C0 10.4326 0.342773 10.7754 0.782227 10.7754ZM0.782227 15.3809H10.6348C11.0742 15.3809 11.4258 15.0293 11.4258 14.5986C11.4258 14.1592 11.0742 13.8164 10.6348 13.8164H0.782227C0.342773 13.8164 0 14.1592 0 14.5986C0 15.0293 0.342773 15.3809 0.782227 15.3809Z" fill="#8E8E93"/>
</svg>
