<svg width="24" height="21" viewBox="0 0 24 21" fill="none" xmlns="http://www.w3.org/2000/svg">
<path d="M17.2617 1.62598H9.11426C8.48145 1.62598 8.10352 1.48535 7.61133 1.08105L7.11914 0.676758C6.49512 0.166992 6.03809 0 5.11523 0H2.62793C0.975586 0 0 0.966797 0 2.82129V5.28223H20.1533V4.49121C20.1533 2.61035 19.1602 1.62598 17.2617 1.62598ZM2.8916 16.4004H17.4727C19.1689 16.4004 20.1533 15.416 20.1533 13.5352V6.54785H0V13.5352C0 15.4248 0.993164 16.4004 2.8916 16.4004Z" fill="#8E8E93"/>
<path d="M17.4346 16.3184C18.1214 16.3184 18.7204 16.2419 19.2314 16.0889C19.7458 15.9391 20.1462 15.7292 20.4326 15.459C20.7191 15.1888 20.8623 14.8747 20.8623 14.5166C20.8623 14.2757 20.82 14.0755 20.7354 13.916C20.654 13.7565 20.5596 13.6182 20.4521 13.501C20.3447 13.3805 20.2487 13.265 20.1641 13.1543C20.0827 13.0404 20.042 12.9134 20.042 12.7734C20.042 12.6432 20.1104 12.526 20.2471 12.4219C20.3838 12.3145 20.5596 12.2087 20.7744 12.1045C20.9893 12.0003 21.2171 11.8864 21.458 11.7627C21.6989 11.6357 21.9268 11.486 22.1416 11.3135C22.3597 11.141 22.5371 10.9342 22.6738 10.6934C22.8105 10.4525 22.8789 10.1644 22.8789 9.8291C22.8789 9.33431 22.7568 8.88509 22.5127 8.48145C22.2686 8.0778 21.9219 7.73112 21.4727 7.44141C21.0267 7.15169 20.4912 6.92871 19.8662 6.77246C19.2445 6.61621 18.5544 6.53809 17.7959 6.53809C16.7998 6.53809 15.8916 6.6569 15.0713 6.89453C14.2542 7.13216 13.5495 7.4707 12.957 7.91016C12.3678 8.34635 11.9137 8.87044 11.5947 9.48242C11.2757 10.0911 11.1162 10.7682 11.1162 11.5137C11.1162 12.2298 11.2676 12.8825 11.5703 13.4717C11.873 14.0609 12.3044 14.5687 12.8643 14.9951C13.4242 15.4183 14.0898 15.7438 14.8613 15.9717C15.6361 16.2028 16.4938 16.3184 17.4346 16.3184ZM17.3271 14.4531C17.0895 14.4531 16.873 14.3945 16.6777 14.2773C16.4824 14.1602 16.3245 14.0039 16.2041 13.8086C16.0869 13.61 16.0283 13.3919 16.0283 13.1543C16.0283 12.9167 16.0869 12.7002 16.2041 12.5049C16.3245 12.3063 16.4824 12.1484 16.6777 12.0312C16.873 11.9141 17.0895 11.8555 17.3271 11.8555C17.568 11.8555 17.7861 11.9141 17.9814 12.0312C18.18 12.1484 18.3379 12.3063 18.4551 12.5049C18.5723 12.7002 18.6309 12.9167 18.6309 13.1543C18.6309 13.3919 18.5723 13.61 18.4551 13.8086C18.3379 14.0039 18.18 14.1602 17.9814 14.2773C17.7861 14.3945 17.568 14.4531 17.3271 14.4531ZM13.4258 12.1094C13.2044 12.1094 13.0124 12.0296 12.8496 11.8701C12.6901 11.7074 12.6104 11.5137 12.6104 11.2891C12.6104 11.0742 12.6917 10.887 12.8545 10.7275C13.0205 10.5648 13.2109 10.4834 13.4258 10.4834C13.6504 10.4834 13.8408 10.5615 13.9971 10.7178C14.1566 10.874 14.2363 11.0645 14.2363 11.2891C14.2363 11.5137 14.1566 11.7074 13.9971 11.8701C13.8408 12.0296 13.6504 12.1094 13.4258 12.1094ZM15.3008 10.3809C15.0143 10.3809 14.7702 10.2832 14.5684 10.0879C14.3665 9.88932 14.2656 9.64518 14.2656 9.35547C14.2656 9.07552 14.3665 8.83789 14.5684 8.64258C14.7702 8.44401 15.0143 8.34473 15.3008 8.34473C15.5807 8.34473 15.82 8.44401 16.0186 8.64258C16.2204 8.83789 16.3213 9.07552 16.3213 9.35547C16.3213 9.64518 16.2204 9.88932 16.0186 10.0879C15.82 10.2832 15.5807 10.3809 15.3008 10.3809ZM17.9033 9.60938C17.6787 9.60938 17.4834 9.52962 17.3174 9.37012C17.1546 9.21061 17.0732 9.01693 17.0732 8.78906C17.0732 8.5612 17.1546 8.36751 17.3174 8.20801C17.4834 8.0485 17.6787 7.96875 17.9033 7.96875C18.1312 7.96875 18.3249 8.0485 18.4844 8.20801C18.6439 8.36751 18.7236 8.5612 18.7236 8.78906C18.7236 9.01693 18.6439 9.21061 18.4844 9.37012C18.3249 9.52962 18.1312 9.60938 17.9033 9.60938ZM20.2031 10.0391C20.0176 10.0391 19.8581 9.97559 19.7246 9.84863C19.5944 9.71842 19.5293 9.56055 19.5293 9.375C19.5293 9.18945 19.5944 9.03158 19.7246 8.90137C19.8581 8.77116 20.0176 8.70605 20.2031 8.70605C20.3854 8.70605 20.54 8.77116 20.667 8.90137C20.7972 9.03158 20.8623 9.18945 20.8623 9.375C20.8623 9.56055 20.7972 9.71842 20.667 9.84863C20.54 9.97559 20.3854 10.0391 20.2031 10.0391Z" fill="#F7D7A7"/>
</svg>
