<svg width="16" height="16" viewBox="0 0 16 16" fill="none" xmlns="http://www.w3.org/2000/svg">
<path d="M2.96143 15.6602H13.0303C13.8991 15.6602 14.5493 15.4443 14.981 15.0127C15.4181 14.5866 15.6367 13.9447 15.6367 13.0869V2.95166C15.6367 2.09391 15.4181 1.45199 14.981 1.02588C14.5493 0.594238 13.8991 0.378418 13.0303 0.378418H2.96143C2.09261 0.378418 1.43962 0.594238 1.00244 1.02588C0.570801 1.45199 0.35498 2.09391 0.35498 2.95166V13.0869C0.35498 13.9447 0.570801 14.5866 1.00244 15.0127C1.43962 15.4443 2.09261 15.6602 2.96143 15.6602ZM2.97803 14.3237C2.56299 14.3237 2.24479 14.2158 2.02344 14C1.80208 13.7786 1.69141 13.4521 1.69141 13.0205V3.01807C1.69141 2.58643 1.80208 2.2627 2.02344 2.04688C2.24479 1.82552 2.56299 1.71484 2.97803 1.71484H13.0137C13.4232 1.71484 13.7386 1.82552 13.96 2.04688C14.1868 2.2627 14.3003 2.58643 14.3003 3.01807V13.0205C14.3003 13.4521 14.1868 13.7786 13.96 14C13.7386 14.2158 13.4232 14.3237 13.0137 14.3237H2.97803ZM7.09521 11.9414C7.37744 11.9414 7.60156 11.8141 7.76758 11.5596L11.561 5.58301C11.6108 5.50553 11.6551 5.42253 11.6938 5.33398C11.7381 5.23991 11.7603 5.14583 11.7603 5.05176C11.7603 4.86914 11.6911 4.72249 11.5527 4.61182C11.4144 4.50114 11.2594 4.4458 11.0879 4.4458C10.8555 4.4458 10.6618 4.57031 10.5068 4.81934L7.06201 10.3477L5.42676 8.23096C5.32715 8.09814 5.22754 8.0096 5.12793 7.96533C5.03385 7.91553 4.92871 7.89062 4.8125 7.89062C4.63542 7.89062 4.48324 7.95703 4.35596 8.08984C4.23421 8.21712 4.17334 8.37207 4.17334 8.55469C4.17334 8.72624 4.23698 8.89779 4.36426 9.06934L6.38965 11.5596C6.49479 11.6924 6.6027 11.7892 6.71338 11.8501C6.82959 11.911 6.95687 11.9414 7.09521 11.9414Z" fill="#32D74B"/>
</svg>
