<svg width="23" height="21" viewBox="0 0 23 21" fill="none" xmlns="http://www.w3.org/2000/svg">
<path d="M17.2617 1.62598H9.11426C8.48145 1.62598 8.10352 1.48535 7.61133 1.08105L7.11914 0.676758C6.49512 0.166992 6.03809 0 5.11523 0H2.62793C0.975586 0 0 0.966797 0 2.82129V5.28223H20.1533V4.49121C20.1533 2.61035 19.1602 1.62598 17.2617 1.62598ZM2.8916 16.4004H17.4727C19.1689 16.4004 20.1533 15.416 20.1533 13.5352V6.54785H0V13.5352C0 15.4248 0.993164 16.4004 2.8916 16.4004Z" fill="#8E8E93"/>
<path d="M15.2637 16.4795H19.7412C20.0895 16.4795 20.3727 16.3753 20.5908 16.167C20.8089 15.9587 20.9261 15.6787 20.9424 15.3271L21.2793 8.22754H21.8652C21.9661 8.22754 22.0508 8.19173 22.1191 8.12012C22.1908 8.04525 22.2266 7.95736 22.2266 7.85645C22.2266 7.75553 22.1908 7.66927 22.1191 7.59766C22.0475 7.52604 21.9629 7.49023 21.8652 7.49023H13.1396C13.042 7.49023 12.9557 7.52767 12.8809 7.60254C12.8092 7.67415 12.7734 7.75879 12.7734 7.85645C12.7734 7.95736 12.8092 8.04525 12.8809 8.12012C12.9557 8.19173 13.042 8.22754 13.1396 8.22754H13.7256L14.0625 15.332C14.0788 15.6836 14.1943 15.9619 14.4092 16.167C14.6273 16.3753 14.9121 16.4795 15.2637 16.4795ZM15.332 15.7422C15.1921 15.7422 15.0749 15.695 14.9805 15.6006C14.8861 15.5062 14.8356 15.3874 14.8291 15.2441L14.4873 8.22754H20.4932L20.1709 15.2441C20.1644 15.3906 20.1139 15.5094 20.0195 15.6006C19.9251 15.695 19.8063 15.7422 19.6631 15.7422H15.332ZM16.0547 14.9072C16.1458 14.9072 16.2191 14.8812 16.2744 14.8291C16.3298 14.7738 16.3574 14.7038 16.3574 14.6191L16.2061 9.39453C16.2061 9.3099 16.1768 9.24154 16.1182 9.18945C16.0628 9.13737 15.9912 9.11133 15.9033 9.11133C15.8122 9.11133 15.7373 9.139 15.6787 9.19434C15.6234 9.24642 15.5973 9.31478 15.6006 9.39941L15.7471 14.6191C15.7503 14.707 15.7796 14.777 15.835 14.8291C15.8903 14.8812 15.9635 14.9072 16.0547 14.9072ZM17.5 14.9072C17.5944 14.9072 17.6709 14.8812 17.7295 14.8291C17.7881 14.7738 17.8174 14.7038 17.8174 14.6191V9.39941C17.8174 9.31478 17.7881 9.24642 17.7295 9.19434C17.6709 9.139 17.5944 9.11133 17.5 9.11133C17.4089 9.11133 17.334 9.139 17.2754 9.19434C17.2168 9.24642 17.1875 9.31478 17.1875 9.39941V14.6191C17.1875 14.7038 17.2168 14.7738 17.2754 14.8291C17.334 14.8812 17.4089 14.9072 17.5 14.9072ZM18.9502 14.9072C19.0381 14.9072 19.1097 14.8812 19.165 14.8291C19.2204 14.777 19.2497 14.707 19.2529 14.6191L19.3994 9.39941C19.4027 9.31478 19.3766 9.24642 19.3213 9.19434C19.266 9.139 19.1911 9.11133 19.0967 9.11133C19.0088 9.11133 18.9372 9.13737 18.8818 9.18945C18.8265 9.24154 18.7972 9.31152 18.7939 9.39941L18.6475 14.6191C18.6442 14.7038 18.6702 14.7738 18.7256 14.8291C18.7809 14.8812 18.8558 14.9072 18.9502 14.9072ZM15.3564 7.83691H16.1328V6.79199C16.1328 6.65527 16.1768 6.5446 16.2646 6.45996C16.3558 6.37533 16.4746 6.33301 16.6211 6.33301H18.3691C18.5156 6.33301 18.6328 6.37533 18.7207 6.45996C18.8118 6.5446 18.8574 6.65527 18.8574 6.79199V7.83691H19.6338V6.74316C19.6338 6.3916 19.5247 6.11491 19.3066 5.91309C19.0918 5.70801 18.7972 5.60547 18.4229 5.60547H16.5674C16.193 5.60547 15.8968 5.70801 15.6787 5.91309C15.4639 6.11491 15.3564 6.3916 15.3564 6.74316V7.83691Z" fill="#FF453A"/>
</svg>
