<svg width="24" height="17" viewBox="0 0 24 17" fill="none" xmlns="http://www.w3.org/2000/svg">
<path d="M17.2617 1.62598H9.11426C8.48145 1.62598 8.10352 1.48535 7.61133 1.08105L7.11914 0.676758C6.49512 0.166992 6.03809 0 5.11523 0H2.62793C0.975586 0 0 0.966797 0 2.82129V5.28223H20.1533V4.49121C20.1533 2.61035 19.1602 1.62598 17.2617 1.62598ZM2.8916 16.4004H17.4727C19.1689 16.4004 20.1533 15.416 20.1533 13.5352V6.54785H0V13.5352C0 15.4248 0.993164 16.4004 2.8916 16.4004Z" fill="#8E8E93"/>
<path d="M15.7525 16C15.2977 16 15.0569 15.8322 14.9097 15.4008L14.1739 13.5553H10.3679L9.63211 15.4008C9.48495 15.8322 9.24415 16 8.7893 16C8.31438 16 8 15.7423 8 15.3409C8 15.1911 8.03345 15.0652 8.09365 14.8975L11.0435 7.76698C11.2508 7.24567 11.6388 7 12.2609 7C12.8629 7 13.2508 7.24567 13.4582 7.76099L16.4214 14.9334C16.4816 15.0892 16.5084 15.221 16.5084 15.3529C16.5084 15.7543 16.2207 16 15.7525 16ZM13.786 12.4288L12.2876 8.54594H12.2408L10.7425 12.4288H13.786ZM23.3043 16C22.9498 16 22.7291 15.8322 22.602 15.4487L22.1271 14.1844H19.5251L19.0569 15.4547C18.9298 15.8442 18.709 16 18.3344 16C17.9264 16 17.6455 15.7603 17.6455 15.4128C17.6455 15.275 17.6789 15.1372 17.7458 14.9754L19.7659 10.1278C19.9666 9.64248 20.3077 9.41478 20.8361 9.41478C21.3445 9.41478 21.6856 9.64248 21.8796 10.1278L23.9064 14.9754C23.9666 15.1252 24 15.281 24 15.4128C24 15.7723 23.7324 16 23.3043 16ZM21.7993 13.2317L20.9097 10.727H20.7692L19.8595 13.2317H21.7993Z" fill="#FF453A"/>
</svg>
