<svg width="23" height="18" viewBox="0 0 23 18" fill="none" xmlns="http://www.w3.org/2000/svg">
<path d="M17.2617 1.62598H9.11426C8.48145 1.62598 8.10352 1.48535 7.61133 1.08105L7.11914 0.676758C6.49512 0.166992 6.03809 0 5.11523 0H2.62793C0.975586 0 0 0.966797 0 2.82129V5.28223H20.1533V4.49121C20.1533 2.61035 19.1602 1.62598 17.2617 1.62598ZM2.8916 16.4004H17.4727C19.1689 16.4004 20.1533 15.416 20.1533 13.5352V6.54785H0V13.5352C0 15.4248 0.993164 16.4004 2.8916 16.4004Z" fill="#8E8E93"/>
<path d="M10.2363 16.9814H19.7676C20.0703 16.9814 20.3112 16.8919 20.4902 16.7129C20.6693 16.5371 20.7588 16.3011 20.7588 16.0049V8.95898C20.7588 8.66602 20.6693 8.43164 20.4902 8.25586C20.3112 8.07682 20.0703 7.9873 19.7676 7.9873H10.2363C9.93685 7.9873 9.69596 8.07682 9.51367 8.25586C9.33464 8.43164 9.24512 8.66602 9.24512 8.95898V16.0049C9.24512 16.3011 9.33464 16.5371 9.51367 16.7129C9.69596 16.8919 9.93685 16.9814 10.2363 16.9814ZM10.2412 16.1953C10.0687 16.1953 9.98242 16.1107 9.98242 15.9414V15.3896C9.98242 15.3213 10.0036 15.266 10.0459 15.2236C10.0915 15.1781 10.1501 15.1553 10.2217 15.1553H10.8516C10.9232 15.1553 10.9801 15.1781 11.0225 15.2236C11.0648 15.266 11.0859 15.3213 11.0859 15.3896V15.9561C11.0859 16.0244 11.0648 16.0814 11.0225 16.127C10.9801 16.1725 10.9232 16.1953 10.8516 16.1953H10.2412ZM10.2217 14.5791C10.1501 14.5791 10.0915 14.5563 10.0459 14.5107C10.0036 14.4619 9.98242 14.4066 9.98242 14.3447V13.7881C9.98242 13.7165 10.0036 13.6595 10.0459 13.6172C10.0915 13.5716 10.1501 13.5488 10.2217 13.5488H10.8516C10.9232 13.5488 10.9801 13.5716 11.0225 13.6172C11.0648 13.6595 11.0859 13.7165 11.0859 13.7881V14.3447C11.0859 14.4066 11.0648 14.4619 11.0225 14.5107C10.9801 14.5563 10.9232 14.5791 10.8516 14.5791H10.2217ZM10.2217 12.9971C10.1501 12.9971 10.0915 12.9743 10.0459 12.9287C10.0036 12.8831 9.98242 12.8294 9.98242 12.7676V12.2109C9.98242 12.1393 10.0036 12.0824 10.0459 12.04C10.0915 11.9945 10.1501 11.9717 10.2217 11.9717H10.8516C10.9232 11.9717 10.9801 11.9945 11.0225 12.04C11.0648 12.0824 11.0859 12.1393 11.0859 12.2109V12.7676C11.0859 12.8294 11.0648 12.8831 11.0225 12.9287C10.9801 12.9743 10.9232 12.9971 10.8516 12.9971H10.2217ZM10.2217 11.4297C10.1501 11.4297 10.0915 11.4069 10.0459 11.3613C10.0036 11.3158 9.98242 11.262 9.98242 11.2002V10.6387C9.98242 10.5671 10.0036 10.5101 10.0459 10.4678C10.0915 10.4222 10.1501 10.3994 10.2217 10.3994H10.8516C10.9232 10.3994 10.9801 10.4222 11.0225 10.4678C11.0648 10.5101 11.0859 10.5671 11.0859 10.6387V11.2002C11.0859 11.262 11.0648 11.3158 11.0225 11.3613C10.9801 11.4069 10.9232 11.4297 10.8516 11.4297H10.2217ZM10.2217 9.81348C10.1501 9.81348 10.0915 9.79069 10.0459 9.74512C10.0036 9.69954 9.98242 9.64583 9.98242 9.58398V9.03223C9.98242 8.8597 10.0687 8.77344 10.2412 8.77344H10.8516C10.9232 8.77344 10.9801 8.79622 11.0225 8.8418C11.0648 8.88411 11.0859 8.94108 11.0859 9.0127V9.58398C11.0859 9.64583 11.0648 9.69954 11.0225 9.74512C10.9801 9.79069 10.9232 9.81348 10.8516 9.81348H10.2217ZM19.1523 16.1953C19.084 16.1953 19.027 16.1725 18.9814 16.127C18.9391 16.0814 18.918 16.0244 18.918 15.9561V15.3896C18.918 15.3213 18.9391 15.266 18.9814 15.2236C19.027 15.1781 19.084 15.1553 19.1523 15.1553H19.7822C19.8538 15.1553 19.9108 15.1781 19.9531 15.2236C19.9987 15.266 20.0215 15.3213 20.0215 15.3896V15.9414C20.0215 16.1107 19.9352 16.1953 19.7627 16.1953H19.1523ZM19.1523 14.5791C19.084 14.5791 19.027 14.5563 18.9814 14.5107C18.9391 14.4619 18.918 14.4066 18.918 14.3447V13.7881C18.918 13.7165 18.9391 13.6595 18.9814 13.6172C19.027 13.5716 19.084 13.5488 19.1523 13.5488H19.7822C19.8571 13.5488 19.9157 13.5716 19.958 13.6172C20.0003 13.6595 20.0215 13.7165 20.0215 13.7881V14.3447C20.0215 14.4066 19.9987 14.4619 19.9531 14.5107C19.9108 14.5563 19.8538 14.5791 19.7822 14.5791H19.1523ZM19.1523 12.9971C19.084 12.9971 19.027 12.9743 18.9814 12.9287C18.9391 12.8831 18.918 12.8294 18.918 12.7676V12.2109C18.918 12.1393 18.9391 12.0824 18.9814 12.04C19.027 11.9945 19.084 11.9717 19.1523 11.9717H19.7822C19.8571 11.9717 19.9157 11.9945 19.958 12.04C20.0003 12.0824 20.0215 12.1393 20.0215 12.2109V12.7676C20.0215 12.8294 19.9987 12.8831 19.9531 12.9287C19.9108 12.9743 19.8538 12.9971 19.7822 12.9971H19.1523ZM19.1523 11.4297C19.084 11.4297 19.027 11.4069 18.9814 11.3613C18.9391 11.3158 18.918 11.262 18.918 11.2002V10.6387C18.918 10.5671 18.9391 10.5101 18.9814 10.4678C19.027 10.4222 19.084 10.3994 19.1523 10.3994H19.7822C19.8571 10.3994 19.9157 10.4222 19.958 10.4678C20.0003 10.5101 20.0215 10.5671 20.0215 10.6387V11.2002C20.0215 11.262 19.9987 11.3158 19.9531 11.3613C19.9108 11.4069 19.8538 11.4297 19.7822 11.4297H19.1523ZM11.6328 12.4844C11.6328 12.3802 11.667 12.2923 11.7354 12.2207C11.807 12.1491 11.8949 12.1133 11.999 12.1133H18.0049C18.109 12.1133 18.1969 12.1491 18.2686 12.2207C18.3402 12.2923 18.376 12.3802 18.376 12.4844C18.376 12.5853 18.3402 12.6715 18.2686 12.7432C18.1969 12.8148 18.109 12.8506 18.0049 12.8506H11.999C11.8949 12.8506 11.807 12.8148 11.7354 12.7432C11.667 12.6715 11.6328 12.5853 11.6328 12.4844ZM19.1523 9.81348C19.084 9.81348 19.027 9.79069 18.9814 9.74512C18.9391 9.69954 18.918 9.64583 18.918 9.58398V9.0127C18.918 8.94108 18.9391 8.88411 18.9814 8.8418C19.027 8.79622 19.084 8.77344 19.1523 8.77344H19.7627C19.9352 8.77344 20.0215 8.8597 20.0215 9.03223V9.58398C20.0215 9.64583 19.9987 9.69954 19.9531 9.74512C19.9108 9.79069 19.8538 9.81348 19.7822 9.81348H19.1523Z" fill="#0A84FF"/>
</svg>
