<svg width="16px" height="16px" viewBox="0 0 24 24"  fill="none" xmlns="http://www.w3.org/2000/svg">
<path d="M7.85986 17.0171H10.6157C10.9588 17.0171 11.2327 16.9175 11.4375 16.7183C11.6423 16.519 11.7446 16.2756 11.7446 15.9878C11.7446 15.8328 11.7087 15.6724 11.6367 15.5063C11.5703 15.3459 11.4624 15.1854 11.313 15.0249C11.1304 14.8257 10.9865 14.6126 10.8813 14.3857C10.7762 14.1589 10.7236 13.9237 10.7236 13.6802C10.7236 13.1987 10.8841 12.7865 11.2051 12.4434C11.526 12.1003 11.9577 11.9287 12.5 11.9287C13.0423 11.9287 13.474 12.1003 13.7949 12.4434C14.1159 12.7865 14.2764 13.1987 14.2764 13.6802C14.2764 13.9237 14.221 14.1589 14.1104 14.3857C14.0052 14.6126 13.8613 14.8257 13.6787 15.0249C13.5348 15.1854 13.4269 15.3459 13.355 15.5063C13.2886 15.6724 13.2554 15.8328 13.2554 15.9878C13.2554 16.2756 13.3577 16.519 13.5625 16.7183C13.7673 16.9175 14.0412 17.0171 14.3843 17.0171H17.1318C17.9674 17.0171 18.5983 16.8068 19.0244 16.3862C19.4561 15.9657 19.6719 15.3431 19.6719 14.5186V11.5884C19.6719 11.522 19.694 11.4777 19.7383 11.4556C19.7826 11.4279 19.8407 11.4417 19.9126 11.4971C20.0897 11.6188 20.2751 11.7295 20.4688 11.8291C20.6624 11.9232 20.8644 11.9979 21.0747 12.0532C21.2905 12.1086 21.5119 12.1362 21.7388 12.1362C22.2645 12.1362 22.7515 12.0062 23.1997 11.7461C23.6535 11.4805 24.0187 11.1152 24.2954 10.6504C24.5776 10.1855 24.7188 9.64323 24.7188 9.02344C24.7188 8.40918 24.5776 7.86963 24.2954 7.40479C24.0187 6.93441 23.6535 6.56917 23.1997 6.30908C22.7515 6.04899 22.2645 5.91895 21.7388 5.91895C21.5119 5.91895 21.2905 5.94661 21.0747 6.00195C20.8644 6.05729 20.6624 6.13477 20.4688 6.23438C20.2751 6.32845 20.0897 6.43636 19.9126 6.55811C19.8407 6.61344 19.7826 6.63005 19.7383 6.60791C19.694 6.58024 19.6719 6.5332 19.6719 6.4668V3.47021C19.6719 2.6512 19.4561 2.03141 19.0244 1.61084C18.5983 1.18473 17.9674 0.97168 17.1318 0.97168H14.3843C14.0412 0.97168 13.7673 1.07129 13.5625 1.27051C13.3577 1.46973 13.2554 1.71322 13.2554 2.00098C13.2554 2.15592 13.2886 2.31641 13.355 2.48242C13.4269 2.6429 13.5348 2.80339 13.6787 2.96387C13.8613 3.16309 14.0052 3.37614 14.1104 3.60303C14.221 3.82992 14.2764 4.06787 14.2764 4.31689C14.2764 4.78727 14.1131 5.19678 13.7866 5.54541C13.4657 5.88851 13.0368 6.06006 12.5 6.06006C11.9632 6.06006 11.5316 5.88851 11.2051 5.54541C10.8841 5.19678 10.7236 4.78727 10.7236 4.31689C10.7236 4.06787 10.7762 3.82992 10.8813 3.60303C10.9865 3.37614 11.1304 3.16309 11.313 2.96387C11.4624 2.80339 11.5703 2.6429 11.6367 2.48242C11.7087 2.31641 11.7446 2.15592 11.7446 2.00098C11.7446 1.71322 11.6423 1.46973 11.4375 1.27051C11.2327 1.07129 10.9588 0.97168 10.6157 0.97168H7.85986C7.02979 0.97168 6.39893 1.18473 5.96729 1.61084C5.54118 2.03141 5.32812 2.6512 5.32812 3.47021V6.4668C5.32812 6.5332 5.30599 6.58024 5.26172 6.60791C5.21745 6.63005 5.15934 6.61344 5.0874 6.55811C4.91032 6.43636 4.72493 6.32845 4.53125 6.23438C4.33757 6.13477 4.13281 6.05729 3.91699 6.00195C3.70671 5.94661 3.48535 5.91895 3.25293 5.91895C2.73275 5.91895 2.24577 6.04899 1.79199 6.30908C1.33822 6.56917 0.972982 6.93441 0.696289 7.40479C0.419596 7.86963 0.28125 8.40918 0.28125 9.02344C0.28125 9.64323 0.419596 10.1855 0.696289 10.6504C0.972982 11.1152 1.33822 11.4805 1.79199 11.7461C2.24577 12.0062 2.73275 12.1362 3.25293 12.1362C3.48535 12.1362 3.70671 12.1086 3.91699 12.0532C4.13281 11.9979 4.33757 11.9232 4.53125 11.8291C4.72493 11.7295 4.91032 11.6188 5.0874 11.4971C5.15934 11.4417 5.21745 11.4279 5.26172 11.4556C5.30599 11.4777 5.32812 11.522 5.32812 11.5884V14.5186C5.32812 15.3431 5.54118 15.9657 5.96729 16.3862C6.39893 16.8068 7.02979 17.0171 7.85986 17.0171ZM7.88477 15.6807C7.50293 15.6807 7.2041 15.5755 6.98828 15.3652C6.77246 15.1549 6.66455 14.8506 6.66455 14.4521V10.916C6.66455 10.5674 6.56494 10.2907 6.36572 10.0859C6.1665 9.88118 5.92301 9.77881 5.63525 9.77881C5.48031 9.77881 5.31982 9.81478 5.15381 9.88672C4.99333 9.95312 4.83285 10.061 4.67236 10.2104C4.47314 10.3931 4.25732 10.5397 4.0249 10.6504C3.79801 10.7555 3.56283 10.8081 3.31934 10.8081C2.84896 10.8081 2.43945 10.6449 2.09082 10.3184C1.74772 9.99186 1.57617 9.56022 1.57617 9.02344C1.57617 8.49219 1.74772 8.06331 2.09082 7.73682C2.43945 7.41032 2.84896 7.24707 3.31934 7.24707C3.56283 7.24707 3.79801 7.30241 4.0249 7.41309C4.25732 7.51823 4.47314 7.66211 4.67236 7.84473C4.83285 7.99414 4.99333 8.10482 5.15381 8.17676C5.31982 8.24316 5.48031 8.27637 5.63525 8.27637C5.92301 8.27637 6.1665 8.17399 6.36572 7.96924C6.56494 7.76449 6.66455 7.48779 6.66455 7.13916V3.53662C6.66455 3.14372 6.77246 2.84212 6.98828 2.63184C7.2041 2.41602 7.50293 2.30811 7.88477 2.30811H9.79395C9.98763 2.30811 10.0762 2.34961 10.0596 2.43262C10.043 2.51009 10.0098 2.58757 9.95996 2.66504C9.84928 2.83659 9.74967 3.01367 9.66113 3.19629C9.57812 3.37337 9.51172 3.56152 9.46191 3.76074C9.41764 3.95443 9.39551 4.16195 9.39551 4.3833C9.39551 4.90348 9.52555 5.39046 9.78564 5.84424C10.0457 6.29248 10.4082 6.65771 10.873 6.93994C11.3434 7.21663 11.8857 7.35498 12.5 7.35498C13.1143 7.35498 13.6538 7.21663 14.1187 6.93994C14.589 6.65771 14.9543 6.29248 15.2144 5.84424C15.4744 5.39046 15.6045 4.90348 15.6045 4.3833C15.6045 4.16195 15.5796 3.95443 15.5298 3.76074C15.48 3.56152 15.4136 3.37337 15.3306 3.19629C15.2476 3.01367 15.1507 2.83659 15.04 2.66504C14.9902 2.58757 14.9543 2.51009 14.9321 2.43262C14.9155 2.34961 15.0068 2.30811 15.2061 2.30811H17.1152C17.4971 2.30811 17.7959 2.41602 18.0117 2.63184C18.2275 2.84212 18.3354 3.14372 18.3354 3.53662V7.13916C18.3354 7.48779 18.4351 7.76449 18.6343 7.96924C18.8335 8.17399 19.077 8.27637 19.3647 8.27637C19.5197 8.27637 19.6774 8.24316 19.8379 8.17676C20.0039 8.10482 20.1672 7.99414 20.3276 7.84473C20.5269 7.66211 20.7399 7.51823 20.9668 7.41309C21.1937 7.30241 21.4289 7.24707 21.6724 7.24707C22.1483 7.24707 22.5578 7.41032 22.9009 7.73682C23.2495 8.06331 23.4238 8.49219 23.4238 9.02344C23.4238 9.56022 23.2495 9.99186 22.9009 10.3184C22.5578 10.6449 22.1483 10.8081 21.6724 10.8081C21.4289 10.8081 21.1937 10.7555 20.9668 10.6504C20.7399 10.5397 20.5269 10.3931 20.3276 10.2104C20.1672 10.061 20.0039 9.95312 19.8379 9.88672C19.6774 9.81478 19.5197 9.77881 19.3647 9.77881C19.077 9.77881 18.8335 9.88118 18.6343 10.0859C18.4351 10.2907 18.3354 10.5674 18.3354 10.916V14.4521C18.3354 14.8506 18.2275 15.1549 18.0117 15.3652C17.7959 15.5755 17.4971 15.6807 17.1152 15.6807H15.2061C15.0068 15.6807 14.9155 15.6392 14.9321 15.5562C14.9543 15.4787 14.9902 15.4012 15.04 15.3237C15.1507 15.1577 15.2476 14.9834 15.3306 14.8008C15.4136 14.6182 15.48 14.43 15.5298 14.2363C15.5796 14.0371 15.6045 13.8296 15.6045 13.6138C15.6045 13.0825 15.4744 12.5928 15.2144 12.1445C14.9598 11.6908 14.5973 11.3255 14.127 11.0488C13.6621 10.7721 13.1198 10.6338 12.5 10.6338C11.8802 10.6338 11.3351 10.7721 10.8647 11.0488C10.3999 11.3255 10.0374 11.6908 9.77734 12.1445C9.52279 12.5928 9.39551 13.0825 9.39551 13.6138C9.39551 13.8296 9.41764 14.0371 9.46191 14.2363C9.51172 14.43 9.57812 14.6182 9.66113 14.8008C9.74967 14.9834 9.84928 15.1577 9.95996 15.3237C10.0098 15.4012 10.043 15.4787 10.0596 15.5562C10.0762 15.6392 9.98763 15.6807 9.79395 15.6807H7.88477Z" fill="#8E8E93"/>
</svg>
