<svg width="23" height="21" viewBox="0 0 23 21" fill="none" xmlns="http://www.w3.org/2000/svg">
<path d="M17.2617 1.62598H9.11426C8.48145 1.62598 8.10352 1.48535 7.61133 1.08105L7.11914 0.676758C6.49512 0.166992 6.03809 0 5.11523 0H2.62793C0.975586 0 0 0.966797 0 2.82129V5.28223H20.1533V4.49121C20.1533 2.61035 19.1602 1.62598 17.2617 1.62598ZM2.8916 16.4004H17.4727C19.1689 16.4004 20.1533 15.416 20.1533 13.5352V6.54785H0V13.5352C0 15.4248 0.993164 16.4004 2.8916 16.4004Z" fill="#8E8E93"/>
<path d="M17 16.1816C17.3385 16.1816 17.6559 16.0645 17.9521 15.8301C18.2516 15.5957 18.5137 15.2669 18.7383 14.8438C18.9661 14.4206 19.1436 13.9242 19.2705 13.3545C19.4007 12.7816 19.4658 12.1582 19.4658 11.4844C19.4658 10.8105 19.4023 10.1872 19.2754 9.61426C19.1484 9.03809 18.971 8.53841 18.7432 8.11523C18.5186 7.6888 18.2565 7.3584 17.957 7.12402C17.6608 6.88965 17.3418 6.77246 17 6.77246C16.6582 6.77246 16.3376 6.88965 16.0381 7.12402C15.7419 7.3584 15.4814 7.6888 15.2568 8.11523C15.0322 8.53841 14.8548 9.03809 14.7246 9.61426C14.5977 10.1872 14.5342 10.8105 14.5342 11.4844C14.5342 12.1582 14.5977 12.7816 14.7246 13.3545C14.8548 13.9242 15.0322 14.4206 15.2568 14.8438C15.4847 15.2669 15.7467 15.5957 16.043 15.8301C16.3424 16.0645 16.6615 16.1816 17 16.1816ZM17 7.36328C17.2376 7.36328 17.4655 7.47396 17.6836 7.69531C17.9017 7.91341 18.0954 8.21289 18.2646 8.59375C18.4339 8.97461 18.5674 9.41406 18.665 9.91211C18.7627 10.4069 18.8115 10.931 18.8115 11.4844C18.8115 12.0312 18.7627 12.5505 18.665 13.042C18.5674 13.5335 18.4339 13.9714 18.2646 14.3555C18.0954 14.7363 17.9017 15.0358 17.6836 15.2539C17.4655 15.4753 17.2376 15.5859 17 15.5859C16.7624 15.5859 16.5345 15.4753 16.3164 15.2539C16.0983 15.0358 15.9046 14.7363 15.7354 14.3555C15.5661 13.9714 15.4326 13.5335 15.335 13.042C15.2373 12.5505 15.1885 12.0312 15.1885 11.4844C15.1885 10.931 15.2373 10.4069 15.335 9.91211C15.4326 9.41406 15.5661 8.97461 15.7354 8.59375C15.9046 8.21289 16.0983 7.91341 16.3164 7.69531C16.5345 7.47396 16.7624 7.36328 17 7.36328ZM16.6826 6.84082V16.0889H17.3223V6.84082H16.6826ZM17 13.3105C16.4987 13.3105 16.0234 13.3529 15.5742 13.4375C15.125 13.5189 14.7197 13.6377 14.3584 13.7939C14.0003 13.9469 13.7074 14.1276 13.4795 14.3359L13.9727 14.7412C14.1875 14.5719 14.4447 14.4287 14.7441 14.3115C15.0469 14.1911 15.387 14.1016 15.7646 14.043C16.1455 13.9811 16.5573 13.9502 17 13.9502C17.4427 13.9502 17.8529 13.9811 18.2305 14.043C18.6113 14.1016 18.9515 14.1911 19.251 14.3115C19.5537 14.4287 19.8125 14.5719 20.0273 14.7412L20.5205 14.3359C20.2926 14.1276 19.998 13.9469 19.6367 13.7939C19.2786 13.6377 18.875 13.5189 18.4258 13.4375C17.9766 13.3529 17.5013 13.3105 17 13.3105ZM21.5068 11.1523H12.4932V11.792H21.5068V11.1523ZM17 9.66309C17.5013 9.66309 17.9766 9.6224 18.4258 9.54102C18.875 9.45638 19.2786 9.33757 19.6367 9.18457C19.998 9.02832 20.2926 8.84603 20.5205 8.6377L20.0273 8.23242C19.8125 8.40169 19.5537 8.54655 19.251 8.66699C18.9515 8.78418 18.6113 8.8737 18.2305 8.93555C17.8529 8.99414 17.4427 9.02344 17 9.02344C16.5573 9.02344 16.1455 8.99414 15.7646 8.93555C15.387 8.8737 15.0469 8.78418 14.7441 8.66699C14.4447 8.54655 14.1875 8.40169 13.9727 8.23242L13.4795 8.6377C13.7074 8.84603 14.0003 9.02832 14.3584 9.18457C14.7197 9.33757 15.125 9.45638 15.5742 9.54102C16.0234 9.6224 16.4987 9.66309 17 9.66309ZM17 16.4551C17.6803 16.4551 18.32 16.3249 18.9189 16.0645C19.5212 15.804 20.0518 15.4443 20.5107 14.9854C20.9697 14.5264 21.3294 13.9974 21.5898 13.3984C21.8503 12.7962 21.9805 12.1549 21.9805 11.4746C21.9805 10.7943 21.8503 10.1546 21.5898 9.55566C21.3294 8.95345 20.9697 8.42285 20.5107 7.96387C20.0518 7.50488 19.5212 7.14518 18.9189 6.88477C18.3167 6.62435 17.6755 6.49414 16.9951 6.49414C16.3148 6.49414 15.6735 6.62435 15.0713 6.88477C14.4723 7.14518 13.9434 7.50488 13.4844 7.96387C13.0286 8.42285 12.6706 8.95345 12.4102 9.55566C12.1497 10.1546 12.0195 10.7943 12.0195 11.4746C12.0195 12.1549 12.1497 12.7962 12.4102 13.3984C12.6706 13.9974 13.0303 14.5264 13.4893 14.9854C13.9482 15.4443 14.4772 15.804 15.0762 16.0645C15.6784 16.3249 16.3197 16.4551 17 16.4551ZM17 15.791C16.4108 15.791 15.8558 15.6771 15.335 15.4492C14.8141 15.2246 14.3551 14.9137 13.958 14.5166C13.5609 14.1195 13.2484 13.6605 13.0205 13.1396C12.7959 12.6188 12.6836 12.0638 12.6836 11.4746C12.6836 10.8854 12.7959 10.3304 13.0205 9.80957C13.2484 9.28874 13.5592 8.82975 13.9531 8.43262C14.3503 8.03548 14.8092 7.72461 15.3301 7.5C15.8509 7.27214 16.4059 7.1582 16.9951 7.1582C17.5843 7.1582 18.1393 7.27214 18.6602 7.5C19.181 7.72461 19.64 8.03548 20.0371 8.43262C20.4375 8.82975 20.75 9.28874 20.9746 9.80957C21.2025 10.3304 21.3164 10.8854 21.3164 11.4746C21.3164 12.0638 21.2025 12.6188 20.9746 13.1396C20.75 13.6605 20.4391 14.1195 20.042 14.5166C19.6449 14.9137 19.1859 15.2246 18.665 15.4492C18.1442 15.6771 17.5892 15.791 17 15.791Z" fill="#5E5CE6"/>
</svg>
