<svg width="16px" height="16px" viewBox="0 0 24 24" fill="none" xmlns="http://www.w3.org/2000/svg">
<path d="M0.734863 9.02344C0.734863 9.2946 0.804036 9.54362 0.942383 9.77051C1.08073 9.99186 1.26611 10.1717 1.49854 10.3101C1.73096 10.4429 1.98275 10.5093 2.25391 10.5093C2.5306 10.5093 2.78239 10.4429 3.00928 10.3101C3.23617 10.1717 3.41602 9.9891 3.54883 9.76221C3.68717 9.52979 3.75635 9.27799 3.75635 9.00684C3.75635 8.5918 3.6097 8.23763 3.31641 7.94434C3.02865 7.64551 2.67448 7.49609 2.25391 7.49609C1.97721 7.49609 1.72266 7.56527 1.49023 7.70361C1.26335 7.84196 1.08073 8.02734 0.942383 8.25977C0.804036 8.49219 0.734863 8.74674 0.734863 9.02344ZM5.3999 12.3521C5.53825 12.507 5.71257 12.5845 5.92285 12.5845C6.13867 12.5789 6.31852 12.4821 6.4624 12.2939C6.82764 11.8457 7.10986 11.3449 7.30908 10.7915C7.5083 10.2326 7.60791 9.64876 7.60791 9.04004C7.60791 8.43132 7.5083 7.84749 7.30908 7.28857C7.10986 6.72965 6.82764 6.22884 6.4624 5.78613C6.31852 5.59245 6.13867 5.49561 5.92285 5.49561C5.71257 5.49007 5.53825 5.56755 5.3999 5.72803C5.26709 5.87744 5.22005 6.04069 5.25879 6.21777C5.29753 6.39486 5.38053 6.57471 5.50781 6.75732C5.7513 7.06722 5.93669 7.41862 6.06396 7.81152C6.19124 8.19889 6.25488 8.6084 6.25488 9.04004C6.25488 9.47168 6.19124 9.88395 6.06396 10.2769C5.94222 10.6642 5.75684 11.0129 5.50781 11.3228C5.375 11.4998 5.28923 11.6797 5.25049 11.8623C5.21729 12.0394 5.26709 12.2026 5.3999 12.3521ZM7.72412 14.7178C7.85693 14.8727 8.02572 14.9502 8.23047 14.9502C8.43522 14.9447 8.61784 14.8534 8.77832 14.6763C9.46452 13.9292 9.993 13.0715 10.3638 12.103C10.7401 11.1346 10.9282 10.1136 10.9282 9.04004C10.9282 8.32064 10.8452 7.62614 10.6792 6.95654C10.5132 6.28141 10.2697 5.64502 9.94873 5.04736C9.62777 4.44417 9.23763 3.89632 8.77832 3.40381C8.61784 3.22673 8.43522 3.13818 8.23047 3.13818C8.02572 3.13265 7.85693 3.20736 7.72412 3.3623C7.59131 3.51172 7.53874 3.67773 7.56641 3.86035C7.59961 4.04297 7.69092 4.22005 7.84033 4.3916C8.40479 5.00586 8.83366 5.71143 9.12695 6.5083C9.42578 7.29964 9.5752 8.14355 9.5752 9.04004C9.5752 9.93099 9.42578 10.7749 9.12695 11.5718C8.82812 12.3631 8.39925 13.0687 7.84033 13.6885C7.69092 13.86 7.59961 14.0371 7.56641 14.2197C7.53874 14.3968 7.59131 14.5628 7.72412 14.7178ZM10.123 16.9258C10.2503 17.0697 10.4136 17.1444 10.6128 17.1499C10.812 17.1554 10.9891 17.0752 11.144 16.9092C12.1346 15.8743 12.901 14.6818 13.4434 13.3315C13.9857 11.9813 14.2568 10.5508 14.2568 9.04004C14.2568 7.52376 13.9857 6.09049 13.4434 4.74023C12.9066 3.38444 12.1401 2.19189 11.144 1.1626C10.9891 0.996582 10.812 0.919108 10.6128 0.930176C10.4136 0.93571 10.2503 1.00765 10.123 1.146C9.99577 1.28988 9.9432 1.45589 9.96533 1.64404C9.98747 1.83219 10.0732 2.00374 10.2227 2.15869C11.0915 3.05518 11.7555 4.09277 12.2148 5.27148C12.6742 6.4502 12.9038 7.70638 12.9038 9.04004C12.9038 10.3737 12.6714 11.6271 12.2065 12.8003C11.7417 13.9735 11.0804 15.0111 10.2227 15.9131C10.0732 16.0736 9.98747 16.2451 9.96533 16.4277C9.9432 16.6159 9.99577 16.7819 10.123 16.9258Z" fill="#FF9500"/>
</svg>
