<svg width="25" height="21" viewBox="0 0 25 21" fill="none" xmlns="http://www.w3.org/2000/svg">
<path d="M17.2617 1.62598H9.11426C8.48145 1.62598 8.10352 1.48535 7.61133 1.08105L7.11914 0.676758C6.49512 0.166992 6.03809 0 5.11523 0H2.62793C0.975586 0 0 0.966797 0 2.82129V5.28223H20.1533V4.49121C20.1533 2.61035 19.1602 1.62598 17.2617 1.62598ZM2.8916 16.4004H17.4727C19.1689 16.4004 20.1533 15.416 20.1533 13.5352V6.54785H0V13.5352C0 15.4248 0.993164 16.4004 2.8916 16.4004Z" fill="#8E8E93"/>
<path d="M12.5928 16.7578C12.8076 16.9759 13.0355 17.0752 13.2764 17.0557C13.5205 17.0394 13.7533 16.9059 13.9746 16.6553L18.6182 11.3672L17.1826 9.93164L11.8799 14.5605C11.626 14.7852 11.4909 15.0179 11.4746 15.2588C11.4616 15.4997 11.5625 15.7292 11.7773 15.9473L12.5928 16.7578ZM21.2744 12.5537C21.3786 12.6514 21.4876 12.7035 21.6016 12.71C21.7155 12.7165 21.8229 12.6693 21.9238 12.5684L23.3936 11.1084C23.488 11.014 23.5319 10.9082 23.5254 10.791C23.5189 10.6706 23.4652 10.5615 23.3643 10.4639L23.0127 10.1074C22.915 10.013 22.8304 9.95443 22.7588 9.93164C22.6872 9.90885 22.5993 9.90072 22.4951 9.90723L21.9238 9.97559L21.5576 9.60938L21.7236 8.9209C21.766 8.75163 21.7546 8.5791 21.6895 8.40332C21.6243 8.22754 21.5023 8.05013 21.3232 7.87109L20.3418 6.89941C20.0716 6.62923 19.7624 6.40788 19.4141 6.23535C19.0658 6.06283 18.6979 5.94401 18.3105 5.87891C17.9232 5.81055 17.5358 5.79753 17.1484 5.83984C16.7611 5.88216 16.39 5.98307 16.0352 6.14258C15.6803 6.29883 15.363 6.5153 15.083 6.79199C14.9658 6.90918 14.9105 7.02799 14.917 7.14844C14.9268 7.26888 14.9691 7.37142 15.0439 7.45605C15.1025 7.51139 15.1742 7.55208 15.2588 7.57812C15.3434 7.60091 15.4281 7.59928 15.5127 7.57324C15.988 7.43001 16.4323 7.35677 16.8457 7.35352C17.2591 7.34701 17.6432 7.44954 17.998 7.66113L17.6221 8.64746C17.5407 8.85579 17.5179 9.03646 17.5537 9.18945C17.5928 9.34245 17.679 9.4873 17.8125 9.62402L18.9014 10.7129C19.0023 10.8105 19.1081 10.8757 19.2188 10.9082C19.3327 10.9375 19.4694 10.9375 19.6289 10.9082L20.415 10.7471L20.7764 11.1133L20.7227 11.6846C20.7161 11.792 20.7227 11.8831 20.7422 11.958C20.765 12.0329 20.8252 12.1159 20.9229 12.207L21.2744 12.5537Z" fill="#0A84FF"/>
</svg>
