<svg width="16px" height="16px" viewBox="0 0 24 24" fill="none" xmlns="http://www.w3.org/2000/svg">
<path d="M0.519043 16.3071C0.519043 17.1759 0.732096 17.8262 1.1582 18.2578C1.58984 18.6895 2.23454 18.9053 3.09229 18.9053H11.9077C12.7655 18.9053 13.4074 18.6895 13.8335 18.2578C14.2651 17.8262 14.481 17.1759 14.481 16.3071V3.71484C14.481 2.85156 14.2651 2.20133 13.8335 1.76416C13.4074 1.32699 12.7655 1.1084 11.9077 1.1084H3.09229C2.23454 1.1084 1.58984 1.32699 1.1582 1.76416C0.732096 2.20133 0.519043 2.85156 0.519043 3.71484V16.3071ZM1.85547 16.2822V3.73975C1.85547 3.32471 1.96338 3.00651 2.1792 2.78516C2.40055 2.55827 2.72705 2.44482 3.15869 2.44482H11.8413C12.2729 2.44482 12.5967 2.55827 12.8125 2.78516C13.0339 3.00651 13.1445 3.32471 13.1445 3.73975V16.2822C13.1445 16.6973 13.0339 17.0155 12.8125 17.2368C12.5967 17.4582 12.2729 17.5688 11.8413 17.5688H3.15869C2.72705 17.5688 2.40055 17.4582 2.1792 17.2368C1.96338 17.0155 1.85547 16.6973 1.85547 16.2822ZM6.98535 18.291H8.01465V6.50391H6.98535V18.291ZM7.5 6.81934C8.13086 6.81934 8.62337 6.64779 8.97754 6.30469C9.33171 5.96159 9.50879 5.48844 9.50879 4.88525C9.50879 4.76904 9.50049 4.65283 9.48389 4.53662C9.47282 4.42041 9.45622 4.3042 9.43408 4.18799L8.65381 0.784668C8.62061 0.640788 8.5459 0.524577 8.42969 0.436035C8.31348 0.347493 8.1779 0.303223 8.02295 0.303223H6.97705C6.8221 0.303223 6.68652 0.347493 6.57031 0.436035C6.4541 0.524577 6.37939 0.640788 6.34619 0.784668L5.56592 4.18799C5.54378 4.3042 5.52441 4.42041 5.50781 4.53662C5.49674 4.65283 5.49121 4.76904 5.49121 4.88525C5.49121 5.48844 5.66829 5.96159 6.02246 6.30469C6.37663 6.64779 6.86914 6.81934 7.5 6.81934ZM7.5 5.71533C7.23991 5.71533 7.02409 5.62956 6.85254 5.45801C6.68099 5.28092 6.59521 5.06234 6.59521 4.80225C6.59521 4.55322 6.68099 4.34017 6.85254 4.16309C7.02962 3.986 7.24544 3.89746 7.5 3.89746C7.75456 3.89746 7.96761 3.986 8.13916 4.16309C8.31624 4.34017 8.40479 4.55322 8.40479 4.80225C8.40479 5.06234 8.31901 5.28092 8.14746 5.45801C7.97591 5.62956 7.76009 5.71533 7.5 5.71533ZM7.5 8.74512H9.45898C9.60286 8.74512 9.72461 8.69531 9.82422 8.5957C9.92383 8.49609 9.97363 8.37435 9.97363 8.23047C9.97363 8.08659 9.92383 7.96761 9.82422 7.87354C9.72461 7.77393 9.60286 7.72412 9.45898 7.72412H7.5V8.74512ZM5.54102 9.87402H7.5V8.85303H5.54102C5.39714 8.85303 5.27539 8.90283 5.17578 9.00244C5.07617 9.09652 5.02637 9.21273 5.02637 9.35107C5.02637 9.49495 5.07617 9.61947 5.17578 9.72461C5.27539 9.82422 5.39714 9.87402 5.54102 9.87402ZM7.5 10.9946H9.45898C9.60286 10.9946 9.72461 10.9448 9.82422 10.8452C9.92383 10.7456 9.97363 10.6239 9.97363 10.48C9.97363 10.3361 9.92383 10.2171 9.82422 10.123C9.72461 10.0234 9.60286 9.97363 9.45898 9.97363H7.5V10.9946ZM5.54102 12.1235H7.5V11.1025H5.54102C5.39714 11.1025 5.27539 11.1523 5.17578 11.252C5.07617 11.346 5.02637 11.4622 5.02637 11.6006C5.02637 11.7445 5.07617 11.869 5.17578 11.9741C5.27539 12.0737 5.39714 12.1235 5.54102 12.1235ZM7.5 13.2441H9.45898C9.60286 13.2441 9.72461 13.1943 9.82422 13.0947C9.92383 12.9951 9.97363 12.8734 9.97363 12.7295C9.97363 12.5856 9.92383 12.4666 9.82422 12.3726C9.72461 12.2729 9.60286 12.2231 9.45898 12.2231H7.5V13.2441ZM5.54102 14.373H7.5V13.3521H5.54102C5.39714 13.3521 5.27539 13.4019 5.17578 13.5015C5.07617 13.5955 5.02637 13.7118 5.02637 13.8501C5.02637 13.9995 5.07617 14.124 5.17578 14.2236C5.27539 14.3232 5.39714 14.373 5.54102 14.373ZM7.5 15.4937H9.45898C9.60286 15.4937 9.72461 15.4438 9.82422 15.3442C9.92383 15.2446 9.97363 15.1229 9.97363 14.979C9.97363 14.8351 9.92383 14.7161 9.82422 14.6221C9.72461 14.5225 9.60286 14.4727 9.45898 14.4727H7.5V15.4937ZM5.54102 16.6226H7.5V15.6016H5.54102C5.39714 15.6016 5.27539 15.6514 5.17578 15.751C5.07617 15.8451 5.02637 15.964 5.02637 16.1079C5.02637 16.2518 5.07617 16.3735 5.17578 16.4731C5.27539 16.5728 5.39714 16.6226 5.54102 16.6226Z" fill="#8E8E93"/>
</svg>
